<svg width="235" height="34" viewBox="0 0 235 34" fill="none" xmlns="http://www.w3.org/2000/svg">
<g clip-path="url(#clip0_4_75)" filter="url(#filter0_f_4_75)">
<path d="M222.382 0.841868C222.663 0.830321 222.807 1.29627 222.657 1.67908C222.463 2.18141 222.219 2.62369 222 3.10234L220.918 5.55393L219.992 8.05402L219.26 9.78792C219.198 9.91957 219.004 9.82372 218.874 9.82372C218.874 9.59623 218.824 9.28559 218.881 9.1424C219.444 7.62387 220.006 6.10534 220.607 4.6457C221.108 3.42568 221.664 2.26571 222.196 1.09361C222.252 0.961965 222.346 0.890369 222.384 0.842446L222.382 0.841868ZM225.116 21.1844C225.147 21.0886 225.197 20.9211 225.259 20.7658L226.686 17.4649L227.781 14.6663C227.887 14.403 228.006 14.1466 228.131 13.9128C228.268 13.6495 228.437 13.6137 228.569 13.9128C228.707 14.2246 228.588 14.392 228.469 14.6426C228.169 15.2644 227.906 15.9579 227.637 16.6277L226.004 20.6347C225.854 20.9927 225.685 21.3524 225.485 21.6151C225.323 21.8305 225.129 21.6151 225.116 21.1844H225.116ZM221.037 0.972935C221.15 1.11728 221.269 1.17618 221.287 1.29627C221.31 1.46949 221.306 1.75068 221.25 1.89445L219.457 6.48699C219.325 6.82188 219.175 6.96507 218.981 6.70236C218.806 6.46332 218.875 6.18271 218.975 5.92519L220.708 1.58323C220.802 1.36787 220.92 1.1883 221.039 0.973513L221.037 0.972935ZM226.611 20.9217C226.648 20.7185 226.661 20.5637 226.698 20.4673L227.374 18.8044L227.906 17.5844C228.037 17.2974 228.168 16.9862 228.337 16.783C228.419 16.6871 228.588 16.7351 228.681 16.8424C228.725 16.8904 228.713 17.2969 228.659 17.4285L227.783 19.3656L227.17 20.8668C227.082 21.0574 226.945 21.2017 226.82 21.2497C226.763 21.2727 226.676 21.0222 226.615 20.9148L226.611 20.9217ZM218.835 4.41821C218.723 4.26232 218.616 4.19072 218.572 4.0354C218.541 3.92801 218.579 3.68897 218.629 3.56887L219.48 1.40367C219.611 1.06878 219.78 0.912887 219.955 1.1883C220.124 1.43946 220.024 1.70795 219.899 1.97759C219.611 2.61156 219.361 3.30558 219.086 3.96265C219.023 4.13587 218.927 4.24961 218.835 4.41706L218.835 4.41821ZM228.55 19.3073C228.819 19.2842 228.969 19.7138 228.85 20.0845C228.682 20.6041 228.507 21.1371 228.294 21.5857C228.219 21.7416 228.025 21.6815 227.887 21.7173C227.887 21.4783 227.843 21.1977 227.893 21.0118C228.037 20.4921 228.219 20.0187 228.394 19.529C228.438 19.3974 228.519 19.3385 228.553 19.3015L228.55 19.3073ZM223.589 10.7204C223.975 10.7204 224.34 10.7683 224.603 11.4739C224.778 11.952 224.746 12.3948 224.625 12.7892C224.256 14.0092 223.199 13.9844 222.799 12.9797C222.63 12.549 222.599 12.0588 222.776 11.6517C222.958 11.2452 223.083 10.624 223.464 10.7071C223.502 10.7187 223.546 10.7187 223.589 10.7187V10.7204ZM223.783 11.5692C223.652 11.605 223.539 11.5692 223.489 11.6529C223.377 11.8434 223.276 12.0715 223.22 12.3227C223.201 12.4064 223.333 12.7413 223.383 12.7413C223.646 12.6812 223.908 12.568 224.165 12.4295C224.187 12.4179 224.215 12.023 224.171 11.9629C224.046 11.7724 223.89 11.6639 223.785 11.568L223.783 11.5692ZM277.206 8.17239C277.569 8.42355 277.982 8.53037 278.276 8.93801C279.014 9.97846 279.152 10.9589 278.852 12.6575C278.67 13.698 278.27 14.4515 277.776 14.9417C277.6 15.1149 277.306 15.0254 277.1 14.8701C276.218 14.2003 275.643 12.3948 275.849 10.553C275.986 9.32139 276.506 8.24456 277.175 8.31674C277.188 8.28094 277.198 8.23301 277.207 8.17239H277.206ZM276.068 11.4612L276.312 12.7765C276.537 13.7211 276.925 14.2777 277.456 14.4988C277.531 14.5219 277.638 14.5104 277.688 14.4272C277.957 13.9607 278.27 13.5306 278.46 12.956C278.741 12.09 278.773 11.0911 278.535 10.1696C278.285 9.20072 277.421 8.61467 276.883 8.96168C276.408 9.26077 276.111 10.2054 276.07 11.4618L276.068 11.4612ZM142.128 22.1533L140.858 19.57C140.827 19.57 140.795 19.5816 140.764 19.5816V21.3634C140.758 21.6983 140.758 22.0447 140.708 22.3565C140.676 22.547 140.545 22.7872 140.457 22.7872C140.37 22.7988 140.253 22.5719 140.188 22.3923L139.025 19.1393L138.95 20.2513C138.931 20.7537 138.95 21.256 138.919 21.7526C138.9 22.0158 138.806 22.4581 138.743 22.4703C138.575 22.4703 138.349 22.3865 138.237 22.1596L137.067 19.6364C137.029 19.5527 136.967 19.5048 136.835 19.3495V21.6937C136.835 21.8969 136.817 22.1359 136.766 22.3034C136.716 22.4708 136.617 22.6614 136.535 22.6741C136.447 22.6856 136.316 22.5309 136.266 22.375L135.252 19.4805C134.965 18.7507 134.971 18.141 135.252 17.4597L135.684 16.3234L136.435 14.7569L135.634 12.7955C135.402 12.1373 135.177 11.456 135.04 10.7146C134.983 10.4155 135.159 9.91321 135.271 9.56678C135.44 9.02866 135.634 8.5142 135.847 8.04825C135.997 7.70182 136.184 7.40158 136.385 7.15157C136.691 6.76876 136.866 6.97835 136.873 7.68969C136.879 7.98878 136.85 8.28787 136.85 8.58638V10.3566L136.95 10.4404L137.807 8.79019L138.27 7.82134C138.388 7.6181 138.545 7.48645 138.689 7.33056C138.789 7.72491 138.939 8.09617 138.97 8.5142C139.014 9.05233 138.958 9.6147 139.014 10.2366L139.483 9.00498C139.759 8.39526 140.028 7.77341 140.346 7.25896C140.59 6.87615 140.803 7.13944 140.809 7.74974C140.816 8.24052 140.778 8.74285 140.778 9.23247C140.778 9.6632 140.809 10.0986 140.834 10.7037L142.129 8.04883V9.36412L141.347 10.7989C141.285 10.9306 141.285 11.3186 141.341 11.4572C141.585 11.9768 141.867 12.4618 142.129 12.9584V14.2736L140.809 11.6425L140.697 15.0029C140.703 16.1149 140.791 17.2391 140.847 18.4713L141.159 17.921L142.129 15.9475V22.166L142.128 22.1533ZM140.301 14.8343L139.676 13.1714L139.044 11.3238C138.956 12.2205 138.944 13.094 138.906 13.9671C138.875 14.6599 138.625 14.8522 138.331 14.4336C138.262 14.3377 138.212 14.2067 138.156 14.0872L137.367 12.4012L136.959 11.4566L136.871 11.5882C136.827 12.6645 136.74 13.7534 136.746 14.8291C136.753 15.9048 136.846 16.9816 136.915 18.201C137.053 17.9857 137.147 17.8777 137.216 17.723L138.398 15.3557C138.46 15.2362 138.698 15.2113 138.738 15.3078C138.888 15.6906 139.038 16.0849 138.97 16.6588C138.92 17.0896 138.957 17.5676 138.957 18.0942L140.302 14.8291L140.301 14.8343ZM137.286 11.0674L138.362 13.2442L138.481 13.1726V8.68857L137.286 11.0686V11.0674ZM140.238 21.077L140.32 21.0054V16.138L139.575 18.003C139.5 18.2062 139.387 18.5411 139.431 18.6728C139.675 19.4984 139.963 20.2871 140.238 21.0764L140.238 21.077ZM136.322 20.9812L136.385 20.8974V16.1022L135.603 18.0515C135.547 18.1947 135.509 18.4701 135.54 18.5896L136.322 20.9817V20.9812ZM142.128 6.37325L140.802 3.77789C140.77 3.78943 140.733 3.78944 140.702 3.80098V6.08513C140.702 6.25835 140.702 6.45581 140.658 6.57591C140.589 6.74913 140.483 6.98239 140.389 6.98239C140.301 6.98239 140.189 6.7549 140.12 6.57591L138.944 3.27498L138.894 4.85356C138.881 5.2485 138.888 5.65498 138.856 6.04875C138.8 6.80225 138.563 6.96969 138.262 6.44369C138.012 6.00141 137.787 5.49908 137.555 5.02043L136.905 3.63296C136.874 3.64451 136.842 3.66876 136.817 3.68089L136.773 5.89344C136.767 6.15673 136.742 6.45581 136.667 6.65905C136.561 6.94602 136.385 6.96969 136.279 6.64751L134.984 2.84425C134.94 2.72473 134.953 2.43777 135.003 2.3246L136.16 -0.557721C136.267 -0.796759 136.473 -0.856808 136.636 -1C136.698 -0.665115 136.798 -0.33023 136.81 0.00465528C136.833 0.80607 136.817 1.59536 136.817 2.56422L137.73 0.889791L138.324 -0.401826C138.462 -0.676663 138.612 -0.748259 138.756 -0.341778C138.906 0.0768289 138.95 0.506983 138.918 0.997763C138.896 1.40424 138.912 1.82343 138.981 2.27726L139.632 0.459637C139.831 -0.00689244 140.086 -0.389123 140.338 -0.760384C140.532 -1.04735 140.676 -0.844105 140.733 -0.437047C140.764 -0.173758 140.755 0.113205 140.755 0.388619V2.69702L141.068 2.20624L141.962 0.316445C142 0.196926 142.069 0.125907 142.125 0.0416082V6.36747L142.128 6.37325ZM140.176 5.36859C140.207 5.30912 140.245 5.2612 140.276 5.19537V0.267367L139.462 2.41987C139.406 2.59309 139.412 2.93952 139.462 3.13756C139.638 3.73574 139.844 4.29234 140.038 4.88359C140.088 5.03948 140.132 5.19538 140.176 5.36282L140.176 5.36859ZM136.348 0.200967L135.559 2.12656C135.453 2.40139 135.401 2.71261 135.537 3.04749L136.131 4.76984C136.175 4.88936 136.25 4.96038 136.35 5.12782V0.195194L136.348 0.200967ZM97.475 9.44611C97.5749 9.57775 97.6691 9.81679 97.7692 9.81679C98.4197 9.82834 99.0639 9.82834 99.7145 9.74519C100.146 9.69727 100.277 9.33871 100.277 8.48938L100.271 6.70756C100.271 6.36112 100.334 6.10938 100.54 6.14576C100.746 6.18213 100.778 6.45639 100.759 6.79128L100.646 9.26712C100.603 10.0755 100.346 10.6067 99.9208 10.6298L97.6872 10.6528C97.487 10.6413 97.2932 10.3411 97.0971 10.1748L96.9343 8.16546C96.9218 8.03382 96.8719 7.81903 96.8344 7.80748L95.4044 7.65158C95.4044 8.42875 95.4271 9.08639 95.3983 9.73249C95.342 10.9046 95.0855 11.3469 94.4722 11.5264C94.3782 11.5495 94.2595 11.7897 94.2218 11.9687C94.1782 12.2199 94.1719 12.5305 94.2093 12.7944C94.232 12.9676 94.3596 13.1893 94.4345 13.1893L95.6357 12.9618L96.3739 12.9861L98.7073 12.8417L100.44 12.5784C100.49 12.5669 100.553 12.5426 100.599 12.59C100.686 12.698 100.762 12.8411 100.843 12.9607C100.78 13.0923 100.73 13.3186 100.655 13.3556C100.468 13.463 100.267 13.5115 100.073 13.5288L97.8152 13.78C97.7964 13.9953 97.7776 14.1507 97.7776 14.2996C97.8003 15.9625 97.8089 15.8008 98.4971 15.4948C98.8036 15.3505 99.1354 15.3632 99.4543 15.3216L100.449 15.2616C100.556 15.2731 100.649 15.5006 100.755 15.6195C100.668 15.7928 100.587 16.0618 100.493 16.0861L99.1853 16.2766L97.9905 16.5041C97.9405 16.5156 97.8656 16.6473 97.8529 16.7553C97.8155 16.9943 97.7842 17.2576 97.7842 17.5088C97.7842 18.3748 97.8779 18.4297 98.3282 18.3748L100.324 18.3032C100.405 18.3032 100.486 18.5781 100.568 18.7218C100.493 18.8535 100.418 19.0798 100.336 19.0925L98.6285 19.2121L97.8568 19.3316V21.6515L99.3145 21.461L100.684 21.3293C100.784 21.3293 100.96 21.5805 100.979 21.7601C101.016 22.1429 100.835 22.1429 100.678 22.155L98.0758 22.5378C97.9569 22.5609 97.8382 22.6822 97.7256 22.7532C97.4941 22.8975 97.3751 22.7052 97.3751 22.2335L97.3565 16.1582V13.8256L95.8114 13.8371L94.5101 14.0104C94.2661 14.0335 94.1474 14.1836 94.1537 14.6801C94.1601 15.015 94.1662 15.373 94.1226 15.6848C94.035 16.2708 93.5156 16.7732 93.2028 16.6294L92.4772 16.2714C92.3709 16.1877 92.2956 15.9365 92.2082 15.7518C92.3149 15.6438 92.4336 15.44 92.5335 15.4527C92.7838 15.4885 93.034 15.6259 93.2843 15.7038C93.5347 15.7818 93.6784 15.5479 93.6845 15.0941L93.6909 11.6737L93.1216 11.9127C92.8401 12.0859 92.3959 11.6379 92.3709 11.0466C92.3396 10.221 92.3482 9.38375 92.3335 8.54654V7.57768L91.47 7.76822C91.4013 7.79131 91.3111 8.0673 91.3075 8.23475L91.2512 10.7464L91.2825 16.5953C91.2887 17.3725 91.3325 18.1381 91.3638 18.9153C92.0833 19.2502 92.7938 19.1306 93.5095 18.9747L95.4049 18.4724C95.6175 18.4245 95.7363 18.2819 95.749 17.8742L95.7928 16.2835C95.7989 15.9602 95.8241 15.6138 96.0304 15.6854C96.1244 15.7085 96.262 16.0202 96.2681 16.205C96.2745 16.8632 96.2495 17.5088 96.2057 18.1664C96.1619 18.8477 95.9741 19.1826 95.6239 19.3142C95.5299 19.35 95.4362 19.3373 95.3424 19.3743C95.1234 19.458 94.7418 19.5175 94.7228 19.6734C94.6603 20.3432 94.7103 21.0487 94.7353 21.7306C94.7353 21.8022 94.873 21.8865 94.9395 21.9038C95.3481 21.9038 95.734 22.2503 96.153 22.0234C96.2908 21.9518 96.4783 22.1307 96.6347 22.2387C96.691 22.2866 96.7536 22.4899 96.7414 22.5967C96.7289 22.7162 96.6415 22.8837 96.5786 22.8958L95.7717 22.9674L94.6583 22.823C94.264 22.7872 94.1952 22.6325 94.2202 21.8784C94.239 21.1486 94.2266 20.4194 94.2266 19.7496C94.1517 19.678 94.1389 19.6416 94.1203 19.6416C93.0067 19.8148 93.1506 19.6185 93.1506 21.6509C93.1506 22.0932 93.0943 22.5476 93.0381 22.9789C93.0256 23.0863 92.8941 23.2301 92.8338 23.218C92.7775 23.1949 92.7026 22.9789 92.7026 22.8352L92.6962 19.9771H91.3388V22.7757C91.3388 23.099 91.2639 23.3854 91.0823 23.2549C90.9884 23.1833 90.8883 22.8484 90.8821 22.6331C90.8594 21.6763 90.8758 20.7075 90.8696 19.7386L90.8258 15.6247C90.807 13.6154 90.7759 11.6061 90.7945 9.59681C90.8133 7.04937 90.8633 4.50193 90.9262 1.95507C90.9489 1.06994 90.9886 1.06994 91.4641 1.02201C91.589 1.01047 91.7143 0.950417 91.8332 0.938292C92.3961 0.878244 92.521 1.03414 92.5839 2.30093C92.6277 3.14969 92.5775 4.01115 92.5775 4.86049C92.5775 5.21847 92.5087 5.48234 92.3149 5.44654C92.1272 5.41074 92.0897 5.14745 92.0958 4.78832C92.1084 3.90223 92.0959 3.015 92.0584 2.13349C92.052 2.01397 91.8457 1.8344 91.727 1.8344C91.5958 1.82285 91.4081 1.7986 91.3956 2.26513C91.3643 3.61622 91.3207 4.96731 91.2766 6.30685C91.2642 6.74913 91.3329 6.88077 91.5831 6.8265C92.1524 6.69485 92.7216 6.62326 93.2909 6.56321C93.7601 6.51528 93.9667 6.1804 93.9229 5.23521C93.8729 4.11104 93.9165 2.96319 93.9415 1.83902C93.9478 1.6658 94.0663 1.49258 94.1292 1.31937C94.2041 1.49258 94.3482 1.6658 94.3544 1.83902C94.3771 3.22648 94.3857 4.62549 94.3771 6.01353C94.3709 6.56379 94.1206 7.02974 93.833 7.14983C93.5515 7.26935 93.2637 7.3652 92.9822 7.50781C92.9134 7.54361 92.8233 7.73473 92.8233 7.85425C92.8108 8.87045 92.817 9.89936 92.817 10.9877L93.9367 10.6413C94.0116 10.6182 94.0806 10.5934 94.1557 10.5934C94.9127 10.5934 94.9815 10.0431 94.9877 8.72841L95.0253 2.59309C95.0253 2.35405 95.0564 2.11385 95.044 1.87539C95.0001 0.966584 95.0315 0.799142 95.4882 0.655372C95.874 0.523727 96.3139 0.320487 96.639 0.942334C96.7706 1.1935 96.858 1.6121 96.8705 1.97008C96.908 2.81885 96.8891 3.68031 96.8932 4.52965C96.8932 4.88763 96.8245 5.12782 96.6179 5.0799C96.4113 5.03197 96.4431 4.74501 96.4431 4.44592C96.4492 3.68031 96.4431 2.90314 96.4304 2.13753C96.4179 1.52781 96.2488 1.28877 95.8738 1.36036C95.7612 1.38346 95.6487 1.43196 95.4546 1.49201L95.4609 6.38364C95.4609 6.51528 95.5985 6.75432 95.6652 6.75432C96.3517 6.72234 97.0379 6.65458 97.7233 6.55108C98.1237 6.49103 98.3589 6.1088 98.368 5.63015C98.3741 5.13937 98.3555 4.63704 98.3491 4.14742C98.343 3.47765 98.3491 2.79633 98.3264 2.12656C98.3076 1.69583 98.2388 1.2778 98.2016 0.847065C98.1789 0.523727 98.1516 0.165747 98.3954 0.117823C98.6081 0.0699002 98.6456 0.356862 98.6583 0.691747C98.7021 1.55783 98.7582 2.40197 98.8081 3.27498C99.102 3.32291 99.421 3.3945 99.7401 3.40663C99.9905 3.41817 100.134 2.85638 100.065 2.22298L99.8779 0.489084C99.828 0.00985191 100.015 -0.0611669 100.191 -0.156436L100.378 0.201545C100.391 0.440583 100.401 0.668074 100.409 0.907113L100.478 3.53827L100.138 4.1734L99.0805 4.16185C98.8803 4.1503 98.8115 4.29349 98.8115 4.6815C98.8115 5.23175 98.824 5.8178 98.7302 6.32013C98.5713 7.12154 98.1859 7.38425 97.7605 7.46798C97.6357 7.49107 97.4103 7.64119 97.4103 7.73126C97.4039 8.30519 97.4478 8.85544 97.4727 9.40569L97.475 9.44611ZM115.422 0.830321L113.752 1.10516L110.399 1.57169C110.162 1.60748 109.918 1.57169 109.68 1.56014L107.159 1.46429C106.958 1.46429 106.758 1.60864 106.558 1.65483C106.383 1.69063 106.195 1.67793 106.208 1.21255C106.22 0.80607 106.389 0.80607 106.552 0.80607C106.689 0.80607 106.833 0.698676 106.971 0.686551L109.348 0.513334C110.105 0.490239 110.862 0.549132 111.625 0.53643C111.863 0.53643 112.094 0.392083 112.332 0.345892L114.659 -0.0120889C114.972 -0.0478869 115.294 0.0837575 115.612 0.178449C115.85 0.250045 115.913 0.597056 115.925 1.01566C115.944 1.76915 115.981 2.51687 116 3.27614L116.132 9.82949C116.144 11.3596 116.075 12.8908 116.057 14.4099C116.044 15.4261 116.076 16.4308 116.069 17.447C116.063 18.7981 116.047 20.1492 116.026 21.5014C116.019 21.8963 115.982 22.2907 115.976 22.685C115.953 23.8929 115.582 24.6222 114.962 24.6828L111.415 24.9934C110.708 25.0292 110.002 24.9097 109.301 24.8491L107.099 24.6759C106.824 24.6401 106.523 24.6164 106.286 24.3889C106.111 24.2157 105.923 23.7422 105.917 23.3843C105.879 21.961 105.904 20.5262 105.91 19.0908C105.91 18.9176 105.933 18.7328 105.933 18.5527L106.033 12.896L106.083 9.37393C106.102 8.33348 106.145 7.29303 106.177 6.2647C106.199 5.34376 106.489 4.74617 106.884 4.37491C107.102 4.17167 107.378 4.14799 107.634 4.13587C108.579 4.12432 109.524 4.17167 110.474 4.15896C110.818 4.15896 111.162 4.11104 111.5 3.98575C112.063 3.75883 112.583 4.00884 113.102 4.38068C113.377 4.58392 113.515 4.97885 113.558 5.48118C113.602 6.00083 113.627 6.54531 113.627 7.08343C113.609 8.80578 113.552 10.516 113.552 12.2378C113.552 14.403 113.584 16.5549 113.609 18.7195C113.609 19.0186 113.627 19.3177 113.64 19.6999C113.358 20.1307 113.027 20.3928 112.583 20.2381C112.157 20.0937 111.713 20.178 111.282 20.1422L108.929 19.969C108.679 19.9459 108.441 19.5025 108.441 19.0481L108.435 14.5444C108.447 13.1818 108.529 11.8059 108.517 10.4427C108.51 9.66551 108.548 9.01942 108.925 8.59504C109.019 8.48764 109.138 8.42182 109.25 8.3918C109.607 8.29595 109.97 8.18856 110.326 8.14063C110.896 8.05691 111.159 8.51132 111.183 9.64184C111.196 10.1615 111.14 10.658 111.127 11.1719L111.058 15.0404C111.052 15.4354 110.896 15.5785 110.771 15.459C110.652 15.3516 110.514 15.0167 110.52 14.7777C110.533 13.8331 110.595 12.9 110.633 11.967L110.695 9.88608C110.718 9.15626 110.639 8.98939 110.264 9.06041C109.976 9.10833 109.689 9.17993 109.401 9.25095C109.126 9.32255 109.013 9.66956 109.007 10.1598C108.994 10.9011 108.994 11.661 108.988 12.396L108.913 18.574C108.907 19.1838 109.157 19.0764 109.326 19.0937C109.916 19.1653 110.502 19.2011 111.09 19.2253H113.098V16.1998L113.11 12.6951C113.11 12.5756 113.129 12.456 113.129 12.3371L113.123 5.78373C113.123 5.61052 113.042 5.32933 112.964 5.26408C112.551 4.95345 112.151 4.66591 111.675 4.83335C111.2 5.00657 110.699 4.9777 110.211 5.00657L107.315 5.13821C106.846 5.17401 106.664 5.81953 106.739 6.70467C106.783 7.19545 106.69 7.72087 106.683 8.2232L106.583 13.4486C106.577 13.6639 106.561 13.8793 106.561 14.1068C106.542 14.8482 106.579 15.6253 106.492 16.343C106.329 17.7305 106.429 19.1058 106.417 20.4927C106.411 21.3868 106.423 22.2811 106.454 23.1718C106.461 23.3161 106.586 23.5546 106.659 23.5667L110.024 23.9495C110.575 23.9994 111.125 24.0195 111.676 24.0096C112.258 24.0075 112.839 23.9875 113.421 23.9495L114.991 23.8052C115.316 23.7694 115.486 23.4472 115.511 22.8363C115.704 17.9863 115.66 13.1495 115.635 8.30577C115.623 6.36863 115.523 4.43726 115.467 2.49378C115.41 1.99145 115.423 1.47757 115.423 0.830898L115.422 0.830321ZM122.904 5.23002C122.766 6.1267 122.666 7.06034 122.479 7.92065C122.247 8.9611 121.69 9.31966 121.202 9.79831C121.078 9.91783 120.965 10.1217 120.833 10.1563C120.564 10.24 120.289 10.3122 120.016 10.2758C119.309 10.1921 118.709 9.54599 118.214 8.63719C117.733 7.72838 117.339 6.65213 117.289 5.28833C117.27 4.84606 117.311 4.3674 117.376 3.93725C117.651 1.88001 118.202 0.241962 119.278 -0.595251C120.404 -1.46826 121.587 -0.678972 122.237 1.25239C122.7 2.62773 122.794 4.00307 122.827 5.18729C122.858 5.18729 122.883 5.19884 122.908 5.22309L122.904 5.23002ZM118.35 2.85002C118.788 5.01523 119.382 6.88019 120.195 8.65047L121.928 2.85002H118.35ZM123.179 19.5337C123.16 20.7416 123.079 21.7941 122.723 22.7266C122.422 23.5159 121.984 23.8387 121.553 24.2093C121.509 24.2451 121.434 24.2093 121.403 24.2694C120.802 25.3098 120.158 24.7001 119.576 24.3052C118.732 23.7428 118.156 22.4575 117.812 20.9205C117.654 20.215 117.669 19.2704 117.744 18.469C117.913 16.675 118.394 15.2038 119.233 14.2234C120.39 12.8481 121.841 13.3862 122.611 15.6825C122.973 16.7709 123.174 18.469 123.18 19.5337H123.179ZM119.582 23.289V14.9896C118.838 15.336 118.181 17.4291 118.106 19.4932C118.05 21.036 118.913 22.7341 119.582 23.2844V23.289ZM121.528 23.3848C121.784 23.0979 121.997 22.8941 122.19 22.6435C122.628 22.0574 122.672 21.0886 122.728 20.204C122.822 18.7213 122.597 17.3217 122.197 16.0659C122.028 15.5462 121.828 14.9538 121.415 14.7979L121.527 23.3848H121.528ZM76.7124 1.90599L76.706 7.95702C76.706 8.4351 76.6311 8.83003 76.406 9.17704C76.0805 9.69669 75.8054 10.3133 75.5175 10.9109L74.0914 13.948L72.8089 16.7703L71.5389 20.1422C71.3573 20.6215 71.1512 21.0753 70.9385 21.4933C70.8636 21.6492 70.7133 21.7208 70.5944 21.7324L68.0735 21.864C67.8919 21.8755 67.7044 21.9598 67.5228 22.0672C67.1789 22.2705 67.0348 22.1273 67.0098 21.4333C66.9916 20.883 67.003 20.3333 67.0098 19.7831C67.0234 18.8027 67.0779 17.8096 67.0416 16.8292C67.003 15.9804 67.1978 15.4059 67.4606 14.8083C67.767 14.0906 68.0172 13.2898 68.3238 12.5721L70.4757 7.58519C70.7699 6.92696 71.1389 6.37729 71.4517 5.73754C71.6206 5.40266 71.7457 4.97193 71.9148 4.62549L73.5475 1.10343C73.8978 0.194616 74.342 0.314136 74.7862 0.237343C75.1489 0.177295 75.5119 0.237343 75.8746 0.248891C76.6128 0.271986 76.7378 0.523728 76.7129 1.89907L76.7124 1.90599ZM75.2297 1.17675V1.24835C75.1049 1.2368 74.9796 1.17675 74.8606 1.21255C74.5855 1.29627 74.2251 1.2726 74.0537 1.58323C73.3782 2.88698 72.7651 4.29811 72.1334 5.67345C71.8456 6.2953 71.5704 6.9414 71.2699 7.55112C70.9135 8.25669 70.5068 8.89066 70.1752 9.63203C69.7875 10.505 69.4624 11.4797 69.0992 12.3948C68.7429 13.2915 68.3611 14.1651 68.0233 15.0855C67.7793 15.7321 67.5353 16.3771 67.5791 17.298C67.6229 18.3385 67.5854 19.3789 67.5854 20.4315C67.5854 20.8264 67.6667 21.0175 67.8858 21.0054L70.5256 20.8022C70.6069 20.7906 70.7004 20.629 70.7571 20.4788C71.4642 18.6728 72.0771 16.7356 72.9153 15.1091C73.3784 14.2124 73.7725 13.1835 74.2103 12.2511C74.7358 11.1506 75.2801 10.0859 75.8117 8.99805C75.9495 8.71109 76.1309 8.42413 76.1749 8.07712C76.2498 7.47895 76.2562 6.83343 76.2625 6.19945C76.2686 4.65667 76.2686 3.12602 76.25 1.58323C76.25 1.45159 76.1061 1.22525 76.0246 1.20043C75.7495 1.14038 75.4867 1.17733 75.2302 1.17733L75.2297 1.17675ZM130.905 12.2742C131.474 12.1546 131.981 12.4474 132.438 13.0398C132.6 13.243 132.751 13.5178 132.857 13.8291C133.088 14.4873 133.414 15.037 133.493 15.8863C133.586 16.9389 133.749 17.9672 133.686 19.0619C133.611 20.4246 133.342 21.6024 132.742 22.3992C132.548 22.6504 132.31 22.782 132.097 22.9853C131.96 23.1048 131.841 23.2971 131.697 23.3802C131.56 23.4761 131.409 23.5361 131.266 23.5119C130.676 23.4403 130.096 23.2965 129.595 22.6031C128.87 21.5868 128.307 20.3668 128.169 18.596C128.156 18.4643 128.175 18.3211 128.181 18.1774C128.263 16.802 128.438 15.5098 128.907 14.3984C129.433 13.1783 130.077 12.3891 130.905 12.2817L130.905 12.2742ZM131.124 14.1639L131.643 13.1835C131.162 12.8845 131.012 13.0403 130.924 13.7696L130.373 15.1091L129.028 19.1508C128.79 19.8685 128.784 19.8564 129.122 20.4904L130.229 17.3148L130.799 15.4671L131.124 14.1634L131.124 14.1639ZM131.869 13.3747L129.404 20.6821C129.304 20.969 129.279 21.1729 129.454 21.3519C129.613 21.5077 129.754 21.95 129.936 21.4234L131.305 17.5249L132.207 14.6426C132.269 14.4394 132.319 14.224 132.381 13.9959L131.868 13.3741L131.869 13.3747ZM132.601 14.6426C132.569 14.7142 132.526 14.7742 132.501 14.8458L131.444 18.1225L130.149 21.6983C130.105 21.8178 130.074 22.0089 130.092 22.129C130.167 22.4754 130.683 22.5118 130.787 22.2006L132.757 16.138C132.962 15.5162 132.933 15.1576 132.598 14.6368L132.601 14.6426ZM130.662 13.3031C129.511 13.4463 128.378 16.7714 128.732 18.9118L130.662 13.3031V13.3031ZM133.082 16.5682L132.982 16.4966L131.024 22.6319C131.35 22.8051 131.712 22.3929 131.913 21.7589C132.269 20.6111 132.582 19.4032 133.02 18.387C133.32 17.6814 133.189 17.1791 133.083 16.5693L133.082 16.5682ZM132.144 21.9021C132.857 21.4714 133.302 20.1919 133.201 18.865L132.144 21.9021Z" fill="#E7AB54" fill-opacity="0.1"/>
<mask id="path-2-inside-1_4_75" fill="white">
<path d="M43.2032 6.74914C43.6604 7.58342 43.9931 8.45208 44.6169 9.25251C45.3864 10.2206 47.2362 10.5542 48.8581 10.9995C49.2731 11.1107 49.648 11.3003 50.0848 11.3326C50.9788 11.4105 51.8938 11.4776 52.8006 11.4438C55.1498 11.3659 57.1459 10.7647 58.7882 9.91918C60.3891 9.07362 61.7002 8.07228 61.8662 6.8034C61.9288 6.3919 61.7907 5.94656 61.575 5.54634C60.6607 3.63228 58.8305 2.10824 55.2547 1.32929C51.5129 0.517036 47.5825 1.25139 45.4211 3.04834C43.8822 4.32796 43.5706 5.60758 43.4597 6.70939C43.3675 6.70815 43.2759 6.71945 43.1896 6.7427L43.2032 6.74914ZM58.3386 4.53479C56.8826 6.5493 54.9084 8.28447 52.2054 9.93154L46.4464 4.53586H58.3386V4.53479ZM42.2874 20.0578C42.35 21.1817 42.6193 22.161 43.8052 23.0286C44.8033 23.7629 46.2585 24.0632 47.6934 24.4081C47.839 24.4414 48.0887 24.4081 48.1928 24.464C50.1889 25.432 52.3299 24.8647 54.2634 24.4973C57.0697 23.9741 58.9829 22.7782 60.1265 21.3482C60.6546 20.6917 60.6048 19.8129 60.3551 19.0672C59.7939 17.3981 58.193 16.0293 55.4063 15.1172C51.5589 13.8376 46.7368 14.3382 44.1794 16.4747C42.9739 17.4873 42.3085 19.0672 42.2874 20.0578V20.0578ZM54.2423 23.5518V15.8295C56.7167 16.1518 58.8991 18.0992 59.1488 20.0197C59.3359 21.4551 56.4662 23.035 54.2423 23.547V23.5518ZM47.7771 23.641C46.9246 23.374 46.2178 23.1844 45.5743 22.9512C44.1183 22.406 43.9734 21.5045 43.7864 20.6815C43.4748 19.302 44.2239 17.9998 45.5539 16.8314C46.1152 16.3479 46.7805 15.7967 48.1528 15.6517L47.7786 23.641H47.7771ZM196.721 3.65699L196.741 9.28689C196.741 9.7317 196.99 10.0991 197.739 10.422C198.82 10.9055 199.736 11.4792 200.692 12.0352L205.432 14.8609L209.694 17.4868L213.914 20.6241C214.537 21.0765 215.204 21.4966 215.911 21.8811C216.16 22.0262 216.659 22.0928 217.054 22.1035L225.433 22.226C226.036 22.2367 226.659 22.3152 227.262 22.4151C228.406 22.6042 228.884 22.471 228.967 21.8252C229.029 21.3133 228.988 20.8019 228.967 20.2899C228.925 19.3777 228.738 18.4537 228.863 17.5416C228.988 16.7519 228.335 16.2174 227.47 15.6614C226.452 14.9936 225.62 14.2485 224.601 13.5808L217.45 8.94093C216.473 8.32852 215.247 7.8171 214.206 7.22188C213.644 6.9103 213.229 6.50955 212.667 6.18723L207.24 2.91028C206.076 2.06472 204.6 2.17592 203.124 2.10447C201.918 2.04861 200.712 2.10447 199.506 2.11522C197.053 2.13671 196.637 2.37093 196.72 3.65055L196.721 3.65699ZM201.647 2.97851V3.04512C202.062 3.03437 202.479 2.97851 202.874 3.01181C203.789 3.08971 204.986 3.06768 205.556 3.3567C207.802 4.5697 209.839 5.88263 211.938 7.16225C212.894 7.74082 213.809 8.34195 214.807 8.90924C215.991 9.5657 217.344 10.1556 218.445 10.8453C219.728 11.6576 220.816 12.5644 222.021 13.4158C223.206 14.2501 224.474 15.0629 225.597 15.9192C226.407 16.5209 227.219 17.1209 227.073 17.9778C226.927 18.9458 227.052 19.9139 227.052 20.8932C227.052 21.2606 226.781 21.4385 226.054 21.4272L217.281 21.2381C217.01 21.2273 216.698 21.0769 216.511 20.9372C214.162 19.2569 212.124 17.4545 209.338 15.9412C207.799 15.107 206.49 14.1497 205.034 13.2821C203.288 12.2582 201.48 11.2676 199.712 10.2555C199.255 9.98848 198.652 9.72149 198.507 9.39863C198.258 8.84209 198.237 8.24149 198.215 7.65164C198.194 6.21624 198.194 4.79211 198.257 3.3567C198.257 3.23421 198.735 3.02363 199.005 3.00053C199.92 2.94466 200.793 2.97904 201.646 2.97904L201.647 2.97851ZM16.6115 13.303C14.7195 13.1918 13.0357 13.4642 11.5179 14.0154C10.977 14.2045 10.4783 14.4602 10.1245 14.7497C9.35502 15.3621 8.27398 15.8736 8.0122 16.6638C7.70064 17.6431 7.15974 18.5999 7.36795 19.6184C7.6169 20.8862 8.51161 21.9821 10.5077 22.7234C11.152 22.9571 11.9426 23.0796 12.6502 23.2687C13.1074 23.3799 13.5027 23.5588 13.981 23.6362C14.4381 23.7253 14.9375 23.7812 15.4158 23.7586C17.3773 23.692 19.304 23.5583 20.9667 22.9131C23.3785 21.9676 25.2494 20.8325 25.7065 19.1849C25.748 19.0624 25.6862 18.9292 25.665 18.7954C25.395 17.5158 24.8126 16.3135 23.2532 15.2794C21.4471 14.0764 19.0926 13.3772 16.6214 13.31L16.6115 13.303ZM15.8836 15.0613L14.1583 14.1491C15.7591 13.8709 16.2577 14.0159 16.5497 14.6944L18.3791 15.9407L22.8489 19.7011C23.6387 20.3689 23.6599 20.3576 22.5373 20.9474L18.8574 17.9928L16.9654 16.2738L15.8843 15.0608L15.8836 15.0613ZM13.4091 14.3269L17.5674 17.7758L21.6004 21.1253C21.9323 21.3923 22.0153 21.5819 21.4344 21.7484C20.9063 21.8935 20.4363 22.305 19.8336 21.815L15.2808 18.1878L12.2874 15.5061C12.0791 15.317 11.9132 15.1166 11.705 14.9044L13.4099 14.3259L13.4091 14.3269ZM10.977 15.5066C11.0811 15.5733 11.2259 15.6291 11.3089 15.6957L14.8221 18.7444L19.1259 22.0713C19.2715 22.1825 19.3749 22.3603 19.313 22.472C19.0641 22.7944 17.3516 22.8282 17.0046 22.5386L10.4564 16.898C9.77749 16.3194 9.87405 15.9858 10.9845 15.5013L10.977 15.5066ZM17.4218 14.2603C21.2465 14.3936 25.011 17.4873 23.8251 19.4787L17.4218 14.2603V14.2603ZM9.37615 17.2982L9.70808 17.2316L16.2155 22.9405C15.1344 23.1016 13.9282 22.7181 13.2635 22.1282C12.0791 21.0603 11.0381 19.9364 9.58361 18.9909C8.58554 18.3345 9.02234 17.8671 9.37615 17.2998V17.2982ZM12.4948 22.2609C10.1245 21.8602 8.6474 20.6697 8.98084 19.4352L12.4948 22.2609ZM14.678 11.8015C17.464 11.6672 19.8132 11.4341 21.6011 10.4553C22.5781 9.92133 23.5625 9.35404 24.3456 8.73626C25.7186 7.67904 25.4893 6.51062 24.8865 5.34274C24.0552 3.72952 22.3087 2.50523 19.5303 1.74347C15.8217 0.74105 11.4764 1.29759 9.06383 3.2224C7.67122 4.34623 7.08882 5.59254 7.00584 6.87216C6.9304 8.31885 7.56711 9.70967 10.0204 10.6111C10.6443 10.8335 11.3783 10.9673 12.0573 11.1451L14.6773 11.8015H14.678ZM20.7283 2.95541C21.1658 3.25624 21.6222 3.556 22.0107 3.8794C23.1333 4.76954 23.7572 5.77036 23.7987 6.83402C23.819 7.3175 23.7361 7.89124 23.2706 8.28071C21.961 9.39272 20.2349 10.3221 17.8442 10.74C16.8258 10.9173 15.661 10.9957 14.6215 10.9173C13.6649 10.8394 12.7709 10.4945 11.8566 10.2496C11.3157 10.1045 10.7552 9.97129 10.3176 9.76608C8.7583 8.99788 8.40524 7.95248 8.44673 6.89526C8.48822 6.19421 8.94463 5.49853 9.2992 4.80339C9.7971 3.83535 10.8382 3.06822 12.522 2.51114L13.5819 4.88128L14.9398 7.59631C15.1058 7.89715 15.3774 8.40212 15.7297 8.43113C16.6651 8.53105 16.5821 7.98525 16.8522 7.67474L20.7268 2.95111L20.7283 2.95541ZM189.464 2.97797V6.07119C189.464 6.47194 189.388 6.89472 189.609 7.26163C190.379 8.48539 190.047 9.74352 190.192 10.978C190.337 12.2576 190.15 13.5485 190.192 14.8282L190.441 17.5319C190.482 18.3001 190.378 19.0672 190.365 19.8354L190.24 23.1623C190.199 23.8301 190.572 24.2529 191.447 24.3641C192.805 24.5413 193.775 24.0079 193.609 23.1844C193.534 22.7277 193.422 22.2722 193.443 21.8156L193.609 17.9654L193.629 15.5061L193.298 11.9568L193.236 9.3245L192.821 6.18723C192.745 5.21918 192.758 4.23986 192.8 3.27182C192.821 2.49287 192.385 2.12596 191.199 2.11468C190.118 2.10394 189.723 2.33708 189.723 2.97152C189.661 2.98227 189.557 2.98227 189.474 2.98227L189.464 2.97797ZM110.731 1.59735L109.247 2.56593L106.066 4.28499C105.526 4.59656 105.255 5.01934 105.755 5.397C106.212 5.76445 106.794 6.09805 107.417 6.37632L110.807 7.77305C110.882 7.80636 110.731 8.12922 110.535 8.21786L106.315 9.93691C105.857 10.126 105.691 10.9941 106.128 11.2386C106.689 11.5501 107.334 11.8284 107.979 12.1067L111.783 13.6313L107.438 15.5786C106.419 16.0793 105.442 16.6246 104.589 17.2144C104.049 17.5926 104.34 18.0202 105.005 18.3382L110.452 20.9705C111.131 21.2929 111.201 21.583 110.494 21.8827L107.542 23.0732C107.001 23.2848 106.71 23.7178 107.127 23.9972C107.563 24.298 108.041 24.3866 108.728 24.1304C110.184 23.5738 111.7 23.0844 112.726 22.2502C113.37 21.7269 113.267 21.1758 112.622 20.6369C111.188 19.4572 108.817 18.8566 107.071 17.8773C106.971 17.815 106.867 17.7559 106.759 17.7L109.462 16.1867C110.439 15.7033 111.541 15.2735 112.54 14.8072C114.099 14.0728 113.953 13.2047 112.331 12.5262L108.333 10.6793L112.034 9.04354C112.615 8.76527 113.281 8.42038 113.51 8.04219C113.801 7.58557 113.219 7.17407 112.429 6.91836L110.599 6.31777C110.495 6.27318 110.495 6.14049 110.454 6.05078L107.834 5.08273L110.765 3.33575C111.293 3.04566 111.95 2.83507 112.553 2.57936C112.574 2.54606 112.595 2.51275 112.595 2.46816C112.657 2.17807 112.948 1.82352 112.719 1.63388C112.324 1.26644 111.618 1.34379 111.014 1.60058C110.952 1.61132 110.827 1.58983 110.723 1.60058L110.731 1.59735ZM165.978 3.06661V6.15983C165.978 6.53802 165.999 6.93877 166.186 7.29494C166.865 8.67448 166.643 10.0653 166.624 11.4561C166.603 12.3017 166.79 13.1591 166.852 14.0041L166.998 17.5765C167.018 18.3221 166.935 19.0785 166.894 19.8242L166.79 23.1398C166.748 23.8295 167.102 24.2077 167.997 24.3415C169.306 24.5419 170.263 23.9966 170.109 23.1511C170.067 22.8841 170.067 22.6171 170.067 22.3614L170.143 17.9327L170.163 15.8075L169.852 12.826L169.706 9.87137L169.332 6.01049L169.312 2.9726C169.312 2.3387 168.605 2.01637 167.441 2.09373C166.381 2.17162 166.11 2.53961 166.277 3.06177C166.173 3.07252 166.068 3.07252 165.964 3.07252L165.978 3.06661ZM163.789 22.6665C163.996 20.8642 163.934 19.0672 163.517 17.259C163.268 16.1846 162.977 15.0565 163.455 13.9208C163.767 13.1865 163.455 12.3855 163.455 11.6173L163.497 8.26782C163.497 8.06744 163.331 7.86706 163.351 7.66722C163.372 6.87753 163.455 6.08784 163.497 5.30353C163.538 4.49127 163.663 3.67902 163.538 2.87805C163.497 2.63308 162.859 2.27745 162.395 2.22158C161.866 2.16572 161.002 2.3215 160.732 2.54391C160.377 2.84474 160.42 3.28955 160.315 3.67902C160.295 3.7682 160.42 3.86812 160.391 3.94601C160.079 5.01397 160.204 6.08247 160.266 7.15043C160.341 8.54716 160.141 9.95464 160.141 11.3567C160.141 12.3694 160.307 13.382 160.328 14.3946C160.349 14.8781 160.1 15.374 160.162 15.8521C160.266 16.6579 160.579 17.4545 160.69 18.2555C160.766 18.7788 160.649 19.3015 160.629 19.8242C160.629 20.0578 160.704 20.2915 160.704 20.5252L160.683 21.6265C160.641 22.1717 160.517 22.7277 160.538 23.2735C160.558 23.6963 161.369 24.0525 162.16 24.0417C163.034 24.031 163.678 23.7087 163.761 23.1962C163.823 23.035 163.782 22.8513 163.782 22.6622L163.789 22.6665ZM187.22 22.8115C187.469 20.8975 187.386 19.151 186.992 17.3815C186.743 16.291 186.285 15.1338 186.95 13.9987C187.075 13.7876 186.825 13.5313 186.825 13.2977C186.763 11.8741 186.596 10.4381 186.749 9.01399C186.812 8.37974 186.791 7.74274 186.688 7.11122C186.583 6.53265 186.937 5.9428 186.978 5.35295C187.041 4.50739 187.103 3.66183 186.958 2.82701C186.916 2.60461 186.188 2.27047 185.71 2.23716C185.232 2.20386 184.4 2.38221 184.171 2.60461C183.839 2.92693 183.922 3.36099 183.839 3.75047C183.818 3.83964 183.914 3.93956 183.902 4.01746C183.423 5.65325 183.756 7.2944 183.736 8.92428C183.736 10.2931 183.632 11.6613 183.611 13.0301C183.611 13.4529 183.715 13.8757 183.777 14.2979C183.798 14.443 183.819 14.5869 183.819 14.732C183.819 15.3326 183.757 15.9224 183.798 16.5236C183.84 17.28 183.964 18.0369 184.047 18.8045C184.109 19.417 184.213 20.0401 184.255 20.6514C184.276 21.0855 184.213 21.5303 184.192 21.9644C184.172 22.421 184.089 22.8765 184.117 23.3332C184.138 23.7447 184.886 24.0788 185.656 24.0788C186.55 24.0681 187.256 23.656 187.278 23.1108C187.278 22.9657 187.236 22.8207 187.236 22.8099L187.22 22.8115ZM176.161 22.5107L176.14 17.793C176.064 16.6917 175.599 15.5904 175.474 14.4881C175.35 13.4422 175.474 12.3962 175.454 11.3508C175.454 11.1397 175.35 10.9281 175.308 10.7169C175.163 9.99386 174.892 9.27024 174.871 8.54663L174.975 4.20709C174.974 3.75507 174.912 3.30418 174.788 2.86086C174.663 2.4268 174.081 2.2377 173.311 2.2377C172.522 2.2377 172.104 2.48267 171.981 2.88235C171.773 3.53881 171.483 4.19527 171.419 4.85174C171.357 5.3191 171.648 5.79722 171.689 6.27533L172.23 11.1263L172.542 16.0557L172.979 19.2934C173.021 20.3393 172.813 21.374 172.709 22.4199C172.688 22.6869 172.522 23.0098 172.751 23.2257C173.021 23.504 173.541 23.793 174.06 23.8822C174.767 24.0047 175.433 23.7823 175.703 23.3987C175.89 23.1317 175.911 22.8314 176.015 22.5419C176.057 22.5311 176.091 22.5204 176.161 22.5204V22.5107ZM154.247 20.4307L154.538 23.0791C154.642 23.6023 155.411 23.8022 156.285 23.7237C157.158 23.6571 157.594 23.3676 157.573 22.8223C157.532 21.8209 157.677 20.8196 157.698 19.807C157.719 18.739 157.906 17.6485 157.677 16.5913C157.303 14.8722 157.906 13.1532 157.553 11.4341C157.407 10.7776 157.802 10.0879 157.885 9.40884C157.947 8.96403 157.947 8.50741 157.926 8.06261L157.76 6.48323L157.552 3.5286C157.511 3.22777 157.282 2.83883 156.887 2.67176C156.534 2.52672 155.764 2.54928 155.286 2.65027C154.954 2.71689 154.642 3.03975 154.621 3.25087C154.579 3.79613 154.766 4.35214 154.766 4.8974L154.662 7.49586L154.621 10.8786L154.35 13.4492C154.329 14.1276 154.475 14.8067 154.475 15.4905L154.371 17.7382V20.4307C154.295 20.4414 154.267 20.4414 154.246 20.4414L154.247 20.4307ZM180.922 22.1991L181.151 19.7957C181.171 19.006 181.076 18.2163 181.005 17.4255L180.84 15.8462C180.84 15.5571 181.005 15.2676 181.027 14.978L181.048 12.0626L181.339 9.43677L181.401 7.92347L181.38 5.79829C181.359 5.4201 181.235 5.03009 181.172 4.65243L181.048 3.38463C180.985 2.83937 180.299 2.50577 179.364 2.53907C178.47 2.57238 178.054 2.83991 178.033 3.39591L177.928 10.3108L178.052 12.5585L177.907 15.2284L177.886 17.042V22.1492C177.886 22.4822 177.99 22.8056 178.115 23.1285C178.323 23.6405 179.071 23.7409 179.882 23.685C180.714 23.6292 181.15 23.352 181.025 22.8615C180.963 22.6498 181.025 22.4167 181.025 22.205C180.984 22.2158 180.963 22.205 180.922 22.205L180.922 22.1991ZM25.5851 12.7583C25.7095 13.938 25.8551 14.8615 26.8525 15.7129C27.8505 16.5698 29.4302 16.9807 31.0522 17.3154C31.9461 17.4927 32.5911 17.9386 33.7552 17.8607C36.1873 17.6995 38.3917 17.4266 40.3033 16.4811C42.0709 15.613 43.5472 14.7121 43.8588 13.4099C43.9592 12.9499 43.9237 12.4801 43.7547 12.0304C42.9233 9.87191 40.7597 8.23612 36.7486 7.51788C34.6695 7.15097 32.5489 7.2063 30.4698 7.86277C28.4533 8.49667 27.2885 9.45396 26.4368 10.4951C25.8333 11.2633 25.8129 12.1529 25.5843 12.754L25.5851 12.7583ZM33.4858 8.06314C35.6887 8.09645 37.54 8.39621 38.8081 8.95329C41.1573 9.99923 42.4051 11.368 42.4465 13.0038C42.4677 13.4712 42.3009 14.0052 41.843 14.3834C40.8865 15.173 39.7428 15.9079 38.1216 16.3753C36.2711 16.8985 34.4628 17.5104 32.3837 16.6643C32.2796 16.631 32.1136 16.6536 31.9884 16.6197C30.9903 16.3973 29.8761 16.2523 29.0364 15.9074C27.3941 15.2176 26.9784 14.1051 27.0614 13.1032C27.1655 11.6796 27.7683 10.2437 29.7772 9.14185C30.8583 8.54018 32.189 8.12922 33.4783 8.06744L33.4858 8.06314ZM228.399 13.014L227.755 12.5466L223.52 9.55872L218.426 6.09805L213.825 3.44963C213.368 3.18264 212.952 2.87106 212.411 2.67069C212.141 2.55949 211.621 2.63738 211.205 2.6261C211.226 2.82648 211.143 3.06016 211.33 3.21595C211.683 3.51678 212.161 3.78324 212.597 4.05023L217.608 7.07684C220.207 8.74593 222.723 10.4483 225.238 12.1507C225.779 12.5176 226.215 12.9404 226.777 13.2966C226.965 13.4078 227.456 13.4298 227.795 13.3858C227.982 13.3525 228.148 13.1634 228.399 13.0189V13.014ZM198.051 12.3522C197.761 12.4972 197.344 12.5971 197.303 12.7304C197.261 12.9195 197.365 13.187 197.594 13.332L201.517 15.7575L206.902 19.3181L210.477 21.4659C210.935 21.7441 211.247 22.089 211.724 22.3447C211.954 22.4672 212.403 22.479 212.764 22.5338C212.868 22.3334 213.18 22.0503 213.036 21.9332C212.287 21.2768 211.497 20.6203 210.603 20.0192L205.509 16.7583L199.7 13.2423C199.368 13.042 199.097 12.7975 198.765 12.5977C198.599 12.5085 198.327 12.4526 198.037 12.3527L198.051 12.3522Z"/>
</mask>
<path d="M43.2032 6.74914C43.6604 7.58342 43.9931 8.45208 44.6169 9.25251C45.3864 10.2206 47.2362 10.5542 48.8581 10.9995C49.2731 11.1107 49.648 11.3003 50.0848 11.3326C50.9788 11.4105 51.8938 11.4776 52.8006 11.4438C55.1498 11.3659 57.1459 10.7647 58.7882 9.91918C60.3891 9.07362 61.7002 8.07228 61.8662 6.8034C61.9288 6.3919 61.7907 5.94656 61.575 5.54634C60.6607 3.63228 58.8305 2.10824 55.2547 1.32929C51.5129 0.517036 47.5825 1.25139 45.4211 3.04834C43.8822 4.32796 43.5706 5.60758 43.4597 6.70939C43.3675 6.70815 43.2759 6.71945 43.1896 6.7427L43.2032 6.74914ZM58.3386 4.53479C56.8826 6.5493 54.9084 8.28447 52.2054 9.93154L46.4464 4.53586H58.3386V4.53479ZM42.2874 20.0578C42.35 21.1817 42.6193 22.161 43.8052 23.0286C44.8033 23.7629 46.2585 24.0632 47.6934 24.4081C47.839 24.4414 48.0887 24.4081 48.1928 24.464C50.1889 25.432 52.3299 24.8647 54.2634 24.4973C57.0697 23.9741 58.9829 22.7782 60.1265 21.3482C60.6546 20.6917 60.6048 19.8129 60.3551 19.0672C59.7939 17.3981 58.193 16.0293 55.4063 15.1172C51.5589 13.8376 46.7368 14.3382 44.1794 16.4747C42.9739 17.4873 42.3085 19.0672 42.2874 20.0578V20.0578ZM54.2423 23.5518V15.8295C56.7167 16.1518 58.8991 18.0992 59.1488 20.0197C59.3359 21.4551 56.4662 23.035 54.2423 23.547V23.5518ZM47.7771 23.641C46.9246 23.374 46.2178 23.1844 45.5743 22.9512C44.1183 22.406 43.9734 21.5045 43.7864 20.6815C43.4748 19.302 44.2239 17.9998 45.5539 16.8314C46.1152 16.3479 46.7805 15.7967 48.1528 15.6517L47.7786 23.641H47.7771ZM196.721 3.65699L196.741 9.28689C196.741 9.7317 196.99 10.0991 197.739 10.422C198.82 10.9055 199.736 11.4792 200.692 12.0352L205.432 14.8609L209.694 17.4868L213.914 20.6241C214.537 21.0765 215.204 21.4966 215.911 21.8811C216.16 22.0262 216.659 22.0928 217.054 22.1035L225.433 22.226C226.036 22.2367 226.659 22.3152 227.262 22.4151C228.406 22.6042 228.884 22.471 228.967 21.8252C229.029 21.3133 228.988 20.8019 228.967 20.2899C228.925 19.3777 228.738 18.4537 228.863 17.5416C228.988 16.7519 228.335 16.2174 227.47 15.6614C226.452 14.9936 225.62 14.2485 224.601 13.5808L217.45 8.94093C216.473 8.32852 215.247 7.8171 214.206 7.22188C213.644 6.9103 213.229 6.50955 212.667 6.18723L207.24 2.91028C206.076 2.06472 204.6 2.17592 203.124 2.10447C201.918 2.04861 200.712 2.10447 199.506 2.11522C197.053 2.13671 196.637 2.37093 196.72 3.65055L196.721 3.65699ZM201.647 2.97851V3.04512C202.062 3.03437 202.479 2.97851 202.874 3.01181C203.789 3.08971 204.986 3.06768 205.556 3.3567C207.802 4.5697 209.839 5.88263 211.938 7.16225C212.894 7.74082 213.809 8.34195 214.807 8.90924C215.991 9.5657 217.344 10.1556 218.445 10.8453C219.728 11.6576 220.816 12.5644 222.021 13.4158C223.206 14.2501 224.474 15.0629 225.597 15.9192C226.407 16.5209 227.219 17.1209 227.073 17.9778C226.927 18.9458 227.052 19.9139 227.052 20.8932C227.052 21.2606 226.781 21.4385 226.054 21.4272L217.281 21.2381C217.01 21.2273 216.698 21.0769 216.511 20.9372C214.162 19.2569 212.124 17.4545 209.338 15.9412C207.799 15.107 206.49 14.1497 205.034 13.2821C203.288 12.2582 201.48 11.2676 199.712 10.2555C199.255 9.98848 198.652 9.72149 198.507 9.39863C198.258 8.84209 198.237 8.24149 198.215 7.65164C198.194 6.21624 198.194 4.79211 198.257 3.3567C198.257 3.23421 198.735 3.02363 199.005 3.00053C199.92 2.94466 200.793 2.97904 201.646 2.97904L201.647 2.97851ZM16.6115 13.303C14.7195 13.1918 13.0357 13.4642 11.5179 14.0154C10.977 14.2045 10.4783 14.4602 10.1245 14.7497C9.35502 15.3621 8.27398 15.8736 8.0122 16.6638C7.70064 17.6431 7.15974 18.5999 7.36795 19.6184C7.6169 20.8862 8.51161 21.9821 10.5077 22.7234C11.152 22.9571 11.9426 23.0796 12.6502 23.2687C13.1074 23.3799 13.5027 23.5588 13.981 23.6362C14.4381 23.7253 14.9375 23.7812 15.4158 23.7586C17.3773 23.692 19.304 23.5583 20.9667 22.9131C23.3785 21.9676 25.2494 20.8325 25.7065 19.1849C25.748 19.0624 25.6862 18.9292 25.665 18.7954C25.395 17.5158 24.8126 16.3135 23.2532 15.2794C21.4471 14.0764 19.0926 13.3772 16.6214 13.31L16.6115 13.303ZM15.8836 15.0613L14.1583 14.1491C15.7591 13.8709 16.2577 14.0159 16.5497 14.6944L18.3791 15.9407L22.8489 19.7011C23.6387 20.3689 23.6599 20.3576 22.5373 20.9474L18.8574 17.9928L16.9654 16.2738L15.8843 15.0608L15.8836 15.0613ZM13.4091 14.3269L17.5674 17.7758L21.6004 21.1253C21.9323 21.3923 22.0153 21.5819 21.4344 21.7484C20.9063 21.8935 20.4363 22.305 19.8336 21.815L15.2808 18.1878L12.2874 15.5061C12.0791 15.317 11.9132 15.1166 11.705 14.9044L13.4099 14.3259L13.4091 14.3269ZM10.977 15.5066C11.0811 15.5733 11.2259 15.6291 11.3089 15.6957L14.8221 18.7444L19.1259 22.0713C19.2715 22.1825 19.3749 22.3603 19.313 22.472C19.0641 22.7944 17.3516 22.8282 17.0046 22.5386L10.4564 16.898C9.77749 16.3194 9.87405 15.9858 10.9845 15.5013L10.977 15.5066ZM17.4218 14.2603C21.2465 14.3936 25.011 17.4873 23.8251 19.4787L17.4218 14.2603V14.2603ZM9.37615 17.2982L9.70808 17.2316L16.2155 22.9405C15.1344 23.1016 13.9282 22.7181 13.2635 22.1282C12.0791 21.0603 11.0381 19.9364 9.58361 18.9909C8.58554 18.3345 9.02234 17.8671 9.37615 17.2998V17.2982ZM12.4948 22.2609C10.1245 21.8602 8.6474 20.6697 8.98084 19.4352L12.4948 22.2609ZM14.678 11.8015C17.464 11.6672 19.8132 11.4341 21.6011 10.4553C22.5781 9.92133 23.5625 9.35404 24.3456 8.73626C25.7186 7.67904 25.4893 6.51062 24.8865 5.34274C24.0552 3.72952 22.3087 2.50523 19.5303 1.74347C15.8217 0.74105 11.4764 1.29759 9.06383 3.2224C7.67122 4.34623 7.08882 5.59254 7.00584 6.87216C6.9304 8.31885 7.56711 9.70967 10.0204 10.6111C10.6443 10.8335 11.3783 10.9673 12.0573 11.1451L14.6773 11.8015H14.678ZM20.7283 2.95541C21.1658 3.25624 21.6222 3.556 22.0107 3.8794C23.1333 4.76954 23.7572 5.77036 23.7987 6.83402C23.819 7.3175 23.7361 7.89124 23.2706 8.28071C21.961 9.39272 20.2349 10.3221 17.8442 10.74C16.8258 10.9173 15.661 10.9957 14.6215 10.9173C13.6649 10.8394 12.7709 10.4945 11.8566 10.2496C11.3157 10.1045 10.7552 9.97129 10.3176 9.76608C8.7583 8.99788 8.40524 7.95248 8.44673 6.89526C8.48822 6.19421 8.94463 5.49853 9.2992 4.80339C9.7971 3.83535 10.8382 3.06822 12.522 2.51114L13.5819 4.88128L14.9398 7.59631C15.1058 7.89715 15.3774 8.40212 15.7297 8.43113C16.6651 8.53105 16.5821 7.98525 16.8522 7.67474L20.7268 2.95111L20.7283 2.95541ZM189.464 2.97797V6.07119C189.464 6.47194 189.388 6.89472 189.609 7.26163C190.379 8.48539 190.047 9.74352 190.192 10.978C190.337 12.2576 190.15 13.5485 190.192 14.8282L190.441 17.5319C190.482 18.3001 190.378 19.0672 190.365 19.8354L190.24 23.1623C190.199 23.8301 190.572 24.2529 191.447 24.3641C192.805 24.5413 193.775 24.0079 193.609 23.1844C193.534 22.7277 193.422 22.2722 193.443 21.8156L193.609 17.9654L193.629 15.5061L193.298 11.9568L193.236 9.3245L192.821 6.18723C192.745 5.21918 192.758 4.23986 192.8 3.27182C192.821 2.49287 192.385 2.12596 191.199 2.11468C190.118 2.10394 189.723 2.33708 189.723 2.97152C189.661 2.98227 189.557 2.98227 189.474 2.98227L189.464 2.97797ZM110.731 1.59735L109.247 2.56593L106.066 4.28499C105.526 4.59656 105.255 5.01934 105.755 5.397C106.212 5.76445 106.794 6.09805 107.417 6.37632L110.807 7.77305C110.882 7.80636 110.731 8.12922 110.535 8.21786L106.315 9.93691C105.857 10.126 105.691 10.9941 106.128 11.2386C106.689 11.5501 107.334 11.8284 107.979 12.1067L111.783 13.6313L107.438 15.5786C106.419 16.0793 105.442 16.6246 104.589 17.2144C104.049 17.5926 104.34 18.0202 105.005 18.3382L110.452 20.9705C111.131 21.2929 111.201 21.583 110.494 21.8827L107.542 23.0732C107.001 23.2848 106.71 23.7178 107.127 23.9972C107.563 24.298 108.041 24.3866 108.728 24.1304C110.184 23.5738 111.7 23.0844 112.726 22.2502C113.37 21.7269 113.267 21.1758 112.622 20.6369C111.188 19.4572 108.817 18.8566 107.071 17.8773C106.971 17.815 106.867 17.7559 106.759 17.7L109.462 16.1867C110.439 15.7033 111.541 15.2735 112.54 14.8072C114.099 14.0728 113.953 13.2047 112.331 12.5262L108.333 10.6793L112.034 9.04354C112.615 8.76527 113.281 8.42038 113.51 8.04219C113.801 7.58557 113.219 7.17407 112.429 6.91836L110.599 6.31777C110.495 6.27318 110.495 6.14049 110.454 6.05078L107.834 5.08273L110.765 3.33575C111.293 3.04566 111.95 2.83507 112.553 2.57936C112.574 2.54606 112.595 2.51275 112.595 2.46816C112.657 2.17807 112.948 1.82352 112.719 1.63388C112.324 1.26644 111.618 1.34379 111.014 1.60058C110.952 1.61132 110.827 1.58983 110.723 1.60058L110.731 1.59735ZM165.978 3.06661V6.15983C165.978 6.53802 165.999 6.93877 166.186 7.29494C166.865 8.67448 166.643 10.0653 166.624 11.4561C166.603 12.3017 166.79 13.1591 166.852 14.0041L166.998 17.5765C167.018 18.3221 166.935 19.0785 166.894 19.8242L166.79 23.1398C166.748 23.8295 167.102 24.2077 167.997 24.3415C169.306 24.5419 170.263 23.9966 170.109 23.1511C170.067 22.8841 170.067 22.6171 170.067 22.3614L170.143 17.9327L170.163 15.8075L169.852 12.826L169.706 9.87137L169.332 6.01049L169.312 2.9726C169.312 2.3387 168.605 2.01637 167.441 2.09373C166.381 2.17162 166.11 2.53961 166.277 3.06177C166.173 3.07252 166.068 3.07252 165.964 3.07252L165.978 3.06661ZM163.789 22.6665C163.996 20.8642 163.934 19.0672 163.517 17.259C163.268 16.1846 162.977 15.0565 163.455 13.9208C163.767 13.1865 163.455 12.3855 163.455 11.6173L163.497 8.26782C163.497 8.06744 163.331 7.86706 163.351 7.66722C163.372 6.87753 163.455 6.08784 163.497 5.30353C163.538 4.49127 163.663 3.67902 163.538 2.87805C163.497 2.63308 162.859 2.27745 162.395 2.22158C161.866 2.16572 161.002 2.3215 160.732 2.54391C160.377 2.84474 160.42 3.28955 160.315 3.67902C160.295 3.7682 160.42 3.86812 160.391 3.94601C160.079 5.01397 160.204 6.08247 160.266 7.15043C160.341 8.54716 160.141 9.95464 160.141 11.3567C160.141 12.3694 160.307 13.382 160.328 14.3946C160.349 14.8781 160.1 15.374 160.162 15.8521C160.266 16.6579 160.579 17.4545 160.69 18.2555C160.766 18.7788 160.649 19.3015 160.629 19.8242C160.629 20.0578 160.704 20.2915 160.704 20.5252L160.683 21.6265C160.641 22.1717 160.517 22.7277 160.538 23.2735C160.558 23.6963 161.369 24.0525 162.16 24.0417C163.034 24.031 163.678 23.7087 163.761 23.1962C163.823 23.035 163.782 22.8513 163.782 22.6622L163.789 22.6665ZM187.22 22.8115C187.469 20.8975 187.386 19.151 186.992 17.3815C186.743 16.291 186.285 15.1338 186.95 13.9987C187.075 13.7876 186.825 13.5313 186.825 13.2977C186.763 11.8741 186.596 10.4381 186.749 9.01399C186.812 8.37974 186.791 7.74274 186.688 7.11122C186.583 6.53265 186.937 5.9428 186.978 5.35295C187.041 4.50739 187.103 3.66183 186.958 2.82701C186.916 2.60461 186.188 2.27047 185.71 2.23716C185.232 2.20386 184.4 2.38221 184.171 2.60461C183.839 2.92693 183.922 3.36099 183.839 3.75047C183.818 3.83964 183.914 3.93956 183.902 4.01746C183.423 5.65325 183.756 7.2944 183.736 8.92428C183.736 10.2931 183.632 11.6613 183.611 13.0301C183.611 13.4529 183.715 13.8757 183.777 14.2979C183.798 14.443 183.819 14.5869 183.819 14.732C183.819 15.3326 183.757 15.9224 183.798 16.5236C183.84 17.28 183.964 18.0369 184.047 18.8045C184.109 19.417 184.213 20.0401 184.255 20.6514C184.276 21.0855 184.213 21.5303 184.192 21.9644C184.172 22.421 184.089 22.8765 184.117 23.3332C184.138 23.7447 184.886 24.0788 185.656 24.0788C186.55 24.0681 187.256 23.656 187.278 23.1108C187.278 22.9657 187.236 22.8207 187.236 22.8099L187.22 22.8115ZM176.161 22.5107L176.14 17.793C176.064 16.6917 175.599 15.5904 175.474 14.4881C175.35 13.4422 175.474 12.3962 175.454 11.3508C175.454 11.1397 175.35 10.9281 175.308 10.7169C175.163 9.99386 174.892 9.27024 174.871 8.54663L174.975 4.20709C174.974 3.75507 174.912 3.30418 174.788 2.86086C174.663 2.4268 174.081 2.2377 173.311 2.2377C172.522 2.2377 172.104 2.48267 171.981 2.88235C171.773 3.53881 171.483 4.19527 171.419 4.85174C171.357 5.3191 171.648 5.79722 171.689 6.27533L172.23 11.1263L172.542 16.0557L172.979 19.2934C173.021 20.3393 172.813 21.374 172.709 22.4199C172.688 22.6869 172.522 23.0098 172.751 23.2257C173.021 23.504 173.541 23.793 174.06 23.8822C174.767 24.0047 175.433 23.7823 175.703 23.3987C175.89 23.1317 175.911 22.8314 176.015 22.5419C176.057 22.5311 176.091 22.5204 176.161 22.5204V22.5107ZM154.247 20.4307L154.538 23.0791C154.642 23.6023 155.411 23.8022 156.285 23.7237C157.158 23.6571 157.594 23.3676 157.573 22.8223C157.532 21.8209 157.677 20.8196 157.698 19.807C157.719 18.739 157.906 17.6485 157.677 16.5913C157.303 14.8722 157.906 13.1532 157.553 11.4341C157.407 10.7776 157.802 10.0879 157.885 9.40884C157.947 8.96403 157.947 8.50741 157.926 8.06261L157.76 6.48323L157.552 3.5286C157.511 3.22777 157.282 2.83883 156.887 2.67176C156.534 2.52672 155.764 2.54928 155.286 2.65027C154.954 2.71689 154.642 3.03975 154.621 3.25087C154.579 3.79613 154.766 4.35214 154.766 4.8974L154.662 7.49586L154.621 10.8786L154.35 13.4492C154.329 14.1276 154.475 14.8067 154.475 15.4905L154.371 17.7382V20.4307C154.295 20.4414 154.267 20.4414 154.246 20.4414L154.247 20.4307ZM180.922 22.1991L181.151 19.7957C181.171 19.006 181.076 18.2163 181.005 17.4255L180.84 15.8462C180.84 15.5571 181.005 15.2676 181.027 14.978L181.048 12.0626L181.339 9.43677L181.401 7.92347L181.38 5.79829C181.359 5.4201 181.235 5.03009 181.172 4.65243L181.048 3.38463C180.985 2.83937 180.299 2.50577 179.364 2.53907C178.47 2.57238 178.054 2.83991 178.033 3.39591L177.928 10.3108L178.052 12.5585L177.907 15.2284L177.886 17.042V22.1492C177.886 22.4822 177.99 22.8056 178.115 23.1285C178.323 23.6405 179.071 23.7409 179.882 23.685C180.714 23.6292 181.15 23.352 181.025 22.8615C180.963 22.6498 181.025 22.4167 181.025 22.205C180.984 22.2158 180.963 22.205 180.922 22.205L180.922 22.1991ZM25.5851 12.7583C25.7095 13.938 25.8551 14.8615 26.8525 15.7129C27.8505 16.5698 29.4302 16.9807 31.0522 17.3154C31.9461 17.4927 32.5911 17.9386 33.7552 17.8607C36.1873 17.6995 38.3917 17.4266 40.3033 16.4811C42.0709 15.613 43.5472 14.7121 43.8588 13.4099C43.9592 12.9499 43.9237 12.4801 43.7547 12.0304C42.9233 9.87191 40.7597 8.23612 36.7486 7.51788C34.6695 7.15097 32.5489 7.2063 30.4698 7.86277C28.4533 8.49667 27.2885 9.45396 26.4368 10.4951C25.8333 11.2633 25.8129 12.1529 25.5843 12.754L25.5851 12.7583ZM33.4858 8.06314C35.6887 8.09645 37.54 8.39621 38.8081 8.95329C41.1573 9.99923 42.4051 11.368 42.4465 13.0038C42.4677 13.4712 42.3009 14.0052 41.843 14.3834C40.8865 15.173 39.7428 15.9079 38.1216 16.3753C36.2711 16.8985 34.4628 17.5104 32.3837 16.6643C32.2796 16.631 32.1136 16.6536 31.9884 16.6197C30.9903 16.3973 29.8761 16.2523 29.0364 15.9074C27.3941 15.2176 26.9784 14.1051 27.0614 13.1032C27.1655 11.6796 27.7683 10.2437 29.7772 9.14185C30.8583 8.54018 32.189 8.12922 33.4783 8.06744L33.4858 8.06314ZM228.399 13.014L227.755 12.5466L223.52 9.55872L218.426 6.09805L213.825 3.44963C213.368 3.18264 212.952 2.87106 212.411 2.67069C212.141 2.55949 211.621 2.63738 211.205 2.6261C211.226 2.82648 211.143 3.06016 211.33 3.21595C211.683 3.51678 212.161 3.78324 212.597 4.05023L217.608 7.07684C220.207 8.74593 222.723 10.4483 225.238 12.1507C225.779 12.5176 226.215 12.9404 226.777 13.2966C226.965 13.4078 227.456 13.4298 227.795 13.3858C227.982 13.3525 228.148 13.1634 228.399 13.0189V13.014ZM198.051 12.3522C197.761 12.4972 197.344 12.5971 197.303 12.7304C197.261 12.9195 197.365 13.187 197.594 13.332L201.517 15.7575L206.902 19.3181L210.477 21.4659C210.935 21.7441 211.247 22.089 211.724 22.3447C211.954 22.4672 212.403 22.479 212.764 22.5338C212.868 22.3334 213.18 22.0503 213.036 21.9332C212.287 21.2768 211.497 20.6203 210.603 20.0192L205.509 16.7583L199.7 13.2423C199.368 13.042 199.097 12.7975 198.765 12.5977C198.599 12.5085 198.327 12.4526 198.037 12.3527L198.051 12.3522Z" fill="#D98B30" fill-opacity="0.1" stroke="black" stroke-width="2" mask="url(#path-2-inside-1_4_75)"/>
<g filter="url(#filter1_f_4_75)">
<rect x="1" y="5" width="233" height="25" fill="black" fill-opacity="0.2"/>
</g>
</g>
<defs>
<filter id="filter0_f_4_75" x="0" y="0" width="235" height="35" filterUnits="userSpaceOnUse" color-interpolation-filters="sRGB">
<feFlood flood-opacity="0" result="BackgroundImageFix"/>
<feBlend mode="normal" in="SourceGraphic" in2="BackgroundImageFix" result="shape"/>
<feGaussianBlur stdDeviation="0.5" result="effect1_foregroundBlur_4_75"/>
</filter>
<filter id="filter1_f_4_75" x="-9" y="-5" width="253" height="45" filterUnits="userSpaceOnUse" color-interpolation-filters="sRGB">
<feFlood flood-opacity="0" result="BackgroundImageFix"/>
<feBlend mode="normal" in="SourceGraphic" in2="BackgroundImageFix" result="shape"/>
<feGaussianBlur stdDeviation="5" result="effect1_foregroundBlur_4_75"/>
</filter>
<clipPath id="clip0_4_75">
<rect width="233" height="33" fill="white" transform="translate(1 1)"/>
</clipPath>
</defs>
</svg>
