<svg width="845" height="120" viewBox="0 0 845 120" fill="none" xmlns="http://www.w3.org/2000/svg">
<g filter="url(#filter0_f_4_27)">
<path d="M228.193 64.1878C227.109 64.1679 226.554 64.9743 227.132 65.6369C227.88 66.5063 228.82 67.2718 229.664 68.1002L233.835 72.3433L237.404 76.6704L240.224 79.6714C240.465 79.8992 241.212 79.7334 241.711 79.7334C241.711 79.3396 241.903 78.802 241.686 78.5542C239.517 75.9259 237.348 73.2977 235.033 70.7714C233.104 68.6598 230.958 66.6522 228.91 64.6236C228.693 64.3957 228.331 64.2718 228.186 64.1888L228.193 64.1878ZM217.659 99.3961C217.538 99.2302 217.344 98.9404 217.104 98.6716L211.607 92.9584L207.388 88.1147C206.979 87.659 206.52 87.2153 206.038 86.8106C205.508 86.3549 204.857 86.2929 204.35 86.8106C203.819 87.3502 204.277 87.64 204.735 88.0737C205.892 89.15 206.904 90.3502 207.941 91.5094L214.233 98.4447C214.812 99.0643 215.463 99.6869 216.234 100.142C216.861 100.514 217.608 100.142 217.657 99.3961H217.659ZM233.376 64.4147C232.942 64.6645 232.484 64.7665 232.412 64.9743C232.325 65.2741 232.34 65.7608 232.557 66.0096L239.467 73.9583C239.973 74.5379 240.552 74.7857 241.299 74.331C241.974 73.9173 241.71 73.4316 241.323 72.9859L234.645 65.471C234.283 65.0982 233.826 64.7874 233.368 64.4157L233.376 64.4147ZM211.896 98.9414C211.752 98.5896 211.704 98.3218 211.559 98.1549L208.956 95.2769L206.906 93.1653C206.399 92.6686 205.894 92.13 205.242 91.7782C204.929 91.6123 204.278 91.6953 203.917 91.8812C203.748 91.9641 203.796 92.6676 204.004 92.8955L207.379 96.2482L209.741 98.8465C210.079 99.1762 210.609 99.4261 211.091 99.509C211.308 99.549 211.645 99.1153 211.878 98.9294L211.896 98.9414ZM241.861 70.3777C242.295 70.1079 242.705 69.9839 242.874 69.7151C242.994 69.5292 242.85 69.1155 242.657 68.9077L239.377 65.1602C238.871 64.5806 238.221 64.3108 237.545 64.7874C236.894 65.2222 237.28 65.6868 237.762 66.1535C238.871 67.2508 239.835 68.452 240.897 69.5892C241.137 69.889 241.509 70.0859 241.86 70.3757L241.861 70.3777ZM204.422 96.1473C203.385 96.1073 202.807 96.8508 203.265 97.4924C203.916 98.3918 204.59 99.3141 205.41 100.091C205.699 100.36 206.447 100.257 206.978 100.318C206.978 99.9047 207.147 99.4191 206.953 99.0973C206.399 98.1979 205.7 97.3785 205.024 96.531C204.856 96.3032 204.543 96.2012 204.412 96.1373L204.422 96.1473ZM223.54 81.2853C222.053 81.2853 220.648 81.3683 219.635 82.5894C218.961 83.4169 219.081 84.1834 219.547 84.8659C220.969 86.9775 225.044 86.9345 226.586 85.1957C227.238 84.4502 227.358 83.6017 226.674 82.8972C225.974 82.1937 225.493 81.1184 224.022 81.2623C223.877 81.2823 223.708 81.2823 223.54 81.2823V81.2853ZM222.793 82.7543C223.299 82.8163 223.733 82.7543 223.926 82.8992C224.36 83.229 224.746 83.6237 224.963 84.0584C225.035 84.2033 224.529 84.783 224.336 84.783C223.323 84.679 222.31 84.4832 221.323 84.2433C221.235 84.2233 221.13 83.5398 221.298 83.4359C221.78 83.1061 222.383 82.9182 222.785 82.7523L222.793 82.7543ZM16.9124 76.8753C15.5146 77.31 13.9234 77.4949 12.7897 78.2004C9.94495 80.0012 9.41485 81.698 10.5722 84.6381C11.272 86.4388 12.8142 87.743 14.7185 88.5914C15.3938 88.8912 16.5266 88.7363 17.3218 88.4675C20.7211 87.3082 22.9378 84.1834 22.1435 80.9955C21.6134 78.8639 19.6119 77.0002 17.0323 77.1251C16.9841 77.0632 16.9448 76.9802 16.9115 76.8753H16.9124ZM21.3002 82.5674L20.3598 84.8439C19.4921 86.4788 17.998 87.4422 15.9484 87.8249C15.6598 87.8649 15.2486 87.8449 15.0562 87.701C14.0196 86.8935 12.8142 86.149 12.082 85.1547C10.9973 83.6557 10.8766 81.9269 11.7933 80.332C12.7573 78.6551 16.0849 77.6408 18.1581 78.2414C19.9898 78.759 21.1323 80.3939 21.2923 82.5684L21.3002 82.5674ZM537.474 101.073L542.369 96.602C542.489 96.602 542.609 96.622 542.73 96.622V99.7059C542.754 100.285 542.754 100.885 542.947 101.425C543.068 101.755 543.574 102.17 543.912 102.17C544.248 102.19 544.699 101.797 544.948 101.487L549.432 95.8565L549.721 97.7812C549.794 98.6506 549.721 99.52 549.842 100.379C549.914 100.835 550.276 101.601 550.517 101.622C551.168 101.622 552.036 101.477 552.469 101.084L556.978 96.7169C557.122 96.572 557.363 96.4891 557.87 96.2202V100.277C557.87 100.629 557.943 101.043 558.136 101.333C558.329 101.623 558.713 101.952 559.028 101.974C559.366 101.994 559.873 101.727 560.065 101.457L563.971 96.4471C565.08 95.1839 565.056 94.1286 563.971 92.9494L562.307 90.9828L559.414 88.2716L562.5 84.8769C563.393 83.7377 564.26 82.5585 564.79 81.2753C565.007 80.7577 564.332 79.8883 563.898 79.2887C563.247 78.3573 562.5 77.4669 561.681 76.6604C561.102 76.0608 560.379 75.5412 559.607 75.1085C558.427 74.4459 557.751 74.8087 557.727 76.0399C557.703 76.5575 557.814 77.0752 557.814 77.5918V80.6557L557.429 80.8006L554.127 77.9446L552.343 76.2677C551.885 75.9159 551.282 75.6881 550.728 75.4183C550.343 76.1008 549.763 76.7434 549.643 77.4669C549.474 78.3983 549.691 79.3716 549.474 80.4479L547.666 78.3163C546.605 77.261 545.568 76.1848 544.339 75.2944C543.399 74.6318 542.579 75.0875 542.555 76.1438C542.531 76.9932 542.676 77.8626 542.676 78.7101C542.676 79.4555 542.555 80.209 542.459 81.2563L537.468 76.6614V78.9379L540.482 81.4212C540.723 81.6491 540.723 82.3206 540.506 82.5605C539.566 83.4598 538.481 84.2993 537.468 85.1587V87.4352L542.555 82.8812L542.989 88.6973C542.965 90.622 542.628 92.5677 542.411 94.7003L541.206 93.7479L537.469 90.3322V101.095L537.474 101.073ZM544.514 88.4055L546.924 85.5275L549.36 82.3296C549.697 83.8816 549.745 85.3935 549.89 86.9045C550.01 88.1037 550.974 88.4365 552.108 87.712C552.373 87.5461 552.566 87.3192 552.782 87.1124L555.82 84.1944L557.394 82.5595L557.732 82.7873C557.901 84.65 558.239 86.5348 558.213 88.3965C558.187 90.2583 557.828 92.122 557.562 94.2326C557.032 93.8598 556.67 93.673 556.405 93.4051L551.849 89.3079C551.608 89.101 550.692 89.0581 550.537 89.225C549.96 89.8875 549.381 90.57 549.645 91.5634C549.837 92.3089 549.693 93.1363 549.693 94.0477L544.51 88.3965L544.514 88.4055ZM556.134 81.8859L551.987 85.6534L551.529 85.5294V77.7687L556.134 81.8879V81.8859ZM544.756 99.2102L544.443 99.0863V90.662L547.312 93.8898C547.601 94.2416 548.035 94.8212 547.866 95.049C546.926 96.4781 545.818 97.8431 544.757 99.2092L544.756 99.2102ZM559.847 99.0443L559.607 98.8994V90.6L562.62 93.9738C562.837 94.2216 562.981 94.6983 562.861 94.9051L559.847 99.0453V99.0443ZM537.474 73.7614L542.586 69.2694C542.706 69.2894 542.851 69.2894 542.97 69.3094V73.2627C542.97 73.5625 542.97 73.9043 543.139 74.1122C543.404 74.412 543.813 74.8157 544.176 74.8157C544.513 74.8157 544.947 74.4219 545.212 74.1122L549.744 68.399L549.936 71.1312C549.985 71.8147 549.961 72.5182 550.081 73.1998C550.298 74.5039 551.214 74.7937 552.371 73.8833C553.335 73.1178 554.203 72.2484 555.095 71.42L557.603 69.0186C557.723 69.0386 557.844 69.0805 557.94 69.1015L558.109 72.9309C558.134 73.3866 558.23 73.9043 558.52 74.2561C558.93 74.7527 559.605 74.7937 560.014 74.2361L565.005 67.6535C565.174 67.4466 565.125 66.95 564.932 66.7541L560.473 61.7655C560.061 61.3518 559.267 61.2478 558.64 61C558.399 61.5796 558.014 62.1592 557.966 62.7388C557.879 64.1259 557.942 65.492 557.942 67.1688L554.422 64.2708L552.132 62.0353C551.602 61.5596 551.023 61.4357 550.47 62.1392C549.891 62.8637 549.722 63.6082 549.843 64.4577C549.93 65.1612 549.867 65.8867 549.602 66.6722L547.094 63.5263C546.324 62.7188 545.344 62.0573 544.37 61.4147C543.623 60.9181 543.068 61.2698 542.851 61.9743C542.731 62.43 542.764 62.9267 542.764 63.4034V67.3987L541.559 66.5493L538.112 63.2785C537.967 63.0716 537.701 62.9487 537.485 62.8028V73.7514L537.474 73.7614ZM544.997 72.0226C544.877 71.9196 544.732 71.8367 544.612 71.7228V63.1935L547.747 66.919C547.964 67.2188 547.939 67.8184 547.747 68.1612C547.071 69.1965 546.275 70.1598 545.528 71.1831C545.336 71.4529 545.167 71.7228 544.998 72.0126L544.997 72.0226ZM559.749 63.0786L562.787 66.4113C563.197 66.887 563.4 67.4257 562.875 68.0053L560.585 70.9863C560.416 71.1931 560.126 71.316 559.74 71.6058V63.0686L559.749 63.0786ZM709.556 79.0798C709.171 79.3076 708.808 79.7214 708.423 79.7214C705.916 79.7414 703.433 79.7414 700.926 79.5975C699.264 79.5145 698.756 78.8939 698.756 77.4239L698.781 74.34C698.781 73.7404 698.54 73.3047 697.744 73.3677C696.949 73.4306 696.828 73.9053 696.9 74.4849L697.334 78.77C697.503 80.1691 698.491 81.0884 700.131 81.1284L708.738 81.1684C709.51 81.1484 710.257 80.6288 711.013 80.3409L711.64 76.8633C711.688 76.6355 711.88 76.2637 712.025 76.2437L717.536 75.9739C717.536 77.319 717.448 78.4572 717.559 79.5755C717.776 81.6041 718.765 82.3696 721.128 82.6804C721.491 82.7203 721.948 83.1361 722.093 83.4459C722.261 83.8806 722.286 84.4182 722.141 84.8749C722.054 85.1747 721.562 85.5584 721.274 85.5584L716.644 85.1647L713.8 85.2067L704.807 84.9568L698.13 84.5011C697.938 84.4812 697.695 84.4392 697.518 84.5211C697.18 84.708 696.891 84.9558 696.577 85.1627C696.818 85.3905 697.011 85.7823 697.301 85.8462C698.023 86.0321 698.795 86.1161 699.543 86.146L708.245 86.5807C708.318 86.9535 708.39 87.2223 708.39 87.4801C708.303 90.3582 708.269 90.0784 705.617 89.5487C704.436 89.2989 703.157 89.3209 701.928 89.2489L698.095 89.145C697.684 89.165 697.324 89.5587 696.914 89.7646C697.251 90.0644 697.565 90.5301 697.926 90.572L702.965 90.9018L707.57 91.2956C707.762 91.3155 708.051 91.5434 708.1 91.7303C708.244 92.144 708.365 92.5997 708.365 93.0344C708.365 94.5334 708.004 94.6283 706.268 94.5334L698.577 94.4095C698.264 94.4095 697.951 94.8851 697.637 95.134C697.925 95.3618 698.216 95.7535 698.529 95.7755L705.111 95.9824L708.085 96.1893V100.205L702.467 99.8748L697.188 99.6469C696.803 99.6469 696.127 100.082 696.054 100.392C695.91 101.055 696.609 101.055 697.212 101.076L707.241 101.739C707.699 101.778 708.157 101.988 708.591 102.111C709.483 102.361 709.941 102.028 709.941 101.212L710.013 90.697V86.6597L715.967 86.6797L720.982 86.9795C721.923 87.0194 722.38 87.2793 722.356 88.1387C722.331 88.7183 722.308 89.3379 722.476 89.8775C722.813 90.8918 724.815 91.7612 726.02 91.5124L728.817 90.8928C729.226 90.7479 729.517 90.3132 729.853 89.9934C729.442 89.8066 728.985 89.4538 728.6 89.4758C727.635 89.5377 726.671 89.7756 725.706 89.9105C724.741 90.0454 724.187 89.6407 724.164 88.8552L724.139 82.9352L726.333 83.3489C727.418 83.6487 729.13 82.8732 729.226 81.8499C729.347 80.4209 729.314 78.9719 729.37 77.5229V75.846L732.698 76.1758C732.963 76.2157 733.31 76.6934 733.324 76.9832L733.541 81.3303L733.421 91.4535C733.397 92.7985 733.228 94.1237 733.107 95.4687C730.334 96.0484 727.596 95.8415 724.838 95.5717L717.534 94.7023C716.714 94.6193 716.257 94.3725 716.208 93.667L716.039 90.9138C716.015 90.3542 715.918 89.7546 715.123 89.8785C714.761 89.9185 714.231 90.4581 714.207 90.7779C714.183 91.9171 714.279 93.0344 714.448 94.1726C714.617 95.3518 715.34 95.9314 716.69 96.1593C717.052 96.2212 717.413 96.1992 717.775 96.2632C718.619 96.4081 720.089 96.511 720.163 96.7809C720.403 97.9401 720.211 99.1613 720.115 100.341C720.115 100.465 719.584 100.611 719.327 100.641C717.753 100.641 716.266 101.241 714.651 100.848C714.12 100.724 713.397 101.034 712.795 101.221C712.578 101.304 712.336 101.656 712.383 101.84C712.432 102.047 712.768 102.337 713.011 102.358L716.12 102.482L720.411 102.232C721.931 102.17 722.196 101.902 722.099 100.597C722.027 99.3341 722.075 98.072 722.075 96.9128C722.364 96.7889 722.413 96.7259 722.484 96.7259C726.776 97.0257 726.221 96.6859 726.221 100.204C726.221 100.969 726.438 101.755 726.655 102.502C726.703 102.688 727.21 102.937 727.442 102.916C727.659 102.876 727.948 102.502 727.948 102.253L727.973 97.3065H733.204V102.15C733.204 102.71 733.492 103.206 734.192 102.98C734.554 102.856 734.94 102.276 734.964 101.903C735.051 100.248 734.988 98.5706 735.012 96.8938L735.181 89.7736C735.253 86.2959 735.373 82.8183 735.301 79.3406C735.229 74.9316 735.036 70.5226 734.794 66.1145C734.706 64.5826 734.553 64.5826 732.721 64.4996C732.24 64.4797 731.757 64.3757 731.298 64.3547C729.129 64.2508 728.648 64.5206 728.406 66.7131C728.237 68.1822 728.43 69.6731 728.43 71.1432C728.43 71.7627 728.695 72.2194 729.442 72.1575C730.166 72.0955 730.31 71.6398 730.286 71.0182C730.238 69.4846 730.286 67.949 730.431 66.4233C730.455 66.2165 731.25 65.9057 731.708 65.9057C732.213 65.8857 732.937 65.8437 732.985 66.6512C733.106 68.9896 733.274 71.328 733.443 73.6465C733.491 74.412 733.226 74.6398 732.262 74.5459C730.068 74.318 727.875 74.1941 725.681 74.0902C723.873 74.0072 723.077 73.4276 723.245 71.7917C723.438 69.846 723.27 67.8594 723.174 65.9137C723.149 65.6139 722.693 65.3141 722.45 65.0143C722.162 65.3141 721.606 65.6139 721.582 65.9137C721.495 68.3151 721.462 70.7364 721.495 73.1388C721.519 74.0912 722.483 74.8976 723.592 75.1055C724.676 75.3123 725.786 75.4782 726.87 75.7251C727.135 75.787 727.483 76.1178 727.483 76.3247C727.531 78.0835 727.507 79.8643 727.507 81.748L723.192 81.1484C722.903 81.1084 722.637 81.0655 722.348 81.0655C719.431 81.0655 719.165 80.1131 719.142 77.8376L718.997 67.2188C718.997 66.8051 718.877 66.3894 718.925 65.9766C719.094 64.4037 718.973 64.1139 717.213 63.8651C715.726 63.6372 714.031 63.2855 712.778 64.3617C712.271 64.7964 711.934 65.5209 711.886 66.1405C711.741 67.6095 711.814 69.1005 711.798 70.5705C711.798 71.1901 712.063 71.6058 712.859 71.5229C713.655 71.44 713.533 70.9433 713.533 70.4256C713.509 69.1005 713.533 67.7554 713.582 66.4303C713.63 65.375 714.282 64.9613 715.727 65.0852C716.161 65.1252 716.595 65.2092 717.342 65.3131L717.318 73.7794C717.318 74.0072 716.788 74.4209 716.531 74.4209C713.885 74.3656 711.241 74.2483 708.599 74.0692C707.056 73.9653 706.15 73.3037 706.115 72.4753C706.091 71.6258 706.163 70.7564 706.188 69.909C706.211 68.7498 706.188 67.5706 706.275 66.4113C706.348 65.6659 706.613 64.9423 706.756 64.1968C706.844 63.6372 706.949 63.0176 706.009 62.9347C705.189 62.8518 705.045 63.3484 704.996 63.928C704.827 65.427 704.611 66.888 704.419 68.399C703.286 68.482 702.057 68.6059 700.827 68.6269C699.862 68.6468 699.308 67.6745 699.573 66.5782L700.296 63.5773C700.488 62.7478 699.766 62.6249 699.091 62.46L698.368 63.0796C698.319 63.4933 698.281 63.8871 698.247 64.3008L697.982 68.8547L699.294 69.954L703.369 69.934C704.141 69.914 704.406 70.1618 704.406 70.8334C704.406 71.7857 704.358 72.8 704.719 73.6695C705.331 75.0565 706.816 75.5112 708.456 75.6561C708.937 75.6961 709.806 75.9559 709.806 76.1118C709.83 77.1051 709.661 78.0575 709.565 79.0098L709.556 79.0798ZM640.391 64.1679L646.827 64.6435L659.749 65.451C660.665 65.513 661.605 65.451 662.522 65.431L672.238 65.2651C673.01 65.2651 673.781 65.515 674.553 65.5949C675.226 65.6569 675.951 65.6349 675.902 64.8294C675.854 64.1259 675.203 64.1259 674.576 64.1259C674.046 64.1259 673.492 63.94 672.962 63.919L663.8 63.6192C660.883 63.5793 657.966 63.6812 655.026 63.6592C654.11 63.6592 653.218 63.4094 652.301 63.3294L643.333 62.7098C642.128 62.6479 640.884 62.8757 639.659 63.0396C638.744 63.1635 638.502 63.7641 638.454 64.4886C638.382 65.7928 638.237 67.0869 638.165 68.401L637.658 79.7434C637.61 82.3916 637.875 85.0418 637.947 87.671C637.995 89.4298 637.874 91.1686 637.898 92.9275C637.922 95.2659 637.985 97.6043 638.066 99.9447C638.091 100.628 638.235 101.311 638.259 101.993C638.346 104.084 639.778 105.346 642.164 105.451L655.834 105.989C658.558 106.051 661.282 105.844 663.982 105.739L672.467 105.439C673.528 105.377 674.686 105.336 675.602 104.942C676.277 104.643 677.001 103.823 677.024 103.204C677.169 100.74 677.072 98.2569 677.048 95.7725C677.048 95.4727 676.961 95.153 676.961 94.8412L676.576 85.0508L676.384 78.9549C676.311 77.1541 676.142 75.3533 676.022 73.5735C675.935 71.9796 674.817 70.9453 673.297 70.3027C672.454 69.951 671.393 69.91 670.405 69.889C666.766 69.869 663.124 69.951 659.46 69.929C658.134 69.929 656.809 69.846 655.506 69.6292C653.336 69.2364 651.335 69.6692 649.334 70.3127C648.273 70.6645 647.742 71.348 647.574 72.2174C647.405 73.1168 647.309 74.0592 647.309 74.9906C647.381 77.9715 647.598 80.9316 647.598 83.9115C647.598 87.659 647.477 91.3835 647.381 95.13C647.381 95.6476 647.309 96.1653 647.26 96.8268C648.345 97.5723 649.622 98.026 651.335 97.7582C652.974 97.5084 654.685 97.6543 656.349 97.5923L665.414 97.2925C666.378 97.2525 667.295 96.4851 667.295 95.6986L667.319 87.9038C667.271 85.5454 666.957 83.164 667.004 80.8046C667.029 79.4595 666.885 78.3413 665.43 77.6068C665.069 77.4209 664.61 77.307 664.176 77.255C662.803 77.0891 661.403 76.9033 660.03 76.8203C657.836 76.6754 656.823 77.4619 656.727 79.4186C656.679 80.318 656.896 81.1774 656.944 82.0668L657.209 88.7623C657.233 89.4458 657.836 89.6936 658.318 89.4868C658.776 89.3009 659.307 88.7213 659.283 88.3076C659.234 86.6727 658.994 85.0578 658.848 83.4429L658.608 79.8413C658.52 78.5781 658.825 78.2893 660.27 78.4123C661.379 78.4952 662.488 78.6191 663.597 78.742C664.657 78.8659 665.091 79.4665 665.116 80.315C665.164 81.5981 665.164 82.9132 665.188 84.1854L665.477 94.8781C665.502 95.9334 664.537 95.7476 663.885 95.7775C661.611 95.9014 659.354 95.9634 657.088 96.0054H649.349V90.7689L649.301 84.703C649.301 84.4961 649.228 84.2893 649.228 84.0834L649.253 72.7411C649.253 72.4413 649.566 71.9546 649.865 71.8417C651.457 71.304 652.999 70.8064 654.831 71.0962C656.664 71.396 658.593 71.346 660.473 71.396L671.635 71.6238C673.444 71.6858 674.142 72.803 673.853 74.335C673.684 75.1844 674.045 76.0938 674.07 76.9632L674.455 86.0071C674.479 86.3799 674.542 86.7526 674.542 87.1464C674.614 88.4295 674.47 89.7746 674.807 91.0167C675.434 93.4181 675.048 95.7985 675.096 98.1989C675.12 99.7464 675.072 101.294 674.952 102.836C674.928 103.086 674.444 103.498 674.164 103.519L661.194 104.182C659.074 104.268 656.952 104.303 654.83 104.286C652.587 104.282 650.345 104.248 648.103 104.182L642.053 103.932C640.799 103.87 640.148 103.312 640.051 102.255C639.304 93.8608 639.474 85.4895 639.57 77.1061C639.618 73.7534 640.004 70.4107 640.221 67.0469C640.438 66.1775 640.39 65.2881 640.39 64.1689L640.391 64.1679ZM611.559 71.7827C612.089 73.3347 612.474 74.9506 613.198 76.4396C614.09 78.2404 616.236 78.8609 618.116 79.6894C618.597 79.8962 619.032 80.249 619.538 80.309C620.575 80.4539 621.636 80.5788 622.687 80.5158C625.412 80.3709 627.726 79.2527 629.631 77.6797C631.487 76.1068 633.006 74.2441 633.198 71.8837C633.271 71.1182 633.111 70.2897 632.861 69.5452C631.801 65.9846 629.679 63.1495 625.532 61.7005C621.193 60.1895 616.636 61.5556 614.13 64.8984C612.345 67.2788 611.984 69.6592 611.855 71.7088C611.735 71.7088 611.638 71.7288 611.542 71.7707L611.559 71.7827ZM629.109 67.6635C627.421 71.411 625.131 74.6388 621.997 77.7027L615.319 67.6635H629.109ZM610.498 96.539C610.57 98.6296 610.882 100.451 612.258 102.065C613.415 103.431 615.102 103.99 616.766 104.632C616.935 104.694 617.224 104.632 617.343 104.735C619.658 106.536 622.141 105.481 624.383 104.797C627.638 103.824 629.856 101.6 631.18 98.9394C631.793 97.7182 631.735 96.0833 631.445 94.6963C630.795 91.5914 628.938 89.0451 625.707 87.3482C621.247 84.9678 615.654 85.8992 612.689 89.8735C611.291 91.7572 610.519 94.6963 610.495 96.539H610.498ZM624.36 103.039V88.6743C627.229 89.2739 629.76 92.8965 630.049 96.4691C630.266 99.1393 626.94 102.078 624.36 103.031V103.039ZM616.863 103.205C615.875 102.708 615.055 102.355 614.309 101.921C612.621 100.907 612.453 99.2302 612.236 97.6992C611.874 95.133 612.741 92.7106 614.284 90.5371C614.935 89.6377 615.707 88.6124 617.298 88.3426L616.864 103.205H616.863ZM789.571 66.0296L789.595 76.5025C789.595 77.33 789.884 78.0135 790.751 78.6141C792.006 79.5135 793.066 80.5808 794.175 81.6151L799.671 86.8715L804.614 91.7562L809.508 97.5923C810.208 98.4217 811.002 99.2072 811.822 99.9307C812.111 100.201 812.69 100.324 813.148 100.344L822.863 100.572C823.563 100.592 824.285 100.738 824.985 100.924C826.31 101.276 826.866 101.028 826.962 99.8268C827.032 98.8744 826.988 97.9231 826.962 96.9707C826.91 95.2739 826.7 93.555 826.84 91.8582C826.988 90.3892 826.238 89.3948 825.225 88.3605C824.044 87.1184 823.08 85.7323 821.898 84.4902L813.605 75.859C812.472 74.7197 811.049 73.7684 809.844 72.6611C809.193 72.0815 808.711 71.336 808.059 70.7364L801.767 64.6405C800.418 63.0676 798.706 63.2745 796.994 63.1416C795.596 63.0376 794.197 63.1416 792.799 63.1615C789.955 63.2015 789.473 63.6372 789.569 66.0176L789.571 66.0296ZM795.284 64.7675V64.8914C795.766 64.8714 796.248 64.7675 796.707 64.8294C797.767 64.9743 799.156 64.9333 799.817 65.471C802.42 67.7275 804.783 70.1698 807.217 72.5502C808.326 73.6265 809.386 74.7447 810.545 75.8C811.918 77.0212 813.486 78.1184 814.764 79.4016C816.258 80.9126 817.51 82.5994 818.91 84.1834C820.283 85.7353 821.755 87.2473 823.056 88.8402C823.997 89.9595 824.937 91.0757 824.768 92.6696C824.599 94.4704 824.744 96.2712 824.744 98.093C824.744 98.7765 824.431 99.1073 823.586 99.0863L813.413 98.7345C813.1 98.7146 812.739 98.4347 812.521 98.1749C809.796 95.049 807.434 91.6963 804.204 88.8812C802.419 87.3292 800.9 85.5484 799.213 83.9345C797.188 82.0298 795.09 80.1871 793.042 78.3043C792.511 77.8077 791.812 77.311 791.642 76.7104C791.353 75.6751 791.329 74.5579 791.304 73.4606C791.281 70.7904 791.281 68.1412 791.352 65.471C791.352 65.2431 791.907 64.8514 792.221 64.8084C793.281 64.7045 794.294 64.7685 795.283 64.7685L795.284 64.7675ZM580.724 83.9745C578.53 83.7676 576.578 84.2743 574.818 85.2996C574.191 85.6514 573.612 86.127 573.202 86.6657C572.31 87.8049 571.056 88.7563 570.753 90.2263C570.392 92.0481 569.764 93.8279 570.006 95.7226C570.294 98.081 571.332 100.12 573.645 101.499C574.393 101.933 575.309 102.161 576.129 102.513C576.659 102.72 577.118 103.053 577.672 103.197C578.202 103.362 578.78 103.466 579.334 103.424C581.609 103.3 583.843 103.052 585.772 101.851C588.568 100.093 590.738 97.981 591.269 94.9161C591.317 94.6883 591.245 94.4404 591.22 94.1916C590.907 91.8112 590.232 89.5747 588.424 87.651C586.399 85.5394 583.915 84.1734 580.726 83.9875L580.724 83.9745ZM579.88 87.2453L577.879 85.5484C579.736 85.0308 580.314 85.3006 580.652 86.5628L582.774 88.8812L587.957 95.8765C588.873 97.1186 588.897 97.0976 587.595 98.1949L583.328 92.6986L581.134 89.5008L579.881 87.2443L579.88 87.2453ZM577.011 85.8792L586.509 98.5267C586.894 99.0233 586.99 99.3761 586.317 99.6859C585.704 99.9557 585.16 100.721 584.46 99.8098L579.181 93.0624L575.708 88.0737C575.468 87.722 575.274 87.3492 575.035 86.9545L577.012 85.8782L577.011 85.8792ZM574.19 88.0737C574.31 88.1976 574.478 88.3016 574.575 88.4255L578.649 94.0967L583.639 100.285C583.808 100.492 583.928 100.823 583.856 101.031C583.567 101.631 581.581 101.694 581.179 101.155L573.586 90.662C572.799 89.5857 572.911 88.9651 574.198 88.0637L574.19 88.0737ZM581.663 85.7553C586.098 86.0031 590.463 91.7582 589.098 95.4627L581.663 85.7553V85.7553ZM572.334 91.4065L572.718 91.2826L580.264 101.901C579.011 102.201 577.614 101.488 576.841 100.39C575.468 98.4038 574.261 96.3132 572.574 94.5544C571.417 93.3332 571.923 92.4638 572.333 91.4085L572.334 91.4065ZM575.95 100.638C573.201 99.8928 571.489 97.6782 571.875 95.3818L575.95 100.638Z" fill="#E7AB54" fill-opacity="0.1"/>
<mask id="path-2-inside-1_4_27" fill="white">
<path d="M229.283 71.7796C229.981 73.3439 230.489 74.9726 231.442 76.4735C232.617 78.2885 235.442 78.914 237.919 79.7491C238.552 79.9576 239.125 80.3131 239.792 80.3736C241.157 80.5196 242.554 80.6455 243.939 80.5821C247.526 80.436 250.574 79.3089 253.082 77.7235C255.527 76.138 257.529 74.2605 257.782 71.8814C257.878 71.1098 257.667 70.2748 257.337 69.5244C255.941 65.9355 253.147 63.0779 247.686 61.6174C241.972 60.0944 235.971 61.4714 232.67 64.8406C230.32 67.2399 229.844 69.6392 229.675 71.7051C229.534 71.7028 229.394 71.724 229.263 71.7676L229.283 71.7796ZM252.395 67.6277C250.172 71.4049 247.157 74.6584 243.03 77.7466L234.236 67.6297H252.395V67.6277ZM227.885 96.7334C227.98 98.8406 228.392 100.677 230.203 102.304C231.727 103.681 233.949 104.244 236.14 104.89C236.362 104.953 236.744 104.89 236.902 104.995C239.951 106.81 243.22 105.746 246.172 105.057C250.458 104.076 253.379 101.834 255.126 99.1529C255.932 97.922 255.856 96.2741 255.475 94.8761C254.618 91.7465 252.173 89.18 247.918 87.4697C242.043 85.0704 234.679 86.0092 230.774 90.015C228.933 91.9137 227.917 94.8761 227.885 96.7334V96.7334ZM246.14 103.285V88.8053C249.919 89.4097 253.251 93.061 253.633 96.6619C253.918 99.3533 249.536 102.316 246.14 103.276V103.285ZM236.268 103.452C234.966 102.951 233.887 102.596 232.904 102.159C230.681 101.136 230.459 99.446 230.174 97.9029C229.698 95.3162 230.842 92.8746 232.873 90.6839C233.73 89.7773 234.746 88.7439 236.841 88.4719L236.27 103.452H236.268ZM463.709 65.9819L463.74 76.5379C463.74 77.3719 464.12 78.0609 465.264 78.6663C466.915 79.5728 468.312 80.6485 469.773 81.6911L477.011 86.9892L483.52 91.9127L489.964 97.7951C490.914 98.6435 491.933 99.4312 493.012 100.152C493.392 100.424 494.155 100.549 494.758 100.569L507.552 100.799C508.474 100.819 509.425 100.966 510.346 101.153C512.092 101.508 512.823 101.258 512.949 100.047C513.045 99.0874 512.982 98.1285 512.949 97.1686C512.886 95.4583 512.6 93.7258 512.79 92.0154C512.982 90.5348 511.984 89.5326 510.664 88.49C509.109 87.238 507.838 85.841 506.283 84.5889L495.362 75.8893C493.87 74.741 491.998 73.7821 490.409 72.666C489.552 72.0818 488.917 71.3304 488.059 70.726L479.772 64.5818C477.994 62.9964 475.74 63.2049 473.486 63.0709C471.645 62.9661 469.803 63.0709 467.962 63.091C464.216 63.1313 463.58 63.5705 463.708 65.9698L463.709 65.9819ZM471.232 64.7097V64.8346C471.865 64.8145 472.502 64.7097 473.105 64.7721C474.502 64.9182 476.33 64.8769 477.2 65.4188C480.629 67.6932 483.741 70.1549 486.946 72.5542C488.406 73.639 489.803 74.7662 491.327 75.8298C493.135 77.0607 495.201 78.1667 496.883 79.46C498.841 80.983 500.502 82.6832 502.343 84.2797C504.152 85.844 506.089 87.368 507.804 88.9735C509.041 90.1017 510.28 91.2268 510.057 92.8333C509.834 94.6484 510.026 96.4635 510.026 98.2997C510.026 98.9887 509.611 99.3221 508.502 99.3009L495.104 98.9464C494.692 98.9262 494.215 98.6442 493.929 98.3823C490.342 95.2316 487.23 91.8523 482.976 89.0148C480.626 87.4506 478.627 85.6556 476.404 84.0289C473.737 82.1091 470.976 80.2517 468.277 78.354C467.579 77.8534 466.658 77.3528 466.436 76.7474C466.056 75.7039 466.023 74.5778 465.991 73.4718C465.959 70.7804 465.959 68.1102 466.055 65.4188C466.055 65.1892 466.785 64.7943 467.197 64.751C468.595 64.6462 469.928 64.7107 471.229 64.7107L471.232 64.7097ZM188.677 84.0682C185.788 83.8597 183.217 84.3704 180.899 85.4038C180.073 85.7584 179.311 86.2378 178.771 86.7807C177.596 87.929 175.945 88.8879 175.546 90.3696C175.07 92.2058 174.244 93.9997 174.562 95.9095C174.942 98.2866 176.308 100.341 179.356 101.731C180.34 102.17 181.547 102.399 182.628 102.754C183.326 102.962 183.93 103.298 184.66 103.443C185.358 103.61 186.121 103.715 186.851 103.672C189.846 103.548 192.789 103.297 195.327 102.087C199.01 100.314 201.867 98.1859 202.565 95.0966C202.629 94.867 202.534 94.6172 202.502 94.3664C202.09 91.9671 201.2 89.7129 198.819 87.7739C196.061 85.5182 192.466 84.2072 188.692 84.0813L188.677 84.0682ZM187.565 87.3649L184.931 85.6546C187.375 85.1329 188.137 85.4048 188.583 86.677L191.376 89.0138L198.202 96.0646C199.408 97.3166 199.44 97.2955 197.726 98.4015L192.107 92.8615L189.217 89.6383L187.567 87.3639L187.565 87.3649ZM183.787 85.988L190.137 92.4546L196.295 98.7349C196.802 99.2355 196.929 99.591 196.042 99.9033C195.235 100.175 194.518 100.947 193.597 100.028L186.645 93.2272L182.074 88.1989C181.756 87.8444 181.503 87.4687 181.185 87.0708L183.788 85.986L183.787 85.988ZM180.073 88.2C180.232 88.3249 180.453 88.4296 180.58 88.5545L185.945 94.2707L192.517 100.509C192.739 100.717 192.897 101.051 192.802 101.26C192.422 101.864 189.807 101.928 189.277 101.385L179.278 90.8088C178.241 89.7239 178.389 89.0984 180.084 88.1899L180.073 88.2ZM189.914 85.8631C195.755 86.1129 201.503 91.9137 199.692 95.6476L189.914 85.8631V85.8631ZM177.628 91.5592L178.135 91.4343L188.072 102.138C186.422 102.441 184.579 101.721 183.565 100.615C181.756 98.613 180.166 96.5058 177.945 94.733C176.421 93.5022 177.088 92.6258 177.628 91.5622V91.5592ZM182.391 100.864C178.771 100.113 176.516 97.8807 177.025 95.566L182.391 100.864ZM185.725 81.2529C189.979 81.0011 193.566 80.5639 196.296 78.7287C197.788 77.7275 199.291 76.6638 200.487 75.5055C202.584 73.5232 202.234 71.3324 201.313 69.1426C200.044 66.1178 197.377 63.8223 193.134 62.394C187.471 60.5145 180.836 61.558 177.152 65.167C175.025 67.2742 174.136 69.611 174.009 72.0103C173.894 74.7228 174.866 77.3306 178.612 79.0208C179.565 79.4378 180.686 79.6886 181.723 80.022L185.723 81.2529H185.725ZM194.963 64.6664C195.632 65.2305 196.329 65.7925 196.922 66.3989C198.636 68.0679 199.589 69.9444 199.652 71.9388C199.683 72.8453 199.556 73.9211 198.846 74.6513C196.846 76.7364 194.21 78.4789 190.559 79.2626C189.004 79.595 187.226 79.742 185.638 79.595C184.177 79.4489 182.812 78.8022 181.416 78.3429C180.59 78.071 179.734 77.8212 179.066 77.4364C176.685 75.996 176.146 74.0359 176.209 72.0536C176.273 70.7391 176.97 69.4347 177.511 68.1314C178.271 66.3163 179.861 64.8779 182.432 63.8334L184.051 68.2774L186.124 73.3681C186.378 73.9321 186.792 74.879 187.33 74.9334C188.759 75.1207 188.632 74.0973 189.045 73.5151L194.961 64.6583L194.963 64.6664ZM452.627 64.7087V70.5085C452.627 71.2599 452.512 72.0526 452.849 72.7406C454.024 75.0351 453.518 77.3941 453.739 79.7088C453.961 82.1081 453.675 84.5285 453.739 86.9278L454.119 91.9973C454.182 93.4377 454.023 94.8761 454.004 96.3164L453.812 102.554C453.749 103.806 454.319 104.599 455.656 104.808C457.729 105.14 459.211 104.14 458.957 102.596C458.842 101.74 458.672 100.885 458.704 100.029L458.957 92.8102L458.988 88.1989L458.481 81.544L458.387 76.6084L457.753 70.726C457.638 68.911 457.658 67.0747 457.721 65.2597C457.753 63.7991 457.088 63.1112 455.277 63.09C453.626 63.0699 453.022 63.507 453.022 64.6966C452.928 64.7167 452.769 64.7167 452.642 64.7167L452.627 64.7087ZM332.399 62.12L330.135 63.9361L325.277 67.1593C324.452 67.7436 324.038 68.5363 324.801 69.2444C325.499 69.9333 326.388 70.5588 327.34 71.0806L332.516 73.6995C332.631 73.7619 332.401 74.3673 332.101 74.5335L325.657 77.7567C324.958 78.1113 324.704 79.739 325.371 80.1973C326.228 80.7815 327.212 81.3033 328.197 81.825L334.006 84.6836L327.371 88.3349C325.816 89.2737 324.323 90.2961 323.021 91.402C322.196 92.1111 322.641 92.9129 323.657 93.5092L331.974 98.4448C333.011 99.0491 333.117 99.593 332.038 100.155L327.53 102.387C326.704 102.784 326.259 103.596 326.896 104.12C327.562 104.684 328.293 104.85 329.341 104.369C331.564 103.326 333.88 102.408 335.446 100.844C336.43 99.863 336.272 98.8295 335.287 97.8193C333.099 95.6073 329.478 94.4812 326.811 92.645C326.658 92.5282 326.499 92.4173 326.335 92.3126L330.462 89.4751C331.955 88.5686 333.637 87.7628 335.162 86.8885C337.543 85.5116 337.321 83.8839 334.844 82.6117L328.738 79.1487L334.39 76.0816C335.277 75.5599 336.294 74.9132 336.643 74.2041C337.088 73.3479 336.199 72.5764 334.993 72.0969L332.199 70.9708C332.04 70.8872 332.04 70.6384 331.977 70.4702L327.977 68.6551L332.452 65.3795C333.259 64.8356 334.261 64.4408 335.183 63.9613C335.214 63.8989 335.246 63.8364 335.246 63.7528C335.34 63.2089 335.785 62.5441 335.436 62.1885C334.832 61.4996 333.754 61.6446 332.833 62.1261C332.738 62.1462 332.547 62.1059 332.388 62.1261L332.399 62.12ZM416.764 64.8749V70.6747C416.764 71.3838 416.796 72.1352 417.082 72.803C418.118 75.3897 417.78 77.9974 417.75 80.6052C417.717 82.1907 418.003 83.7982 418.099 85.3827L418.321 92.0809C418.352 93.479 418.225 94.8972 418.162 96.2953L418.003 102.512C417.94 103.805 418.48 104.515 419.846 104.765C421.846 105.141 423.307 104.119 423.072 102.533C423.008 102.033 423.008 101.532 423.008 101.053L423.124 92.7487L423.155 88.764L422.679 83.1737L422.457 77.6338L421.885 70.3947L421.854 64.6986C421.854 63.5101 420.775 62.9057 418.997 63.0507C417.379 63.1968 416.965 63.8868 417.22 64.8658C417.061 64.886 416.902 64.886 416.743 64.886L416.764 64.8749ZM413.421 101.625C413.737 98.2453 413.643 94.8761 413.006 91.4856C412.626 89.4711 412.181 87.3559 412.911 85.2265C413.387 83.8496 412.911 82.3478 412.911 80.9074L412.975 74.6272C412.975 74.2514 412.721 73.8757 412.752 73.501C412.785 72.0204 412.911 70.5397 412.975 69.0691C413.038 67.5461 413.228 66.0232 413.038 64.5213C412.975 64.062 412.001 63.3952 411.292 63.2905C410.485 63.1857 409.165 63.4778 408.753 63.8948C408.211 64.4589 408.276 65.2929 408.117 66.0232C408.086 66.1904 408.276 66.3777 408.232 66.5238C407.755 68.5262 407.946 70.5296 408.041 72.5321C408.156 75.1509 407.851 77.7899 407.851 80.4189C407.851 82.3176 408.104 84.2163 408.136 86.1149C408.168 87.0215 407.787 87.9512 407.883 88.8476C408.042 90.3585 408.519 91.8523 408.689 93.3541C408.805 94.3352 408.626 95.3152 408.595 96.2953C408.595 96.7334 408.71 97.1716 408.71 97.6098L408.678 99.6746C408.614 100.697 408.424 101.74 408.457 102.763C408.488 103.556 409.726 104.223 410.933 104.203C412.267 104.183 413.251 103.579 413.378 102.618C413.474 102.316 413.41 101.971 413.41 101.617L413.421 101.625ZM449.201 101.897C449.581 98.3078 449.455 95.0332 448.852 91.7153C448.472 89.6706 447.773 87.5009 448.789 85.3726C448.979 84.9767 448.597 84.4963 448.597 84.0581C448.503 81.3889 448.248 78.6965 448.482 76.0262C448.577 74.837 448.546 73.6426 448.388 72.4585C448.229 71.3737 448.768 70.2677 448.831 69.1618C448.927 67.5764 449.023 65.9909 448.8 64.4257C448.737 64.0086 447.625 63.3821 446.895 63.3197C446.164 63.2572 444.895 63.5916 444.545 64.0086C444.038 64.613 444.165 65.4269 444.038 66.1571C444.006 66.3243 444.153 66.5117 444.134 66.6577C443.403 69.7248 443.911 72.802 443.88 75.858C443.88 78.4245 443.721 80.99 443.69 83.5565C443.69 84.3492 443.849 85.1419 443.943 85.9336C443.976 86.2056 444.007 86.4755 444.007 86.7475C444.007 87.8736 443.912 88.9796 443.976 90.1067C444.039 91.5249 444.229 92.9441 444.356 94.3835C444.45 95.5318 444.609 96.7002 444.673 97.8465C444.705 98.6603 444.609 99.4943 444.577 100.308C444.546 101.164 444.419 102.019 444.462 102.875C444.494 103.646 445.637 104.273 446.812 104.273C448.177 104.253 449.256 103.48 449.289 102.458C449.289 102.186 449.225 101.914 449.225 101.894L449.201 101.897ZM432.313 101.333L432.281 92.4868C432.166 90.422 431.455 88.3571 431.265 86.2902C431.075 84.3291 431.265 82.3679 431.234 80.4078C431.234 80.012 431.075 79.6151 431.011 79.2192C430.789 77.8635 430.375 76.5067 430.343 75.1499L430.502 67.0133C430.501 66.1658 430.406 65.3203 430.216 64.4891C430.025 63.6752 429.137 63.3207 427.962 63.3207C426.756 63.3207 426.119 63.78 425.93 64.5294C425.613 65.7603 425.17 66.9911 425.073 68.222C424.977 69.0983 425.422 69.9948 425.485 70.8912L426.311 79.9868L426.787 89.2294L427.455 95.3001C427.518 97.2612 427.202 99.2012 427.043 101.162C427.01 101.663 426.757 102.268 427.106 102.673C427.518 103.195 428.312 103.737 429.106 103.904C430.185 104.134 431.203 103.717 431.614 102.998C431.899 102.497 431.932 101.934 432.091 101.391C432.154 101.371 432.206 101.351 432.313 101.351V101.333ZM398.85 97.4325L399.295 102.398C399.454 103.379 400.628 103.754 401.962 103.607C403.295 103.482 403.962 102.939 403.929 101.917C403.866 100.039 404.088 98.1617 404.121 96.2631C404.152 94.2606 404.437 92.2159 404.088 90.2336C403.517 87.0104 404.437 83.7872 403.898 80.5639C403.676 79.3331 404.278 78.0397 404.405 76.7666C404.501 75.9326 404.501 75.0764 404.468 74.2424L404.215 71.281L403.897 65.7411C403.834 65.1771 403.485 64.4478 402.881 64.1346C402.342 63.8626 401.167 63.9049 400.437 64.0943C399.93 64.2192 399.453 64.8245 399.421 65.2204C399.357 66.2427 399.643 67.2853 399.643 68.3076L399.484 73.1797L399.421 79.5224L399.008 84.3422C398.976 85.6143 399.198 86.8875 399.198 88.1697L399.039 92.3841V97.4325C398.924 97.4526 398.881 97.4526 398.849 97.4526L398.85 97.4325ZM439.584 100.748L439.933 96.2419C439.964 94.7612 439.818 93.2806 439.711 91.7979L439.458 88.8365C439.458 88.2946 439.711 87.7517 439.743 87.2088L439.776 81.7424L440.22 76.819L440.315 73.9815L440.284 69.9968C440.251 69.2877 440.061 68.5564 439.966 67.8483L439.776 65.4712C439.68 64.4488 438.633 63.8233 437.204 63.8858C435.839 63.9482 435.203 64.4498 435.172 65.4923L435.011 78.4578L435.201 82.6721L434.98 87.6782L434.948 91.0787V100.655C434.948 101.279 435.107 101.886 435.297 102.491C435.615 103.451 436.757 103.639 437.996 103.534C439.265 103.43 439.931 102.91 439.741 101.99C439.647 101.593 439.741 101.156 439.741 100.759C439.678 100.78 439.647 100.759 439.583 100.759L439.584 100.748ZM202.38 83.0468C202.57 85.2588 202.792 86.9902 204.315 88.5867C205.839 90.1933 208.252 90.9639 210.728 91.5914C212.093 91.9238 213.078 92.7598 214.856 92.6138C218.57 92.3116 221.936 91.7999 224.855 90.0271C227.554 88.3994 229.809 86.7102 230.284 84.2686C230.438 83.4061 230.384 82.5252 230.125 81.682C228.856 77.6348 225.552 74.5677 219.427 73.221C216.252 72.5331 213.014 72.6368 209.839 73.8677C206.76 75.0562 204.981 76.8512 203.68 78.8032C202.759 80.2436 202.728 81.9116 202.379 83.0388L202.38 83.0468ZM214.445 74.2434C217.808 74.3058 220.635 74.8679 222.572 75.9124C226.159 77.8735 228.064 80.44 228.128 83.5071C228.16 84.3835 227.906 85.3847 227.206 86.0938C225.746 87.5744 223.999 88.9524 221.524 89.8287C218.698 90.8098 215.936 91.957 212.762 90.3706C212.603 90.3081 212.349 90.3505 212.158 90.287C210.634 89.87 208.932 89.598 207.65 88.9514C205.142 87.6581 204.508 85.572 204.634 83.6935C204.793 81.0243 205.714 78.3319 208.781 76.266C210.432 75.1378 212.464 74.3673 214.433 74.2515L214.445 74.2434ZM512.082 83.5263L511.098 82.65L504.632 77.0476L496.854 70.5588L489.827 65.5931C489.129 65.0925 488.494 64.5082 487.668 64.1325C487.256 63.924 486.462 64.0701 485.827 64.0489C485.858 64.4246 485.732 64.8628 486.017 65.1549C486.556 65.719 487.287 66.2186 487.953 66.7192L495.604 72.3941C499.573 75.5236 503.414 78.7156 507.255 81.9076C508.081 82.5956 508.747 83.3883 509.605 84.0561C509.893 84.2646 510.642 84.3059 511.16 84.2233C511.446 84.1609 511.7 83.8063 512.082 83.5353V83.5263ZM465.74 82.2853C465.297 82.5573 464.661 82.7446 464.597 82.9944C464.534 83.349 464.693 83.8506 465.042 84.1226L471.032 88.6703L479.255 95.3464L484.716 99.3735C485.414 99.8952 485.891 100.542 486.62 101.021C486.97 101.251 487.657 101.273 488.207 101.376C488.366 101 488.843 100.469 488.622 100.25C487.479 99.0189 486.272 97.788 484.907 96.6609L477.129 90.5469L468.258 83.9544C467.751 83.5787 467.337 83.1204 466.83 82.7457C466.576 82.5784 466.162 82.4737 465.718 82.2863L465.74 82.2853Z"/>
</mask>
<path d="M229.283 71.7796C229.981 73.3439 230.489 74.9726 231.442 76.4735C232.617 78.2885 235.442 78.914 237.919 79.7491C238.552 79.9576 239.125 80.3131 239.792 80.3736C241.157 80.5196 242.554 80.6455 243.939 80.5821C247.526 80.436 250.574 79.3089 253.082 77.7235C255.527 76.138 257.529 74.2605 257.782 71.8814C257.878 71.1098 257.667 70.2748 257.337 69.5244C255.941 65.9355 253.147 63.0779 247.686 61.6174C241.972 60.0944 235.971 61.4714 232.67 64.8406C230.32 67.2399 229.844 69.6392 229.675 71.7051C229.534 71.7028 229.394 71.724 229.263 71.7676L229.283 71.7796ZM252.395 67.6277C250.172 71.4049 247.157 74.6584 243.03 77.7466L234.236 67.6297H252.395V67.6277ZM227.885 96.7334C227.98 98.8406 228.392 100.677 230.203 102.304C231.727 103.681 233.949 104.244 236.14 104.89C236.362 104.953 236.744 104.89 236.902 104.995C239.951 106.81 243.22 105.746 246.172 105.057C250.458 104.076 253.379 101.834 255.126 99.1529C255.932 97.922 255.856 96.2741 255.475 94.8761C254.618 91.7465 252.173 89.18 247.918 87.4697C242.043 85.0704 234.679 86.0092 230.774 90.015C228.933 91.9137 227.917 94.8761 227.885 96.7334V96.7334ZM246.14 103.285V88.8053C249.919 89.4097 253.251 93.061 253.633 96.6619C253.918 99.3533 249.536 102.316 246.14 103.276V103.285ZM236.268 103.452C234.966 102.951 233.887 102.596 232.904 102.159C230.681 101.136 230.459 99.446 230.174 97.9029C229.698 95.3162 230.842 92.8746 232.873 90.6839C233.73 89.7773 234.746 88.7439 236.841 88.4719L236.27 103.452H236.268ZM463.709 65.9819L463.74 76.5379C463.74 77.3719 464.12 78.0609 465.264 78.6663C466.915 79.5728 468.312 80.6485 469.773 81.6911L477.011 86.9892L483.52 91.9127L489.964 97.7951C490.914 98.6435 491.933 99.4312 493.012 100.152C493.392 100.424 494.155 100.549 494.758 100.569L507.552 100.799C508.474 100.819 509.425 100.966 510.346 101.153C512.092 101.508 512.823 101.258 512.949 100.047C513.045 99.0874 512.982 98.1285 512.949 97.1686C512.886 95.4583 512.6 93.7258 512.79 92.0154C512.982 90.5348 511.984 89.5326 510.664 88.49C509.109 87.238 507.838 85.841 506.283 84.5889L495.362 75.8893C493.87 74.741 491.998 73.7821 490.409 72.666C489.552 72.0818 488.917 71.3304 488.059 70.726L479.772 64.5818C477.994 62.9964 475.74 63.2049 473.486 63.0709C471.645 62.9661 469.803 63.0709 467.962 63.091C464.216 63.1313 463.58 63.5705 463.708 65.9698L463.709 65.9819ZM471.232 64.7097V64.8346C471.865 64.8145 472.502 64.7097 473.105 64.7721C474.502 64.9182 476.33 64.8769 477.2 65.4188C480.629 67.6932 483.741 70.1549 486.946 72.5542C488.406 73.639 489.803 74.7662 491.327 75.8298C493.135 77.0607 495.201 78.1667 496.883 79.46C498.841 80.983 500.502 82.6832 502.343 84.2797C504.152 85.844 506.089 87.368 507.804 88.9735C509.041 90.1017 510.28 91.2268 510.057 92.8333C509.834 94.6484 510.026 96.4635 510.026 98.2997C510.026 98.9887 509.611 99.3221 508.502 99.3009L495.104 98.9464C494.692 98.9262 494.215 98.6442 493.929 98.3823C490.342 95.2316 487.23 91.8523 482.976 89.0148C480.626 87.4506 478.627 85.6556 476.404 84.0289C473.737 82.1091 470.976 80.2517 468.277 78.354C467.579 77.8534 466.658 77.3528 466.436 76.7474C466.056 75.7039 466.023 74.5778 465.991 73.4718C465.959 70.7804 465.959 68.1102 466.055 65.4188C466.055 65.1892 466.785 64.7943 467.197 64.751C468.595 64.6462 469.928 64.7107 471.229 64.7107L471.232 64.7097ZM188.677 84.0682C185.788 83.8597 183.217 84.3704 180.899 85.4038C180.073 85.7584 179.311 86.2378 178.771 86.7807C177.596 87.929 175.945 88.8879 175.546 90.3696C175.07 92.2058 174.244 93.9997 174.562 95.9095C174.942 98.2866 176.308 100.341 179.356 101.731C180.34 102.17 181.547 102.399 182.628 102.754C183.326 102.962 183.93 103.298 184.66 103.443C185.358 103.61 186.121 103.715 186.851 103.672C189.846 103.548 192.789 103.297 195.327 102.087C199.01 100.314 201.867 98.1859 202.565 95.0966C202.629 94.867 202.534 94.6172 202.502 94.3664C202.09 91.9671 201.2 89.7129 198.819 87.7739C196.061 85.5182 192.466 84.2072 188.692 84.0813L188.677 84.0682ZM187.565 87.3649L184.931 85.6546C187.375 85.1329 188.137 85.4048 188.583 86.677L191.376 89.0138L198.202 96.0646C199.408 97.3166 199.44 97.2955 197.726 98.4015L192.107 92.8615L189.217 89.6383L187.567 87.3639L187.565 87.3649ZM183.787 85.988L190.137 92.4546L196.295 98.7349C196.802 99.2355 196.929 99.591 196.042 99.9033C195.235 100.175 194.518 100.947 193.597 100.028L186.645 93.2272L182.074 88.1989C181.756 87.8444 181.503 87.4687 181.185 87.0708L183.788 85.986L183.787 85.988ZM180.073 88.2C180.232 88.3249 180.453 88.4296 180.58 88.5545L185.945 94.2707L192.517 100.509C192.739 100.717 192.897 101.051 192.802 101.26C192.422 101.864 189.807 101.928 189.277 101.385L179.278 90.8088C178.241 89.7239 178.389 89.0984 180.084 88.1899L180.073 88.2ZM189.914 85.8631C195.755 86.1129 201.503 91.9137 199.692 95.6476L189.914 85.8631V85.8631ZM177.628 91.5592L178.135 91.4343L188.072 102.138C186.422 102.441 184.579 101.721 183.565 100.615C181.756 98.613 180.166 96.5058 177.945 94.733C176.421 93.5022 177.088 92.6258 177.628 91.5622V91.5592ZM182.391 100.864C178.771 100.113 176.516 97.8807 177.025 95.566L182.391 100.864ZM185.725 81.2529C189.979 81.0011 193.566 80.5639 196.296 78.7287C197.788 77.7275 199.291 76.6638 200.487 75.5055C202.584 73.5232 202.234 71.3324 201.313 69.1426C200.044 66.1178 197.377 63.8223 193.134 62.394C187.471 60.5145 180.836 61.558 177.152 65.167C175.025 67.2742 174.136 69.611 174.009 72.0103C173.894 74.7228 174.866 77.3306 178.612 79.0208C179.565 79.4378 180.686 79.6886 181.723 80.022L185.723 81.2529H185.725ZM194.963 64.6664C195.632 65.2305 196.329 65.7925 196.922 66.3989C198.636 68.0679 199.589 69.9444 199.652 71.9388C199.683 72.8453 199.556 73.9211 198.846 74.6513C196.846 76.7364 194.21 78.4789 190.559 79.2626C189.004 79.595 187.226 79.742 185.638 79.595C184.177 79.4489 182.812 78.8022 181.416 78.3429C180.59 78.071 179.734 77.8212 179.066 77.4364C176.685 75.996 176.146 74.0359 176.209 72.0536C176.273 70.7391 176.97 69.4347 177.511 68.1314C178.271 66.3163 179.861 64.8779 182.432 63.8334L184.051 68.2774L186.124 73.3681C186.378 73.9321 186.792 74.879 187.33 74.9334C188.759 75.1207 188.632 74.0973 189.045 73.5151L194.961 64.6583L194.963 64.6664ZM452.627 64.7087V70.5085C452.627 71.2599 452.512 72.0526 452.849 72.7406C454.024 75.0351 453.518 77.3941 453.739 79.7088C453.961 82.1081 453.675 84.5285 453.739 86.9278L454.119 91.9973C454.182 93.4377 454.023 94.8761 454.004 96.3164L453.812 102.554C453.749 103.806 454.319 104.599 455.656 104.808C457.729 105.14 459.211 104.14 458.957 102.596C458.842 101.74 458.672 100.885 458.704 100.029L458.957 92.8102L458.988 88.1989L458.481 81.544L458.387 76.6084L457.753 70.726C457.638 68.911 457.658 67.0747 457.721 65.2597C457.753 63.7991 457.088 63.1112 455.277 63.09C453.626 63.0699 453.022 63.507 453.022 64.6966C452.928 64.7167 452.769 64.7167 452.642 64.7167L452.627 64.7087ZM332.399 62.12L330.135 63.9361L325.277 67.1593C324.452 67.7436 324.038 68.5363 324.801 69.2444C325.499 69.9333 326.388 70.5588 327.34 71.0806L332.516 73.6995C332.631 73.7619 332.401 74.3673 332.101 74.5335L325.657 77.7567C324.958 78.1113 324.704 79.739 325.371 80.1973C326.228 80.7815 327.212 81.3033 328.197 81.825L334.006 84.6836L327.371 88.3349C325.816 89.2737 324.323 90.2961 323.021 91.402C322.196 92.1111 322.641 92.9129 323.657 93.5092L331.974 98.4448C333.011 99.0491 333.117 99.593 332.038 100.155L327.53 102.387C326.704 102.784 326.259 103.596 326.896 104.12C327.562 104.684 328.293 104.85 329.341 104.369C331.564 103.326 333.88 102.408 335.446 100.844C336.43 99.863 336.272 98.8295 335.287 97.8193C333.099 95.6073 329.478 94.4812 326.811 92.645C326.658 92.5282 326.499 92.4173 326.335 92.3126L330.462 89.4751C331.955 88.5686 333.637 87.7628 335.162 86.8885C337.543 85.5116 337.321 83.8839 334.844 82.6117L328.738 79.1487L334.39 76.0816C335.277 75.5599 336.294 74.9132 336.643 74.2041C337.088 73.3479 336.199 72.5764 334.993 72.0969L332.199 70.9708C332.04 70.8872 332.04 70.6384 331.977 70.4702L327.977 68.6551L332.452 65.3795C333.259 64.8356 334.261 64.4408 335.183 63.9613C335.214 63.8989 335.246 63.8364 335.246 63.7528C335.34 63.2089 335.785 62.5441 335.436 62.1885C334.832 61.4996 333.754 61.6446 332.833 62.1261C332.738 62.1462 332.547 62.1059 332.388 62.1261L332.399 62.12ZM416.764 64.8749V70.6747C416.764 71.3838 416.796 72.1352 417.082 72.803C418.118 75.3897 417.78 77.9974 417.75 80.6052C417.717 82.1907 418.003 83.7982 418.099 85.3827L418.321 92.0809C418.352 93.479 418.225 94.8972 418.162 96.2953L418.003 102.512C417.94 103.805 418.48 104.515 419.846 104.765C421.846 105.141 423.307 104.119 423.072 102.533C423.008 102.033 423.008 101.532 423.008 101.053L423.124 92.7487L423.155 88.764L422.679 83.1737L422.457 77.6338L421.885 70.3947L421.854 64.6986C421.854 63.5101 420.775 62.9057 418.997 63.0507C417.379 63.1968 416.965 63.8868 417.22 64.8658C417.061 64.886 416.902 64.886 416.743 64.886L416.764 64.8749ZM413.421 101.625C413.737 98.2453 413.643 94.8761 413.006 91.4856C412.626 89.4711 412.181 87.3559 412.911 85.2265C413.387 83.8496 412.911 82.3478 412.911 80.9074L412.975 74.6272C412.975 74.2514 412.721 73.8757 412.752 73.501C412.785 72.0204 412.911 70.5397 412.975 69.0691C413.038 67.5461 413.228 66.0232 413.038 64.5213C412.975 64.062 412.001 63.3952 411.292 63.2905C410.485 63.1857 409.165 63.4778 408.753 63.8948C408.211 64.4589 408.276 65.2929 408.117 66.0232C408.086 66.1904 408.276 66.3777 408.232 66.5238C407.755 68.5262 407.946 70.5296 408.041 72.5321C408.156 75.1509 407.851 77.7899 407.851 80.4189C407.851 82.3176 408.104 84.2163 408.136 86.1149C408.168 87.0215 407.787 87.9512 407.883 88.8476C408.042 90.3585 408.519 91.8523 408.689 93.3541C408.805 94.3352 408.626 95.3152 408.595 96.2953C408.595 96.7334 408.71 97.1716 408.71 97.6098L408.678 99.6746C408.614 100.697 408.424 101.74 408.457 102.763C408.488 103.556 409.726 104.223 410.933 104.203C412.267 104.183 413.251 103.579 413.378 102.618C413.474 102.316 413.41 101.971 413.41 101.617L413.421 101.625ZM449.201 101.897C449.581 98.3078 449.455 95.0332 448.852 91.7153C448.472 89.6706 447.773 87.5009 448.789 85.3726C448.979 84.9767 448.597 84.4963 448.597 84.0581C448.503 81.3889 448.248 78.6965 448.482 76.0262C448.577 74.837 448.546 73.6426 448.388 72.4585C448.229 71.3737 448.768 70.2677 448.831 69.1618C448.927 67.5764 449.023 65.9909 448.8 64.4257C448.737 64.0086 447.625 63.3821 446.895 63.3197C446.164 63.2572 444.895 63.5916 444.545 64.0086C444.038 64.613 444.165 65.4269 444.038 66.1571C444.006 66.3243 444.153 66.5117 444.134 66.6577C443.403 69.7248 443.911 72.802 443.88 75.858C443.88 78.4245 443.721 80.99 443.69 83.5565C443.69 84.3492 443.849 85.1419 443.943 85.9336C443.976 86.2056 444.007 86.4755 444.007 86.7475C444.007 87.8736 443.912 88.9796 443.976 90.1067C444.039 91.5249 444.229 92.9441 444.356 94.3835C444.45 95.5318 444.609 96.7002 444.673 97.8465C444.705 98.6603 444.609 99.4943 444.577 100.308C444.546 101.164 444.419 102.019 444.462 102.875C444.494 103.646 445.637 104.273 446.812 104.273C448.177 104.253 449.256 103.48 449.289 102.458C449.289 102.186 449.225 101.914 449.225 101.894L449.201 101.897ZM432.313 101.333L432.281 92.4868C432.166 90.422 431.455 88.3571 431.265 86.2902C431.075 84.3291 431.265 82.3679 431.234 80.4078C431.234 80.012 431.075 79.6151 431.011 79.2192C430.789 77.8635 430.375 76.5067 430.343 75.1499L430.502 67.0133C430.501 66.1658 430.406 65.3203 430.216 64.4891C430.025 63.6752 429.137 63.3207 427.962 63.3207C426.756 63.3207 426.119 63.78 425.93 64.5294C425.613 65.7603 425.17 66.9911 425.073 68.222C424.977 69.0983 425.422 69.9948 425.485 70.8912L426.311 79.9868L426.787 89.2294L427.455 95.3001C427.518 97.2612 427.202 99.2012 427.043 101.162C427.01 101.663 426.757 102.268 427.106 102.673C427.518 103.195 428.312 103.737 429.106 103.904C430.185 104.134 431.203 103.717 431.614 102.998C431.899 102.497 431.932 101.934 432.091 101.391C432.154 101.371 432.206 101.351 432.313 101.351V101.333ZM398.85 97.4325L399.295 102.398C399.454 103.379 400.628 103.754 401.962 103.607C403.295 103.482 403.962 102.939 403.929 101.917C403.866 100.039 404.088 98.1617 404.121 96.2631C404.152 94.2606 404.437 92.2159 404.088 90.2336C403.517 87.0104 404.437 83.7872 403.898 80.5639C403.676 79.3331 404.278 78.0397 404.405 76.7666C404.501 75.9326 404.501 75.0764 404.468 74.2424L404.215 71.281L403.897 65.7411C403.834 65.1771 403.485 64.4478 402.881 64.1346C402.342 63.8626 401.167 63.9049 400.437 64.0943C399.93 64.2192 399.453 64.8245 399.421 65.2204C399.357 66.2427 399.643 67.2853 399.643 68.3076L399.484 73.1797L399.421 79.5224L399.008 84.3422C398.976 85.6143 399.198 86.8875 399.198 88.1697L399.039 92.3841V97.4325C398.924 97.4526 398.881 97.4526 398.849 97.4526L398.85 97.4325ZM439.584 100.748L439.933 96.2419C439.964 94.7612 439.818 93.2806 439.711 91.7979L439.458 88.8365C439.458 88.2946 439.711 87.7517 439.743 87.2088L439.776 81.7424L440.22 76.819L440.315 73.9815L440.284 69.9968C440.251 69.2877 440.061 68.5564 439.966 67.8483L439.776 65.4712C439.68 64.4488 438.633 63.8233 437.204 63.8858C435.839 63.9482 435.203 64.4498 435.172 65.4923L435.011 78.4578L435.201 82.6721L434.98 87.6782L434.948 91.0787V100.655C434.948 101.279 435.107 101.886 435.297 102.491C435.615 103.451 436.757 103.639 437.996 103.534C439.265 103.43 439.931 102.91 439.741 101.99C439.647 101.593 439.741 101.156 439.741 100.759C439.678 100.78 439.647 100.759 439.583 100.759L439.584 100.748ZM202.38 83.0468C202.57 85.2588 202.792 86.9902 204.315 88.5867C205.839 90.1933 208.252 90.9639 210.728 91.5914C212.093 91.9238 213.078 92.7598 214.856 92.6138C218.57 92.3116 221.936 91.7999 224.855 90.0271C227.554 88.3994 229.809 86.7102 230.284 84.2686C230.438 83.4061 230.384 82.5252 230.125 81.682C228.856 77.6348 225.552 74.5677 219.427 73.221C216.252 72.5331 213.014 72.6368 209.839 73.8677C206.76 75.0562 204.981 76.8512 203.68 78.8032C202.759 80.2436 202.728 81.9116 202.379 83.0388L202.38 83.0468ZM214.445 74.2434C217.808 74.3058 220.635 74.8679 222.572 75.9124C226.159 77.8735 228.064 80.44 228.128 83.5071C228.16 84.3835 227.906 85.3847 227.206 86.0938C225.746 87.5744 223.999 88.9524 221.524 89.8287C218.698 90.8098 215.936 91.957 212.762 90.3706C212.603 90.3081 212.349 90.3505 212.158 90.287C210.634 89.87 208.932 89.598 207.65 88.9514C205.142 87.6581 204.508 85.572 204.634 83.6935C204.793 81.0243 205.714 78.3319 208.781 76.266C210.432 75.1378 212.464 74.3673 214.433 74.2515L214.445 74.2434ZM512.082 83.5263L511.098 82.65L504.632 77.0476L496.854 70.5588L489.827 65.5931C489.129 65.0925 488.494 64.5082 487.668 64.1325C487.256 63.924 486.462 64.0701 485.827 64.0489C485.858 64.4246 485.732 64.8628 486.017 65.1549C486.556 65.719 487.287 66.2186 487.953 66.7192L495.604 72.3941C499.573 75.5236 503.414 78.7156 507.255 81.9076C508.081 82.5956 508.747 83.3883 509.605 84.0561C509.893 84.2646 510.642 84.3059 511.16 84.2233C511.446 84.1609 511.7 83.8063 512.082 83.5353V83.5263ZM465.74 82.2853C465.297 82.5573 464.661 82.7446 464.597 82.9944C464.534 83.349 464.693 83.8506 465.042 84.1226L471.032 88.6703L479.255 95.3464L484.716 99.3735C485.414 99.8952 485.891 100.542 486.62 101.021C486.97 101.251 487.657 101.273 488.207 101.376C488.366 101 488.843 100.469 488.622 100.25C487.479 99.0189 486.272 97.788 484.907 96.6609L477.129 90.5469L468.258 83.9544C467.751 83.5787 467.337 83.1204 466.83 82.7457C466.576 82.5784 466.162 82.4737 465.718 82.2863L465.74 82.2853Z" fill="#D98B30" fill-opacity="0.1" stroke="black" stroke-width="2" mask="url(#path-2-inside-1_4_27)"/>
<path d="M332.365 83.4729C328.673 83.7318 325.56 84.1733 323.194 86.0011C321.901 86.9982 320.599 88.0574 319.564 89.2099C317.749 91.1823 318.058 93.3565 318.863 95.5286C319.972 98.5289 322.293 100.802 325.979 102.211C330.89 104.085 336.646 103.036 339.835 99.4439C341.677 97.3474 342.442 95.0255 342.548 92.6433C342.642 89.95 341.791 87.3631 338.535 85.693C337.707 85.281 336.742 85.0343 335.833 84.7055L332.357 83.4919L332.365 83.4729ZM324.385 99.9592C323.803 99.4006 323.197 98.8441 322.681 98.2434C321.189 96.59 320.357 94.729 320.297 92.7491C320.267 91.8492 320.375 90.7809 320.991 90.0544C322.722 87.9802 325.005 86.2447 328.173 85.459C329.522 85.1258 331.065 84.976 332.442 85.1187C333.71 85.2606 334.897 85.8998 336.111 86.3528C336.828 86.6211 337.572 86.8673 338.153 87.2479C340.224 88.6729 340.697 90.6177 340.646 92.5859C340.593 93.891 339.99 95.1875 339.525 96.4826C338.868 98.2862 337.493 99.7175 335.264 100.76L333.847 96.3513L332.035 91.3017C331.814 90.7422 331.451 89.8031 330.984 89.7502C329.744 89.5672 329.856 90.583 329.5 91.1618L324.395 99.9562L324.385 99.9592ZM100.715 100.458L100.701 94.7004C100.7 93.9544 100.798 93.1672 100.503 92.4849C99.4775 90.2094 99.9139 87.8663 99.7163 85.5688C99.5175 83.1872 99.7597 80.7837 99.699 78.4018L99.3568 73.3696C99.2984 71.9397 99.4329 70.5114 99.4464 69.0814L99.5964 62.888C99.6494 61.6449 99.1515 60.8591 97.993 60.6549C96.1923 60.3292 94.9076 61.3253 95.1323 62.8578C95.2344 63.7076 95.3845 64.5552 95.3585 65.4053L95.1558 72.5728L95.1389 77.1508L95.5949 83.7567L95.6898 88.6565L96.2539 94.4952C96.3582 96.2969 96.3457 98.12 96.295 99.9221C96.2705 101.372 96.8502 102.054 98.4222 102.071C99.8553 102.087 100.377 101.652 100.374 100.471C100.457 100.451 100.594 100.451 100.704 100.45L100.715 100.458ZM205.086 102.776L207.039 100.969L211.248 97.759C211.963 97.1772 212.319 96.3894 211.656 95.688C211.048 95.0054 210.275 94.3863 209.447 93.8703L204.948 91.2812C204.848 91.2194 205.047 90.6179 205.304 90.4523L210.892 87.2388C211.497 86.8853 211.714 85.2688 211.134 84.8152C210.388 84.237 209.531 83.7211 208.677 83.2051L203.627 80.3793L209.378 76.7404C210.726 75.8052 212.019 74.787 213.146 73.6863C213.861 72.9806 213.472 72.1855 212.591 71.5956L205.359 66.7131C204.458 66.1153 204.363 65.5755 205.299 65.0153L209.208 62.7898C209.923 62.3941 210.307 61.5871 209.753 61.0685C209.172 60.5099 208.539 60.3464 207.631 60.8256C205.703 61.8663 203.695 62.7821 202.339 64.3384C201.487 65.3145 201.627 66.3401 202.484 67.3411C204.391 69.5325 207.536 70.6429 209.856 72.4603C209.989 72.5759 210.127 72.6857 210.27 72.7893L206.694 75.6149C205.401 76.518 203.943 77.3216 202.622 78.1928C200.558 79.5648 200.755 81.1803 202.907 82.4381L208.207 85.8633L203.309 88.9201C202.538 89.44 201.659 90.0841 201.356 90.7889C200.973 91.6398 201.746 92.4039 202.794 92.8774L205.223 93.9895C205.36 94.0722 205.361 94.3192 205.417 94.4861L208.894 96.2797L205.015 99.541C204.317 100.083 203.448 100.477 202.649 100.955C202.622 101.017 202.594 101.079 202.594 101.162C202.513 101.702 202.127 102.363 202.433 102.715C202.958 103.398 203.894 103.252 204.693 102.772C204.776 102.752 204.943 102.791 205.079 102.771L205.086 102.776ZM131.856 100.218L131.842 94.4601C131.84 93.7561 131.811 93.0101 131.562 92.3477C130.656 89.7819 130.942 87.1922 130.963 84.6032C130.986 83.0291 130.735 81.4337 130.649 79.8609L130.439 73.2114C130.408 71.8235 130.515 70.4152 130.567 69.0271L130.689 62.8548C130.741 61.5706 130.272 60.8678 129.086 60.6216C127.349 60.2528 126.084 61.2709 126.291 62.8444C126.348 63.3413 126.349 63.8383 126.35 64.3143L126.27 72.5585L126.251 76.5145L126.679 82.0635L126.884 87.563L127.399 94.7488L127.439 100.404C127.442 101.584 128.381 102.181 129.923 102.034C131.329 101.885 131.685 101.199 131.463 100.228C131.601 100.208 131.738 100.207 131.876 100.207L131.856 100.218ZM134.672 63.7261C134.404 67.0818 134.495 70.4266 135.054 73.7912C135.389 75.7904 135.781 77.8895 135.152 80.005C134.741 81.373 135.159 82.863 135.162 84.293L135.122 90.5281C135.123 90.9011 135.344 91.2736 135.318 91.6457C135.294 93.1157 135.187 94.586 135.136 96.0461C135.084 97.5582 134.923 99.0706 135.092 100.561C135.148 101.017 135.994 101.677 136.61 101.78C137.31 101.882 138.456 101.589 138.813 101.174C139.282 100.613 139.224 99.7852 139.358 99.0599C139.386 98.8938 139.22 98.7082 139.257 98.5631C139.665 96.5741 139.495 94.5856 139.407 92.5978C139.301 89.998 139.561 87.3774 139.554 84.7674C139.55 82.8824 139.325 80.9979 139.293 79.113C139.263 78.2131 139.591 77.2893 139.506 76.3995C139.365 74.8998 138.949 73.4178 138.795 71.9272C138.693 70.9534 138.846 69.9801 138.871 69.007C138.87 68.572 138.769 68.1372 138.768 67.7022L138.79 65.6522C138.843 64.637 139.005 63.6017 138.976 62.5857C138.947 61.7988 137.87 61.1384 136.822 61.1609C135.664 61.1837 134.812 61.7858 134.703 62.7401C134.622 63.0403 134.678 63.3821 134.679 63.7341L134.672 63.7261ZM103.601 63.5313C103.28 67.0951 103.398 70.3458 103.928 73.6385C104.263 75.6677 104.876 77.8203 103.999 79.9354C103.834 80.3288 104.166 80.805 104.167 81.24C104.256 83.8898 104.483 86.5622 104.286 89.2137C104.207 90.3946 104.237 91.5803 104.378 92.7555C104.518 93.8322 104.053 94.9313 104 96.0294C103.921 97.6036 103.842 99.1778 104.039 100.731C104.095 101.145 105.062 101.765 105.695 101.825C106.328 101.886 107.431 101.551 107.733 101.136C108.172 100.535 108.06 99.7276 108.168 99.0024C108.194 98.8363 108.067 98.6506 108.084 98.5056C108.71 95.459 108.262 92.4051 108.282 89.3711C108.275 86.8231 108.407 84.2757 108.429 81.7277C108.427 80.9407 108.287 80.154 108.203 79.3682C108.176 79.0983 108.147 78.8304 108.146 78.5604C108.144 77.4424 108.224 76.3442 108.166 75.2253C108.108 73.8174 107.939 72.4088 107.826 70.9801C107.74 69.8403 107.6 68.6806 107.542 67.5428C107.513 66.7349 107.594 65.9067 107.619 65.0986C107.645 64.2485 107.753 63.4003 107.713 62.5504C107.684 61.7844 106.689 61.1648 105.669 61.1673C104.484 61.1902 103.549 61.9594 103.524 62.9745C103.524 63.2445 103.581 63.5144 103.581 63.5344L103.601 63.5313ZM118.264 64.0558L118.314 72.8377C118.418 74.8875 119.039 76.936 119.21 78.9876C119.38 80.9342 119.22 82.8816 119.252 84.8275C119.253 85.2205 119.392 85.6142 119.447 86.007C119.644 87.3526 120.004 88.6987 120.037 90.0456L119.919 98.1239C119.921 98.9654 120.007 99.8045 120.173 100.629C120.34 101.437 121.113 101.787 122.133 101.785C123.18 101.782 123.729 101.325 123.894 100.58C124.166 99.3577 124.548 98.1347 124.629 96.9125C124.709 96.0423 124.321 95.1533 124.262 94.2634L123.525 85.2352L123.088 76.0602L122.496 70.0346C122.436 68.0878 122.706 66.1611 122.84 64.2138C122.866 63.7167 123.085 63.1152 122.781 62.7139C122.422 62.1968 121.732 61.6604 121.042 61.4961C120.105 61.2704 119.223 61.6865 118.866 62.4014C118.619 62.899 118.594 63.458 118.457 63.9974C118.402 64.0175 118.357 64.0376 118.264 64.0378L118.264 64.0558ZM147.322 67.8575L146.924 62.9285C146.783 61.9548 145.762 61.5853 144.606 61.7341C143.448 61.8609 142.871 62.4013 142.91 63.4162C142.969 65.2801 142.781 67.1445 142.758 69.0296C142.735 71.0176 142.492 73.0482 142.8 75.0155C143.304 78.2143 142.512 81.4162 142.989 84.6151C143.185 85.8366 142.665 87.1219 142.558 88.3861C142.477 89.2143 142.479 90.0643 142.509 90.8923L142.736 93.8317L143.026 99.331C143.082 99.8909 143.387 100.614 143.912 100.924C144.38 101.193 145.4 101.148 146.034 100.959C146.473 100.834 146.886 100.232 146.913 99.8386C146.966 98.8235 146.715 97.7891 146.713 96.7741L146.838 91.9268L146.879 85.6297L147.225 80.8438C147.249 79.5807 147.053 78.3172 147.05 77.0442L147.178 72.8599L147.166 67.8479C147.22 67.8349 147.276 67.8277 147.332 67.8265L147.322 67.8575ZM111.954 64.6511L111.662 69.1258C111.637 70.5959 111.769 72.0656 111.865 73.5373L112.092 76.4768C112.094 77.0148 111.875 77.5543 111.848 78.0934L111.834 83.5204L111.46 88.4094L111.384 91.2266L111.422 95.1825C111.45 95.8864 111.618 96.612 111.702 97.3148L111.874 99.6744C111.958 100.689 112.869 101.308 114.109 101.243C115.294 101.178 115.844 100.679 115.869 99.6437L115.978 86.7814L115.802 82.5978L115.983 77.6274L116.003 74.2513L115.98 64.7444C115.978 64.1244 115.839 63.5227 115.673 62.9221C115.394 61.9698 114.402 61.7852 113.327 61.8918C112.225 61.9984 111.649 62.5158 111.815 63.4284C111.899 63.8222 111.817 64.2564 111.818 64.6504C111.873 64.6303 111.901 64.6502 111.956 64.6501L111.954 64.6511ZM317.893 81.7269C317.721 79.5313 317.523 77.8128 316.199 76.231C314.872 74.6392 312.776 73.8792 310.625 73.2614C309.439 72.9343 308.582 72.1064 307.04 72.2551C303.815 72.5629 300.896 73.078 298.366 74.8441C296.027 76.4658 294.074 78.1475 293.667 80.5725C293.531 81.4008 293.588 82.3127 293.811 83.1402C294.923 87.1555 297.796 90.1935 303.118 91.5177C305.876 92.194 308.687 92.0842 311.44 90.8555C314.111 89.6691 315.65 87.8833 316.775 85.9426C317.571 84.5107 317.594 82.8546 317.895 81.7349L317.893 81.7269ZM307.441 90.4922C304.521 90.4373 302.065 89.8852 300.382 88.8523C297.263 86.9128 295.603 84.3688 295.541 81.324C295.512 80.454 295.729 79.4595 296.334 78.754C297.599 77.281 299.112 75.9093 301.258 75.0341C303.709 74.0552 306.103 72.9094 308.864 74.4777C309.002 74.5394 309.222 74.4968 309.387 74.5594C310.711 74.9702 312.189 75.2367 313.304 75.876C315.485 77.1547 316.041 79.2244 315.935 81.0896C315.804 83.74 315.011 86.4149 312.353 88.4723C310.923 89.5938 309.161 90.365 307.452 90.4842L307.441 90.4922ZM49.0513 81.9013L49.9074 82.7693L55.5428 88.3177L62.3104 94.7433L68.4223 99.6585C69.0295 100.154 69.5819 100.733 70.2998 101.104C70.6583 101.31 71.347 101.163 71.898 101.183C71.8701 100.81 71.979 100.375 71.7303 100.086C71.259 99.5267 70.6248 99.0322 70.0466 98.5366L63.391 92.9187C59.9385 89.82 56.5958 86.6591 53.2542 83.4982C52.5355 82.8169 51.9546 82.0313 51.209 81.3701C50.9605 81.1637 50.3084 81.1243 49.8586 81.2074C49.6107 81.27 49.3896 81.6225 49.0603 81.8923L49.0513 81.9013ZM89.2902 83.036C89.6755 82.7651 90.2261 82.5777 90.2805 82.3296C90.3346 81.9775 90.1964 81.4798 89.8918 81.2105L84.6728 76.7081L77.5188 70.0974L72.7692 66.1109C72.1609 65.5944 71.7464 64.9534 71.1112 64.4789C70.8077 64.2517 70.2106 64.2311 69.7323 64.1303C69.5952 64.5036 69.1845 65.0316 69.377 65.2491C70.372 66.4687 71.423 67.6882 72.6097 68.8043L79.3763 74.8579L87.0922 81.3843C87.5331 81.7562 87.8942 82.2104 88.3351 82.5813C88.5555 82.7468 88.9137 82.8499 89.3002 83.035L89.2902 83.036Z" fill="#D98B30" fill-opacity="0.1"/>
<g filter="url(#filter1_f_4_27)">
<rect x="10" y="10" width="825" height="100" fill="black" fill-opacity="0.2"/>
</g>
</g>
<defs>
<filter id="filter0_f_4_27" x="9" y="9" width="827" height="102" filterUnits="userSpaceOnUse" color-interpolation-filters="sRGB">
<feFlood flood-opacity="0" result="BackgroundImageFix"/>
<feBlend mode="normal" in="SourceGraphic" in2="BackgroundImageFix" result="shape"/>
<feGaussianBlur stdDeviation="0.5" result="effect1_foregroundBlur_4_27"/>
</filter>
<filter id="filter1_f_4_27" x="0" y="0" width="845" height="120" filterUnits="userSpaceOnUse" color-interpolation-filters="sRGB">
<feFlood flood-opacity="0" result="BackgroundImageFix"/>
<feBlend mode="normal" in="SourceGraphic" in2="BackgroundImageFix" result="shape"/>
<feGaussianBlur stdDeviation="5" result="effect1_foregroundBlur_4_27"/>
</filter>
</defs>
</svg>
