<svg width="109" height="38" viewBox="0 0 109 38" fill="none" xmlns="http://www.w3.org/2000/svg">
<path d="M8.99414 9.60938H11.001L19.5996 30H16.5527L14.4873 24.873H5.43457L3.38379 30H0.395508L8.99414 9.60938ZM13.5498 22.5293L9.97559 13.5938L6.38672 22.5293H13.5498ZM32.9561 10.4004C32.6045 10.2832 32.1162 10.2246 31.4912 10.2246C30.8662 10.2246 30.3682 10.2832 29.9971 10.4004C29.6357 10.5176 29.3477 10.6885 29.1328 10.9131C28.7617 11.3135 28.5762 11.9678 28.5762 12.876V14.8828H32.3555V17.124H28.5762V30H25.6465V17.124H23.8301V15.7471L25.6465 14.8828V13.2715C25.6465 12.2461 25.7344 11.4746 25.9102 10.957C26.0957 10.4395 26.3154 10.0098 26.5693 9.66797C26.8232 9.32617 27.165 9.02832 27.5947 8.77441C28.5029 8.2373 29.7773 7.96875 31.418 7.96875C32.1016 7.96875 32.6143 8.00781 32.9561 8.08594V10.4004ZM47.9092 17.5635C47.3721 17.4072 46.7275 17.3291 45.9756 17.3291C45.2334 17.3291 44.623 17.4072 44.1445 17.5635C43.666 17.71 43.2461 17.8906 42.8848 18.1055C42.2207 18.4961 41.7373 18.9355 41.4346 19.4238V30H38.5049V14.8828H41.3174L41.4346 16.9775C42.167 16.0596 43.2363 15.3711 44.6426 14.9121C45.1504 14.7363 45.7314 14.6484 46.3857 14.6484C47.04 14.6484 47.5479 14.6973 47.9092 14.7949V17.5635ZM57.2227 10.4883C57.2227 11.0449 57.0371 11.4746 56.666 11.7773C56.3047 12.0703 55.8506 12.2168 55.3037 12.2168C54.7568 12.2168 54.3027 12.0703 53.9414 11.7773C53.5898 11.4746 53.4141 11.0449 53.4141 10.4883C53.4141 9.92187 53.5898 9.49219 53.9414 9.19922C54.3027 8.90625 54.7568 8.75977 55.3037 8.75977C55.8506 8.75977 56.3047 8.90625 56.666 9.19922C57.0371 9.49219 57.2227 9.92187 57.2227 10.4883ZM53.7949 14.8828H56.7246V30H53.7949V14.8828ZM64.5586 8.21777H67.4883V21.6504L73.6113 14.8828H77.0977L70.5791 21.7383L77.4346 30H73.8604L67.4883 22.2949V30H64.5586V8.21777ZM83.0127 27.3047C82.6904 26.748 82.4316 26.0938 82.2363 25.3418C82.0508 24.5898 81.958 23.6084 81.958 22.3975C81.958 21.1865 82.2168 20.0732 82.7344 19.0576C83.2617 18.0322 83.9453 17.1924 84.7852 16.5381C86.416 15.2783 88.4424 14.6484 90.8643 14.6484C92.124 14.6484 93.0762 14.6777 93.7207 14.7363C93.7207 14.7363 94.1943 14.7852 95.1416 14.8828V30H92.5049L92.3877 28.2568C91.8018 29.0381 90.9082 29.6191 89.707 30C89.248 30.1465 88.7744 30.2197 88.2861 30.2197C87.8076 30.2197 87.334 30.1709 86.8652 30.0732C86.3965 29.9756 85.9277 29.8145 85.459 29.5898C85 29.3652 84.5605 29.0674 84.1406 28.6963C83.7207 28.3154 83.3447 27.8516 83.0127 27.3047ZM92.2119 17.0361C91.5869 16.958 90.9619 16.9189 90.3369 16.9189C89.7217 16.9189 89.0625 17.0312 88.3594 17.2559C87.6562 17.4707 87.0557 17.8125 86.5576 18.2812C85.5225 19.2578 85.0049 20.7471 85.0049 22.749C85.0049 24.6436 85.4492 26.0449 86.3379 26.9531C87.0117 27.627 87.8223 27.9639 88.7695 27.9639C89.9902 27.9639 90.9961 27.5195 91.7871 26.6309C91.9824 26.4062 92.124 26.2061 92.2119 26.0303V17.0361ZM104.309 30.3662C103.723 30.3662 103.234 30.21 102.844 29.8975C102.463 29.5752 102.272 29.1162 102.272 28.5205C102.272 27.915 102.463 27.4512 102.844 27.1289C103.234 26.8066 103.723 26.6455 104.309 26.6455C104.904 26.6455 105.397 26.8066 105.788 27.1289C106.179 27.4512 106.374 27.915 106.374 28.5205C106.374 29.1162 106.179 29.5752 105.788 29.8975C105.397 30.21 104.904 30.3662 104.309 30.3662Z" fill="#E5E5E5"/>
<path d="M8.99414 9.60938V7.60938H7.66698L7.15129 8.83225L8.99414 9.60938ZM11.001 9.60938L12.8438 8.83225L12.3281 7.60938H11.001V9.60938ZM19.5996 30V32H22.6136L21.4425 29.2229L19.5996 30ZM16.5527 30L14.6976 30.7473L15.2023 32H16.5527V30ZM14.4873 24.873L16.3424 24.1257L15.8378 22.873H14.4873V24.873ZM5.43457 24.873V22.873H4.0805L3.57762 24.1303L5.43457 24.873ZM3.38379 30V32H4.73785L5.24074 30.7428L3.38379 30ZM0.395508 30L-1.44734 29.2229L-2.61844 32H0.395508V30ZM13.5498 22.5293V24.5293H16.5039L15.4068 21.7865L13.5498 22.5293ZM9.97559 13.5938L11.8325 12.851L9.97938 8.21808L8.11968 12.8483L9.97559 13.5938ZM6.38672 22.5293L4.53082 21.7839L3.42815 24.5293H6.38672V22.5293ZM8.99414 11.6094H11.001V7.60938H8.99414V11.6094ZM9.15813 10.3865L17.7568 30.7771L21.4425 29.2229L12.8438 8.83225L9.15813 10.3865ZM19.5996 28H16.5527V32H19.5996V28ZM18.4079 29.2527L16.3424 24.1257L12.6322 25.6204L14.6976 30.7473L18.4079 29.2527ZM14.4873 22.873H5.43457V26.873H14.4873V22.873ZM3.57762 24.1303L1.52684 29.2572L5.24074 30.7428L7.29152 25.6158L3.57762 24.1303ZM3.38379 28H0.395508V32H3.38379V28ZM2.23835 30.7771L10.837 10.3865L7.15129 8.83225L-1.44734 29.2229L2.23835 30.7771ZM15.4068 21.7865L11.8325 12.851L8.11863 14.3365L11.6929 23.2721L15.4068 21.7865ZM8.11968 12.8483L4.53082 21.7839L8.24262 23.2747L11.8315 14.3392L8.11968 12.8483ZM6.38672 24.5293H13.5498V20.5293H6.38672V24.5293ZM32.9561 10.4004L32.3236 12.2978L34.9561 13.1752V10.4004H32.9561ZM29.9971 10.4004L29.3948 8.49323L29.3874 8.49556L29.3801 8.49794L29.9971 10.4004ZM29.1328 10.9131L27.6875 9.53064L27.6767 9.54201L27.666 9.55356L29.1328 10.9131ZM28.5762 14.8828H26.5762V16.8828H28.5762V14.8828ZM32.3555 14.8828H34.3555V12.8828H32.3555V14.8828ZM32.3555 17.124V19.124H34.3555V17.124H32.3555ZM28.5762 17.124V15.124H26.5762V17.124H28.5762ZM28.5762 30V32H30.5762V30H28.5762ZM25.6465 30H23.6465V32H25.6465V30ZM25.6465 17.124H27.6465V15.124H25.6465V17.124ZM23.8301 17.124H21.8301V19.124H23.8301V17.124ZM23.8301 15.7471L22.9708 13.9411L21.8301 14.4838V15.7471H23.8301ZM25.6465 14.8828L26.5058 16.6888L27.6465 16.1461V14.8828H25.6465ZM25.9102 10.957L24.0275 10.2821L24.0218 10.2979L24.0164 10.3139L25.9102 10.957ZM26.5693 9.66797L28.1748 10.8606L26.5693 9.66797ZM27.5947 8.77441L28.6122 10.4963L28.6128 10.4959L27.5947 8.77441ZM32.9561 8.08594H34.9561V6.4915L33.4017 6.13622L32.9561 8.08594ZM33.5885 8.50302C32.9404 8.28698 32.2049 8.22461 31.4912 8.22461V12.2246C32.0275 12.2246 32.2686 12.2794 32.3236 12.2978L33.5885 8.50302ZM31.4912 8.22461C30.7698 8.22461 30.0422 8.28879 29.3948 8.49323L30.5993 12.3076C30.6941 12.2776 30.9626 12.2246 31.4912 12.2246V8.22461ZM29.3801 8.49794C28.7731 8.69481 28.1767 9.01925 27.6875 9.53064L30.5781 12.2955C30.5648 12.3094 30.553 12.3197 30.544 12.3268C30.5351 12.3338 30.53 12.3368 30.5304 12.3366C30.5315 12.3359 30.5558 12.3217 30.6141 12.3028L29.3801 8.49794ZM27.666 9.55356C26.7863 10.5026 26.5762 11.7767 26.5762 12.876H30.5762C30.5762 12.5488 30.6106 12.3514 30.6395 12.2497C30.6669 12.1531 30.6749 12.1915 30.5997 12.2726L27.666 9.55356ZM26.5762 12.876V14.8828H30.5762V12.876H26.5762ZM28.5762 16.8828H32.3555V12.8828H28.5762V16.8828ZM30.3555 14.8828V17.124H34.3555V14.8828H30.3555ZM32.3555 15.124H28.5762V19.124H32.3555V15.124ZM26.5762 17.124V30H30.5762V17.124H26.5762ZM28.5762 28H25.6465V32H28.5762V28ZM27.6465 30V17.124H23.6465V30H27.6465ZM25.6465 15.124H23.8301V19.124H25.6465V15.124ZM25.8301 17.124V15.7471H21.8301V17.124H25.8301ZM24.6894 17.5531L26.5058 16.6888L24.7872 13.0768L22.9708 13.9411L24.6894 17.5531ZM27.6465 14.8828V13.2715H23.6465V14.8828H27.6465ZM27.6465 13.2715C27.6465 12.3084 27.7355 11.8016 27.8039 11.6002L24.0164 10.3139C23.7332 11.1476 23.6465 12.1838 23.6465 13.2715H27.6465ZM27.7928 11.632C27.9302 11.2487 28.0667 11.0062 28.1748 10.8606L24.9638 8.47532C24.5642 9.01335 24.2612 9.63018 24.0275 10.2821L27.7928 11.632ZM28.1748 10.8606C28.245 10.7662 28.3729 10.6377 28.6122 10.4963L26.5773 7.05256C25.9572 7.41895 25.4015 7.88619 24.9638 8.47532L28.1748 10.8606ZM28.6128 10.4959C29.0869 10.2155 29.9538 9.96875 31.418 9.96875V5.96875C29.6009 5.96875 27.919 6.25908 26.5766 7.05293L28.6128 10.4959ZM31.418 9.96875C32.0647 9.96875 32.3945 10.0092 32.5104 10.0357L33.4017 6.13622C32.834 6.00646 32.1384 5.96875 31.418 5.96875V9.96875ZM30.9561 8.08594V10.4004H34.9561V8.08594H30.9561ZM47.9092 17.5635L47.3505 19.4839L49.9092 20.2282V17.5635H47.9092ZM44.1445 17.5635L44.73 19.4759L44.7477 19.4704L44.7653 19.4647L44.1445 17.5635ZM42.8848 18.1055L43.8988 19.8294L43.9069 19.8245L42.8848 18.1055ZM41.4346 19.4238L39.7348 18.3699L39.4346 18.8541V19.4238H41.4346ZM41.4346 30V32H43.4346V30H41.4346ZM38.5049 30H36.5049V32H38.5049V30ZM38.5049 14.8828V12.8828H36.5049V14.8828H38.5049ZM41.3174 14.8828L43.3143 14.7711L43.2086 12.8828H41.3174V14.8828ZM41.4346 16.9775L39.4377 17.0893L39.7303 22.3203L42.9979 18.2249L41.4346 16.9775ZM44.6426 14.9121L45.2631 16.8134L45.28 16.8079L45.2968 16.8021L44.6426 14.9121ZM47.9092 14.7949H49.9092V13.2637L48.431 12.8642L47.9092 14.7949ZM48.4678 15.6431C47.6991 15.4194 46.8561 15.3291 45.9756 15.3291V19.3291C46.599 19.3291 47.0451 19.395 47.3505 19.4839L48.4678 15.6431ZM45.9756 15.3291C45.1128 15.3291 44.2735 15.4175 43.5237 15.6623L44.7653 19.4647C44.9726 19.397 45.354 19.3291 45.9756 19.3291V15.3291ZM43.5591 15.6511C42.9558 15.8358 42.3844 16.0762 41.8626 16.3864L43.9069 19.8245C44.1078 19.7051 44.3762 19.5842 44.73 19.4759L43.5591 15.6511ZM41.8707 16.3816C41.0184 16.883 40.2566 17.5283 39.7348 18.3699L43.1344 20.4777C43.218 20.3428 43.423 20.1092 43.8988 19.8293L41.8707 16.3816ZM39.4346 19.4238V30H43.4346V19.4238H39.4346ZM41.4346 28H38.5049V32H41.4346V28ZM40.5049 30V14.8828H36.5049V30H40.5049ZM38.5049 16.8828H41.3174V12.8828H38.5049V16.8828ZM39.3205 14.9945L39.4377 17.0893L43.4314 16.8658L43.3143 14.7711L39.3205 14.9945ZM42.9979 18.2249C43.4304 17.6828 44.1321 17.1826 45.2631 16.8134L44.022 13.0108C42.3406 13.5596 40.9036 14.4363 39.8712 15.7302L42.9979 18.2249ZM45.2968 16.8021C45.5541 16.713 45.9073 16.6484 46.3857 16.6484V12.6484C45.5556 12.6484 44.7467 12.7596 43.9884 13.0221L45.2968 16.8021ZM46.3857 16.6484C46.9742 16.6484 47.2772 16.6959 47.3874 16.7256L48.431 12.8642C47.8185 12.6987 47.1059 12.6484 46.3857 12.6484V16.6484ZM45.9092 14.7949V17.5635H49.9092V14.7949H45.9092ZM56.666 11.7773L57.9256 13.3309L57.9303 13.3271L56.666 11.7773ZM53.9414 11.7773L52.6364 13.2929L52.6588 13.3122L52.6818 13.3309L53.9414 11.7773ZM53.9414 9.19922L52.6818 7.64571L52.6714 7.65417L52.661 7.66278L53.9414 9.19922ZM56.666 9.19922L55.4064 10.7527L55.4165 10.7609L55.4267 10.769L56.666 9.19922ZM53.7949 14.8828V12.8828H51.7949V14.8828H53.7949ZM56.7246 14.8828H58.7246V12.8828H56.7246V14.8828ZM56.7246 30V32H58.7246V30H56.7246ZM53.7949 30H51.7949V32H53.7949V30ZM55.2227 10.4883C55.2227 10.5447 55.2136 10.5134 55.2474 10.4352C55.264 10.3968 55.2873 10.3558 55.3172 10.3163C55.3471 10.2771 55.3772 10.2477 55.4018 10.2276L57.9303 13.3271C58.8454 12.5806 59.2227 11.5367 59.2227 10.4883H55.2227ZM55.4064 10.2238C55.4126 10.2188 55.4204 10.2135 55.4288 10.209C55.4371 10.2045 55.4417 10.2031 55.4404 10.2035C55.4384 10.2042 55.3986 10.2168 55.3037 10.2168V14.2168C56.225 14.2168 57.1477 13.9616 57.9256 13.3309L55.4064 10.2238ZM55.3037 10.2168C55.2088 10.2168 55.1691 10.2042 55.167 10.2035C55.1657 10.2031 55.1703 10.2045 55.1786 10.209C55.187 10.2135 55.1949 10.2188 55.201 10.2238L52.6818 13.3309C53.4597 13.9616 54.3824 14.2168 55.3037 14.2168V10.2168ZM55.2465 10.2618C55.2745 10.2859 55.3051 10.3181 55.3338 10.3579C55.3624 10.3976 55.3831 10.4368 55.397 10.4708C55.4249 10.539 55.4141 10.5574 55.4141 10.4883H51.4141C51.4141 11.4996 51.7553 12.5342 52.6364 13.2929L55.2465 10.2618ZM55.4141 10.4883C55.4141 10.4092 55.4265 10.4264 55.397 10.4985C55.3821 10.5349 55.3592 10.5785 55.3263 10.6235C55.2933 10.6687 55.2569 10.7064 55.2218 10.7357L52.661 7.66278C51.747 8.42443 51.4141 9.4824 51.4141 10.4883H55.4141ZM55.201 10.7527C55.1949 10.7577 55.187 10.763 55.1786 10.7676C55.1703 10.772 55.1657 10.7735 55.167 10.773C55.1691 10.7724 55.2088 10.7598 55.3037 10.7598V6.75977C54.3824 6.75977 53.4597 7.01497 52.6818 7.64571L55.201 10.7527ZM55.3037 10.7598C55.3986 10.7598 55.4384 10.7724 55.4404 10.773C55.4417 10.7735 55.4371 10.772 55.4288 10.7676C55.4204 10.763 55.4126 10.7577 55.4064 10.7527L57.9256 7.64571C57.1477 7.01497 56.225 6.75977 55.3037 6.75977V10.7598ZM55.4267 10.769C55.3953 10.7441 55.3594 10.7096 55.3251 10.665C55.2907 10.6204 55.2651 10.5751 55.2474 10.5341C55.2118 10.4518 55.2227 10.4217 55.2227 10.4883H59.2227C59.2227 9.44482 58.8537 8.37817 57.9053 7.62945L55.4267 10.769ZM53.7949 16.8828H56.7246V12.8828H53.7949V16.8828ZM54.7246 14.8828V30H58.7246V14.8828H54.7246ZM56.7246 28H53.7949V32H56.7246V28ZM55.7949 30V14.8828H51.7949V30H55.7949ZM64.5586 8.21777V6.21777H62.5586V8.21777H64.5586ZM67.4883 8.21777H69.4883V6.21777H67.4883V8.21777ZM67.4883 21.6504H65.4883V26.8419L68.9714 22.9922L67.4883 21.6504ZM73.6113 14.8828V12.8828H72.7237L72.1283 13.541L73.6113 14.8828ZM77.0977 14.8828L78.547 16.261L81.7592 12.8828H77.0977V14.8828ZM70.5791 21.7383L69.1297 20.3601L67.9052 21.6479L69.04 23.0154L70.5791 21.7383ZM77.4346 30V32H81.693L78.9737 28.7229L77.4346 30ZM73.8604 30L72.3191 31.2746L72.919 32H73.8604V30ZM67.4883 22.2949L69.0295 21.0203L65.4883 16.7383V22.2949H67.4883ZM67.4883 30V32H69.4883V30H67.4883ZM64.5586 30H62.5586V32H64.5586V30ZM64.5586 10.2178H67.4883V6.21777H64.5586V10.2178ZM65.4883 8.21777V21.6504H69.4883V8.21777H65.4883ZM68.9714 22.9922L75.0944 16.2246L72.1283 13.541L66.0052 20.3086L68.9714 22.9922ZM73.6113 16.8828H77.0977V12.8828H73.6113V16.8828ZM75.6483 13.5047L69.1297 20.3601L72.0285 23.1164L78.547 16.261L75.6483 13.5047ZM69.04 23.0154L75.8954 31.2771L78.9737 28.7229L72.1182 20.4611L69.04 23.0154ZM77.4346 28H73.8604V32H77.4346V28ZM75.4016 28.7254L69.0295 21.0203L65.947 23.5695L72.3191 31.2746L75.4016 28.7254ZM65.4883 22.2949V30H69.4883V22.2949H65.4883ZM67.4883 28H64.5586V32H67.4883V28ZM66.5586 30V8.21777H62.5586V30H66.5586ZM83.0127 27.3047L81.2818 28.3068L81.2923 28.3248L81.3031 28.3426L83.0127 27.3047ZM82.2363 25.3418L80.2946 25.8209L80.2975 25.8328L80.3006 25.8446L82.2363 25.3418ZM82.7344 19.0576L80.9558 18.1429L80.9524 18.1495L82.7344 19.0576ZM84.7852 16.5381L83.5625 14.9553L83.556 14.9604L84.7852 16.5381ZM93.7207 14.7363L93.9258 12.7469L93.9138 12.7456L93.9018 12.7445L93.7207 14.7363ZM95.1416 14.8828H97.1416V13.0784L95.3467 12.8934L95.1416 14.8828ZM95.1416 30V32H97.1416V30H95.1416ZM92.5049 30L90.5094 30.1342L90.6348 32H92.5049V30ZM92.3877 28.2568L94.3832 28.1227L94.0217 22.7449L90.7877 27.0568L92.3877 28.2568ZM89.707 30L89.1025 28.0935L89.099 28.0947L89.707 30ZM85.459 29.5898L84.5799 31.3863L84.5873 31.3899L84.5947 31.3935L85.459 29.5898ZM84.1406 28.6963L82.797 30.1777L82.8066 30.1864L82.8162 30.1949L84.1406 28.6963ZM92.2119 17.0361H94.2119V15.2706L92.46 15.0516L92.2119 17.0361ZM88.3594 17.2559L88.9438 19.1686L88.9559 19.1649L88.968 19.161L88.3594 17.2559ZM86.5576 18.2812L85.1869 16.8248L85.1852 16.8265L86.5576 18.2812ZM86.3379 26.9531L84.9084 28.3519L84.916 28.3597L84.9237 28.3673L86.3379 26.9531ZM91.7871 26.6309L93.281 27.9606L93.2887 27.952L93.2963 27.9432L91.7871 26.6309ZM92.2119 26.0303L94.0008 26.9247L94.2119 26.5024V26.0303H92.2119ZM84.7435 26.3026C84.5283 25.9308 84.3311 25.451 84.1721 24.839L80.3006 25.8446C80.5322 26.7365 80.8526 27.5653 81.2818 28.3068L84.7435 26.3026ZM84.1781 24.8627C84.0465 24.3295 83.958 23.5266 83.958 22.3975H79.958C79.958 23.6902 80.055 24.8502 80.2946 25.8209L84.1781 24.8627ZM83.958 22.3975C83.958 21.482 84.151 20.6826 84.5163 19.9657L80.9524 18.1495C80.2826 19.4638 79.958 20.8911 79.958 22.3975H83.958ZM84.513 19.9723C84.9187 19.1834 85.4221 18.5772 86.0143 18.1158L83.556 14.9604C82.4685 15.8076 81.6048 16.881 80.9558 18.1429L84.513 19.9723ZM86.0078 18.1209C87.2297 17.177 88.8043 16.6484 90.8643 16.6484V12.6484C88.0805 12.6484 85.6024 13.3796 83.5625 14.9553L86.0078 18.1209ZM90.8643 16.6484C92.1087 16.6484 92.9878 16.6779 93.5396 16.7281L93.9018 12.7445C93.1645 12.6775 92.1393 12.6484 90.8643 12.6484V16.6484ZM93.7207 14.7363C93.5156 16.7258 93.5156 16.7258 93.5156 16.7258C93.5156 16.7258 93.5156 16.7258 93.5156 16.7258C93.5156 16.7258 93.5156 16.7258 93.5157 16.7258C93.5157 16.7258 93.5157 16.7258 93.5157 16.7258C93.5157 16.7258 93.5157 16.7258 93.5157 16.7258C93.5158 16.7258 93.5158 16.7258 93.5158 16.7258C93.5158 16.7258 93.5158 16.7258 93.5159 16.7258C93.5159 16.7258 93.5159 16.7258 93.516 16.7258C93.516 16.7258 93.516 16.7258 93.516 16.7258C93.5161 16.7258 93.5161 16.7258 93.5161 16.7258C93.5162 16.7258 93.5162 16.7258 93.5163 16.7259C93.5163 16.7259 93.5163 16.7259 93.5164 16.7259C93.5164 16.7259 93.5165 16.7259 93.5165 16.7259C93.5166 16.7259 93.5166 16.7259 93.5167 16.7259C93.5167 16.7259 93.5168 16.7259 93.5168 16.7259C93.5169 16.7259 93.5169 16.7259 93.517 16.7259C93.517 16.7259 93.5171 16.7259 93.5172 16.7259C93.5172 16.726 93.5173 16.726 93.5174 16.726C93.5174 16.726 93.5175 16.726 93.5176 16.726C93.5176 16.726 93.5177 16.726 93.5178 16.726C93.5178 16.726 93.5179 16.726 93.518 16.726C93.5181 16.726 93.5181 16.726 93.5182 16.7261C93.5183 16.7261 93.5184 16.7261 93.5185 16.7261C93.5186 16.7261 93.5186 16.7261 93.5187 16.7261C93.5188 16.7261 93.5189 16.7261 93.519 16.7261C93.5191 16.7261 93.5192 16.7262 93.5193 16.7262C93.5194 16.7262 93.5195 16.7262 93.5196 16.7262C93.5197 16.7262 93.5198 16.7262 93.5199 16.7262C93.52 16.7262 93.5201 16.7262 93.5202 16.7263C93.5203 16.7263 93.5204 16.7263 93.5205 16.7263C93.5206 16.7263 93.5207 16.7263 93.5208 16.7263C93.5209 16.7263 93.521 16.7263 93.5212 16.7264C93.5213 16.7264 93.5214 16.7264 93.5215 16.7264C93.5216 16.7264 93.5217 16.7264 93.5219 16.7264C93.522 16.7264 93.5221 16.7265 93.5222 16.7265C93.5224 16.7265 93.5225 16.7265 93.5226 16.7265C93.5228 16.7265 93.5229 16.7265 93.523 16.7265C93.5232 16.7266 93.5233 16.7266 93.5234 16.7266C93.5236 16.7266 93.5237 16.7266 93.5238 16.7266C93.524 16.7266 93.5241 16.7267 93.5243 16.7267C93.5244 16.7267 93.5246 16.7267 93.5247 16.7267C93.5249 16.7267 93.525 16.7268 93.5252 16.7268C93.5253 16.7268 93.5255 16.7268 93.5256 16.7268C93.5258 16.7268 93.5259 16.7268 93.5261 16.7269C93.5263 16.7269 93.5264 16.7269 93.5266 16.7269C93.5267 16.7269 93.5269 16.7269 93.5271 16.727C93.5272 16.727 93.5274 16.727 93.5276 16.727C93.5277 16.727 93.5279 16.7271 93.5281 16.7271C93.5283 16.7271 93.5284 16.7271 93.5286 16.7271C93.5288 16.7271 93.529 16.7272 93.5292 16.7272C93.5293 16.7272 93.5295 16.7272 93.5297 16.7272C93.5299 16.7273 93.5301 16.7273 93.5303 16.7273C93.5304 16.7273 93.5306 16.7273 93.5308 16.7274C93.531 16.7274 93.5312 16.7274 93.5314 16.7274C93.5316 16.7274 93.5318 16.7275 93.532 16.7275C93.5322 16.7275 93.5324 16.7275 93.5326 16.7275C93.5328 16.7276 93.533 16.7276 93.5332 16.7276C93.5334 16.7276 93.5336 16.7276 93.5338 16.7277C93.534 16.7277 93.5343 16.7277 93.5345 16.7277C93.5347 16.7278 93.5349 16.7278 93.5351 16.7278C93.5353 16.7278 93.5356 16.7278 93.5358 16.7279C93.536 16.7279 93.5362 16.7279 93.5364 16.7279C93.5367 16.728 93.5369 16.728 93.5371 16.728C93.5373 16.728 93.5376 16.728 93.5378 16.7281C93.538 16.7281 93.5383 16.7281 93.5385 16.7281C93.5387 16.7282 93.539 16.7282 93.5392 16.7282C93.5395 16.7282 93.5397 16.7283 93.5399 16.7283C93.5402 16.7283 93.5404 16.7283 93.5407 16.7284C93.5409 16.7284 93.5412 16.7284 93.5414 16.7284C93.5417 16.7285 93.5419 16.7285 93.5422 16.7285C93.5424 16.7285 93.5427 16.7286 93.5429 16.7286C93.5432 16.7286 93.5434 16.7287 93.5437 16.7287C93.544 16.7287 93.5442 16.7287 93.5445 16.7288C93.5448 16.7288 93.545 16.7288 93.5453 16.7288C93.5456 16.7289 93.5458 16.7289 93.5461 16.7289C93.5464 16.729 93.5466 16.729 93.5469 16.729C93.5472 16.729 93.5475 16.7291 93.5477 16.7291C93.548 16.7291 93.5483 16.7292 93.5486 16.7292C93.5489 16.7292 93.5491 16.7292 93.5494 16.7293C93.5497 16.7293 93.55 16.7293 93.5503 16.7294C93.5506 16.7294 93.5509 16.7294 93.5512 16.7295C93.5515 16.7295 93.5518 16.7295 93.5521 16.7295C93.5523 16.7296 93.5526 16.7296 93.5529 16.7296C93.5532 16.7297 93.5535 16.7297 93.5539 16.7297C93.5542 16.7298 93.5545 16.7298 93.5548 16.7298C93.5551 16.7299 93.5554 16.7299 93.5557 16.7299C93.556 16.7299 93.5563 16.73 93.5566 16.73C93.5569 16.73 93.5573 16.7301 93.5576 16.7301C93.5579 16.7301 93.5582 16.7302 93.5585 16.7302C93.5589 16.7302 93.5592 16.7303 93.5595 16.7303C93.5598 16.7303 93.5602 16.7304 93.5605 16.7304C93.5608 16.7304 93.5611 16.7305 93.5615 16.7305C93.5618 16.7305 93.5621 16.7306 93.5625 16.7306C93.5628 16.7307 93.5632 16.7307 93.5635 16.7307C93.5638 16.7308 93.5642 16.7308 93.5645 16.7308C93.5649 16.7309 93.5652 16.7309 93.5656 16.7309C93.5659 16.731 93.5663 16.731 93.5666 16.731C93.567 16.7311 93.5673 16.7311 93.5677 16.7312C93.568 16.7312 93.5684 16.7312 93.5687 16.7313C93.5691 16.7313 93.5694 16.7313 93.5698 16.7314C93.5702 16.7314 93.5705 16.7314 93.5709 16.7315C93.5713 16.7315 93.5716 16.7316 93.572 16.7316C93.5724 16.7316 93.5727 16.7317 93.5731 16.7317C93.5735 16.7318 93.5739 16.7318 93.5742 16.7318C93.5746 16.7319 93.575 16.7319 93.5754 16.7319C93.5757 16.732 93.5761 16.732 93.5765 16.7321C93.5769 16.7321 93.5773 16.7321 93.5777 16.7322C93.578 16.7322 93.5784 16.7323 93.5788 16.7323C93.5792 16.7323 93.5796 16.7324 93.58 16.7324C93.5804 16.7325 93.5808 16.7325 93.5812 16.7325C93.5816 16.7326 93.582 16.7326 93.5824 16.7327C93.5828 16.7327 93.5832 16.7328 93.5836 16.7328C93.584 16.7328 93.5844 16.7329 93.5848 16.7329C93.5852 16.733 93.5856 16.733 93.586 16.733C93.5865 16.7331 93.5869 16.7331 93.5873 16.7332C93.5877 16.7332 93.5881 16.7333 93.5885 16.7333C93.589 16.7333 93.5894 16.7334 93.5898 16.7334C93.5902 16.7335 93.5907 16.7335 93.5911 16.7336C93.5915 16.7336 93.5919 16.7337 93.5924 16.7337C93.5928 16.7337 93.5932 16.7338 93.5937 16.7338C93.5941 16.7339 93.5945 16.7339 93.595 16.734C93.5954 16.734 93.5958 16.7341 93.5963 16.7341C93.5967 16.7341 93.5972 16.7342 93.5976 16.7342C93.5981 16.7343 93.5985 16.7343 93.5989 16.7344C93.5994 16.7344 93.5998 16.7345 93.6003 16.7345C93.6007 16.7346 93.6012 16.7346 93.6017 16.7347C93.6021 16.7347 93.6026 16.7347 93.603 16.7348C93.6035 16.7348 93.6039 16.7349 93.6044 16.7349C93.6049 16.735 93.6053 16.735 93.6058 16.7351C93.6063 16.7351 93.6067 16.7352 93.6072 16.7352C93.6077 16.7353 93.6081 16.7353 93.6086 16.7354C93.6091 16.7354 93.6096 16.7355 93.61 16.7355C93.6105 16.7356 93.611 16.7356 93.6115 16.7357C93.612 16.7357 93.6124 16.7358 93.6129 16.7358C93.6134 16.7359 93.6139 16.7359 93.6144 16.736C93.6149 16.736 93.6154 16.7361 93.6159 16.7361C93.6163 16.7362 93.6168 16.7362 93.6173 16.7363C93.6178 16.7363 93.6183 16.7364 93.6188 16.7364C93.6193 16.7365 93.6198 16.7365 93.6203 16.7366C93.6208 16.7366 93.6213 16.7367 93.6218 16.7367C93.6223 16.7368 93.6229 16.7368 93.6234 16.7369C93.6239 16.7369 93.6244 16.737 93.6249 16.7371C93.6254 16.7371 93.6259 16.7372 93.6264 16.7372C93.627 16.7373 93.6275 16.7373 93.628 16.7374C93.6285 16.7374 93.629 16.7375 93.6296 16.7375C93.6301 16.7376 93.6306 16.7376 93.6311 16.7377C93.6317 16.7377 93.6322 16.7378 93.6327 16.7379C93.6333 16.7379 93.6338 16.738 93.6343 16.738C93.6349 16.7381 93.6354 16.7381 93.6359 16.7382C93.6365 16.7382 93.637 16.7383 93.6376 16.7384C93.6381 16.7384 93.6386 16.7385 93.6392 16.7385C93.6397 16.7386 93.6403 16.7386 93.6408 16.7387C93.6414 16.7388 93.6419 16.7388 93.6425 16.7389C93.643 16.7389 93.6436 16.739 93.6442 16.739C93.6447 16.7391 93.6453 16.7392 93.6458 16.7392C93.6464 16.7393 93.6469 16.7393 93.6475 16.7394C93.6481 16.7394 93.6486 16.7395 93.6492 16.7396C93.6498 16.7396 93.6503 16.7397 93.6509 16.7397C93.6515 16.7398 93.6521 16.7399 93.6526 16.7399C93.6532 16.74 93.6538 16.74 93.6544 16.7401C93.6549 16.7401 93.6555 16.7402 93.6561 16.7403C93.6567 16.7403 93.6573 16.7404 93.6579 16.7404C93.6584 16.7405 93.659 16.7406 93.6596 16.7406C93.6602 16.7407 93.6608 16.7408 93.6614 16.7408C93.662 16.7409 93.6626 16.7409 93.6632 16.741C93.6638 16.7411 93.6644 16.7411 93.665 16.7412C93.6656 16.7412 93.6662 16.7413 93.6668 16.7414C93.6674 16.7414 93.668 16.7415 93.6686 16.7416C93.6692 16.7416 93.6698 16.7417 93.6704 16.7417C93.671 16.7418 93.6716 16.7419 93.6723 16.7419C93.6729 16.742 93.6735 16.7421 93.6741 16.7421C93.6747 16.7422 93.6753 16.7423 93.676 16.7423C93.6766 16.7424 93.6772 16.7424 93.6778 16.7425C93.6785 16.7426 93.6791 16.7426 93.6797 16.7427C93.6803 16.7428 93.681 16.7428 93.6816 16.7429C93.6822 16.743 93.6829 16.743 93.6835 16.7431C93.6841 16.7432 93.6848 16.7432 93.6854 16.7433C93.6861 16.7434 93.6867 16.7434 93.6873 16.7435C93.688 16.7436 93.6886 16.7436 93.6893 16.7437C93.6899 16.7438 93.6906 16.7438 93.6912 16.7439C93.6919 16.744 93.6925 16.744 93.6932 16.7441C93.6938 16.7442 93.6945 16.7442 93.6951 16.7443C93.6958 16.7444 93.6965 16.7444 93.6971 16.7445C93.6978 16.7446 93.6984 16.7446 93.6991 16.7447C93.6998 16.7448 93.7004 16.7448 93.7011 16.7449C93.7018 16.745 93.7025 16.745 93.7031 16.7451C93.7038 16.7452 93.7045 16.7453 93.7051 16.7453C93.7058 16.7454 93.7065 16.7455 93.7072 16.7455C93.7079 16.7456 93.7085 16.7457 93.7092 16.7457C93.7099 16.7458 93.7106 16.7459 93.7113 16.746C93.712 16.746 93.7127 16.7461 93.7133 16.7462C93.714 16.7462 93.7147 16.7463 93.7154 16.7464C93.7161 16.7465 93.7168 16.7465 93.7175 16.7466C93.7182 16.7467 93.7189 16.7467 93.7196 16.7468C93.7203 16.7469 93.721 16.747 93.7217 16.747C93.7224 16.7471 93.7231 16.7472 93.7238 16.7473C93.7245 16.7473 93.7252 16.7474 93.726 16.7475C93.7267 16.7475 93.7274 16.7476 93.7281 16.7477C93.7288 16.7478 93.7295 16.7478 93.7303 16.7479C93.731 16.748 93.7317 16.7481 93.7324 16.7481C93.7331 16.7482 93.7339 16.7483 93.7346 16.7484C93.7353 16.7484 93.736 16.7485 93.7368 16.7486C93.7375 16.7487 93.7382 16.7487 93.739 16.7488C93.7397 16.7489 93.7404 16.749 93.7412 16.749C93.7419 16.7491 93.7427 16.7492 93.7434 16.7493C93.7441 16.7493 93.7449 16.7494 93.7456 16.7495C93.7464 16.7496 93.7471 16.7497 93.7479 16.7497C93.7486 16.7498 93.7494 16.7499 93.7501 16.75C93.7509 16.75 93.7516 16.7501 93.7524 16.7502C93.7531 16.7503 93.7539 16.7503 93.7546 16.7504C93.7554 16.7505 93.7562 16.7506 93.7569 16.7507C93.7577 16.7507 93.7584 16.7508 93.7592 16.7509C93.76 16.751 93.7607 16.7511 93.7615 16.7511C93.7623 16.7512 93.7631 16.7513 93.7638 16.7514C93.7646 16.7515 93.7654 16.7515 93.7662 16.7516C93.7669 16.7517 93.7677 16.7518 93.7685 16.7519C93.7693 16.7519 93.7701 16.752 93.7708 16.7521C93.7716 16.7522 93.7724 16.7523 93.7732 16.7523C93.774 16.7524 93.7748 16.7525 93.7756 16.7526C93.7764 16.7527 93.7772 16.7527 93.7779 16.7528C93.7787 16.7529 93.7795 16.753 93.7803 16.7531C93.7811 16.7532 93.7819 16.7532 93.7827 16.7533C93.7835 16.7534 93.7843 16.7535 93.7852 16.7536C93.786 16.7537 93.7868 16.7537 93.7876 16.7538C93.7884 16.7539 93.7892 16.754 93.79 16.7541C93.7908 16.7542 93.7916 16.7542 93.7925 16.7543C93.7933 16.7544 93.7941 16.7545 93.7949 16.7546C93.7957 16.7547 93.7965 16.7547 93.7974 16.7548C93.7982 16.7549 93.799 16.755 93.7999 16.7551C93.8007 16.7552 93.8015 16.7553 93.8023 16.7553C93.8032 16.7554 93.804 16.7555 93.8048 16.7556C93.8057 16.7557 93.8065 16.7558 93.8073 16.7559C93.8082 16.7559 93.809 16.756 93.8099 16.7561C93.8107 16.7562 93.8116 16.7563 93.8124 16.7564C93.8132 16.7565 93.8141 16.7566 93.8149 16.7566C93.8158 16.7567 93.8166 16.7568 93.8175 16.7569C93.8183 16.757 93.8192 16.7571 93.8201 16.7572C93.8209 16.7573 93.8218 16.7573 93.8226 16.7574C93.8235 16.7575 93.8244 16.7576 93.8252 16.7577C93.8261 16.7578 93.8269 16.7579 93.8278 16.758C93.8287 16.7581 93.8296 16.7581 93.8304 16.7582C93.8313 16.7583 93.8322 16.7584 93.833 16.7585C93.8339 16.7586 93.8348 16.7587 93.8357 16.7588C93.8365 16.7589 93.8374 16.759 93.8383 16.7591C93.8392 16.7591 93.8401 16.7592 93.841 16.7593C93.8418 16.7594 93.8427 16.7595 93.8436 16.7596C93.8445 16.7597 93.8454 16.7598 93.8463 16.7599C93.8472 16.76 93.8481 16.7601 93.849 16.7602C93.8499 16.7602 93.8508 16.7603 93.8517 16.7604C93.8526 16.7605 93.8535 16.7606 93.8544 16.7607C93.8553 16.7608 93.8562 16.7609 93.8571 16.761C93.858 16.7611 93.8589 16.7612 93.8598 16.7613C93.8607 16.7614 93.8616 16.7615 93.8626 16.7616C93.8635 16.7616 93.8644 16.7617 93.8653 16.7618C93.8662 16.7619 93.8671 16.762 93.8681 16.7621C93.869 16.7622 93.8699 16.7623 93.8708 16.7624C93.8718 16.7625 93.8727 16.7626 93.8736 16.7627C93.8745 16.7628 93.8755 16.7629 93.8764 16.763C93.8773 16.7631 93.8783 16.7632 93.8792 16.7633C93.8801 16.7634 93.8811 16.7635 93.882 16.7636C93.883 16.7637 93.8839 16.7638 93.8848 16.7638C93.8858 16.7639 93.8867 16.764 93.8877 16.7641C93.8886 16.7642 93.8896 16.7643 93.8905 16.7644C93.8915 16.7645 93.8924 16.7646 93.8934 16.7647C93.8943 16.7648 93.8953 16.7649 93.8962 16.765C93.8972 16.7651 93.8982 16.7652 93.8991 16.7653C93.9001 16.7654 93.901 16.7655 93.902 16.7656C93.903 16.7657 93.9039 16.7658 93.9049 16.7659C93.9059 16.766 93.9069 16.7661 93.9078 16.7662C93.9088 16.7663 93.9098 16.7664 93.9107 16.7665C93.9117 16.7666 93.9127 16.7667 93.9137 16.7668C93.9147 16.7669 93.9156 16.767 93.9166 16.7671C93.9176 16.7672 93.9186 16.7673 93.9196 16.7674C93.9206 16.7675 93.9215 16.7676 93.9225 16.7677C93.9235 16.7678 93.9245 16.7679 93.9255 16.768C93.9265 16.7681 93.9275 16.7682 93.9285 16.7684C93.9295 16.7685 93.9305 16.7686 93.9315 16.7687C93.9325 16.7688 93.9335 16.7689 93.9345 16.769C93.9355 16.7691 93.9365 16.7692 93.9375 16.7693C93.9385 16.7694 93.9395 16.7695 93.9406 16.7696C93.9416 16.7697 93.9426 16.7698 93.9436 16.7699C93.9446 16.77 93.9456 16.7701 93.9466 16.7702C93.9477 16.7703 93.9487 16.7704 93.9497 16.7705C93.9507 16.7706 93.9518 16.7707 93.9528 16.7709C93.9538 16.771 93.9548 16.7711 93.9559 16.7712C93.9569 16.7713 93.9579 16.7714 93.959 16.7715C93.96 16.7716 93.961 16.7717 93.9621 16.7718C93.9631 16.7719 93.9641 16.772 93.9652 16.7721C93.9662 16.7722 93.9673 16.7723 93.9683 16.7725C93.9694 16.7726 93.9704 16.7727 93.9715 16.7728C93.9725 16.7729 93.9735 16.773 93.9746 16.7731C93.9757 16.7732 93.9767 16.7733 93.9778 16.7734C93.9788 16.7735 93.9799 16.7736 93.9809 16.7738C93.982 16.7739 93.9831 16.774 93.9841 16.7741C93.9852 16.7742 93.9862 16.7743 93.9873 16.7744C93.9884 16.7745 93.9894 16.7746 93.9905 16.7747C93.9916 16.7749 93.9927 16.775 93.9937 16.7751C93.9948 16.7752 93.9959 16.7753 93.9969 16.7754C93.998 16.7755 93.9991 16.7756 94.0002 16.7757C94.0013 16.7759 94.0023 16.776 94.0034 16.7761C94.0045 16.7762 94.0056 16.7763 94.0067 16.7764C94.0078 16.7765 94.0089 16.7766 94.01 16.7767C94.011 16.7769 94.0121 16.777 94.0132 16.7771C94.0143 16.7772 94.0154 16.7773 94.0165 16.7774C94.0176 16.7775 94.0187 16.7777 94.0198 16.7778C94.0209 16.7779 94.022 16.778 94.0231 16.7781C94.0242 16.7782 94.0254 16.7783 94.0265 16.7784C94.0276 16.7786 94.0287 16.7787 94.0298 16.7788C94.0309 16.7789 94.032 16.779 94.0331 16.7791C94.0343 16.7793 94.0354 16.7794 94.0365 16.7795C94.0376 16.7796 94.0387 16.7797 94.0399 16.7798C94.041 16.7799 94.0421 16.7801 94.0432 16.7802C94.0444 16.7803 94.0455 16.7804 94.0466 16.7805C94.0478 16.7806 94.0489 16.7808 94.05 16.7809C94.0512 16.781 94.0523 16.7811 94.0534 16.7812C94.0546 16.7813 94.0557 16.7815 94.0569 16.7816C94.058 16.7817 94.0591 16.7818 94.0603 16.7819C94.0614 16.7821 94.0626 16.7822 94.0637 16.7823C94.0649 16.7824 94.066 16.7825 94.0672 16.7826C94.0683 16.7828 94.0695 16.7829 94.0706 16.783C94.0718 16.7831 94.073 16.7832 94.0741 16.7834C94.0753 16.7835 94.0764 16.7836 94.0776 16.7837C94.0788 16.7838 94.0799 16.784 94.0811 16.7841C94.0823 16.7842 94.0834 16.7843 94.0846 16.7844C94.0858 16.7846 94.0869 16.7847 94.0881 16.7848C94.0893 16.7849 94.0905 16.785 94.0917 16.7852C94.0928 16.7853 94.094 16.7854 94.0952 16.7855C94.0964 16.7857 94.0976 16.7858 94.0987 16.7859C94.0999 16.786 94.1011 16.7861 94.1023 16.7863C94.1035 16.7864 94.1047 16.7865 94.1059 16.7866C94.1071 16.7868 94.1083 16.7869 94.1095 16.787C94.1107 16.7871 94.1119 16.7873 94.1131 16.7874C94.1143 16.7875 94.1155 16.7876 94.1167 16.7877C94.1179 16.7879 94.1191 16.788 94.1203 16.7881C94.1215 16.7882 94.1227 16.7884 94.1239 16.7885C94.1251 16.7886 94.1263 16.7887 94.1275 16.7889C94.1287 16.789 94.13 16.7891 94.1312 16.7892C94.1324 16.7894 94.1336 16.7895 94.1348 16.7896C94.1361 16.7897 94.1373 16.7899 94.1385 16.79C94.1397 16.7901 94.141 16.7903 94.1422 16.7904C94.1434 16.7905 94.1446 16.7906 94.1459 16.7908C94.1471 16.7909 94.1483 16.791 94.1496 16.7911C94.1508 16.7913 94.1521 16.7914 94.1533 16.7915C94.1545 16.7917 94.1558 16.7918 94.157 16.7919C94.1583 16.792 94.1595 16.7922 94.1608 16.7923C94.162 16.7924 94.1633 16.7926 94.1645 16.7927C94.1658 16.7928 94.167 16.7929 94.1683 16.7931C94.1695 16.7932 94.1708 16.7933 94.172 16.7935C94.1733 16.7936 94.1745 16.7937 94.1758 16.7938C94.1771 16.794 94.1783 16.7941 94.1796 16.7942C94.1809 16.7944 94.1821 16.7945 94.1834 16.7946C94.1847 16.7948 94.1859 16.7949 94.1872 16.795C94.1885 16.7952 94.1897 16.7953 94.191 16.7954C94.1923 16.7955 94.1936 16.7957 94.1949 16.7958C94.1961 16.7959 94.1974 16.7961 94.1987 16.7962C94.2 16.7963 94.2013 16.7965 94.2026 16.7966C94.2038 16.7967 94.2051 16.7969 94.2064 16.797C94.2077 16.7971 94.209 16.7973 94.2103 16.7974C94.2116 16.7975 94.2129 16.7977 94.2142 16.7978C94.2155 16.7979 94.2168 16.7981 94.2181 16.7982C94.2194 16.7983 94.2207 16.7985 94.222 16.7986C94.2233 16.7987 94.2246 16.7989 94.2259 16.799C94.2272 16.7991 94.2285 16.7993 94.2298 16.7994C94.2311 16.7996 94.2325 16.7997 94.2338 16.7998C94.2351 16.8 94.2364 16.8001 94.2377 16.8002C94.239 16.8004 94.2404 16.8005 94.2417 16.8006C94.243 16.8008 94.2443 16.8009 94.2457 16.801C94.247 16.8012 94.2483 16.8013 94.2496 16.8015C94.251 16.8016 94.2523 16.8017 94.2536 16.8019C94.255 16.802 94.2563 16.8021 94.2576 16.8023C94.259 16.8024 94.2603 16.8026 94.2617 16.8027C94.263 16.8028 94.2643 16.803 94.2657 16.8031C94.267 16.8033 94.2684 16.8034 94.2697 16.8035C94.2711 16.8037 94.2724 16.8038 94.2738 16.8039C94.2751 16.8041 94.2765 16.8042 94.2778 16.8044C94.2792 16.8045 94.2805 16.8046 94.2819 16.8048C94.2833 16.8049 94.2846 16.8051 94.286 16.8052C94.2873 16.8053 94.2887 16.8055 94.2901 16.8056C94.2914 16.8058 94.2928 16.8059 94.2942 16.806C94.2956 16.8062 94.2969 16.8063 94.2983 16.8065C94.2997 16.8066 94.301 16.8068 94.3024 16.8069C94.3038 16.807 94.3052 16.8072 94.3066 16.8073C94.3079 16.8075 94.3093 16.8076 94.3107 16.8078C94.3121 16.8079 94.3135 16.808 94.3149 16.8082C94.3162 16.8083 94.3176 16.8085 94.319 16.8086C94.3204 16.8088 94.3218 16.8089 94.3232 16.809C94.3246 16.8092 94.326 16.8093 94.3274 16.8095C94.3288 16.8096 94.3302 16.8098 94.3316 16.8099C94.333 16.8101 94.3344 16.8102 94.3358 16.8103C94.3372 16.8105 94.3386 16.8106 94.34 16.8108C94.3414 16.8109 94.3429 16.8111 94.3443 16.8112C94.3457 16.8114 94.3471 16.8115 94.3485 16.8117C94.3499 16.8118 94.3513 16.8119 94.3528 16.8121C94.3542 16.8122 94.3556 16.8124 94.357 16.8125C94.3585 16.8127 94.3599 16.8128 94.3613 16.813C94.3627 16.8131 94.3642 16.8133 94.3656 16.8134C94.367 16.8136 94.3685 16.8137 94.3699 16.8139C94.3713 16.814 94.3728 16.8142 94.3742 16.8143C94.3756 16.8144 94.3771 16.8146 94.3785 16.8147C94.38 16.8149 94.3814 16.815 94.3829 16.8152C94.3843 16.8153 94.3857 16.8155 94.3872 16.8156C94.3886 16.8158 94.3901 16.8159 94.3915 16.8161C94.393 16.8162 94.3945 16.8164 94.3959 16.8165C94.3974 16.8167 94.3988 16.8168 94.4003 16.817C94.4017 16.8171 94.4032 16.8173 94.4047 16.8174C94.4061 16.8176 94.4076 16.8177 94.4091 16.8179C94.4105 16.818 94.412 16.8182 94.4135 16.8183C94.4149 16.8185 94.4164 16.8187 94.4179 16.8188C94.4194 16.819 94.4208 16.8191 94.4223 16.8193C94.4238 16.8194 94.4253 16.8196 94.4268 16.8197C94.4282 16.8199 94.4297 16.82 94.4312 16.8202C94.4327 16.8203 94.4342 16.8205 94.4357 16.8206C94.4372 16.8208 94.4386 16.8209 94.4401 16.8211C94.4416 16.8213 94.4431 16.8214 94.4446 16.8216C94.4461 16.8217 94.4476 16.8219 94.4491 16.822C94.4506 16.8222 94.4521 16.8223 94.4536 16.8225C94.4551 16.8226 94.4566 16.8228 94.4581 16.823C94.4596 16.8231 94.4612 16.8233 94.4627 16.8234C94.4642 16.8236 94.4657 16.8237 94.4672 16.8239C94.4687 16.824 94.4702 16.8242 94.4717 16.8244C94.4733 16.8245 94.4748 16.8247 94.4763 16.8248C94.4778 16.825 94.4793 16.8251 94.4809 16.8253C94.4824 16.8255 94.4839 16.8256 94.4855 16.8258C94.487 16.8259 94.4885 16.8261 94.49 16.8262C94.4916 16.8264 94.4931 16.8266 94.4946 16.8267C94.4962 16.8269 94.4977 16.827 94.4993 16.8272C94.5008 16.8274 94.5023 16.8275 94.5039 16.8277C94.5054 16.8278 94.507 16.828 94.5085 16.8281C94.5101 16.8283 94.5116 16.8285 94.5132 16.8286C94.5147 16.8288 94.5163 16.8289 94.5178 16.8291C94.5194 16.8293 94.5209 16.8294 94.5225 16.8296C94.524 16.8297 94.5256 16.8299 94.5272 16.8301C94.5287 16.8302 94.5303 16.8304 94.5319 16.8306C94.5334 16.8307 94.535 16.8309 94.5366 16.831C94.5381 16.8312 94.5397 16.8314 94.5413 16.8315C94.5428 16.8317 94.5444 16.8318 94.546 16.832C94.5476 16.8322 94.5491 16.8323 94.5507 16.8325C94.5523 16.8327 94.5539 16.8328 94.5555 16.833C94.557 16.8331 94.5586 16.8333 94.5602 16.8335C94.5618 16.8336 94.5634 16.8338 94.565 16.834C94.5666 16.8341 94.5682 16.8343 94.5697 16.8345C94.5713 16.8346 94.5729 16.8348 94.5745 16.835C94.5761 16.8351 94.5777 16.8353 94.5793 16.8354C94.5809 16.8356 94.5825 16.8358 94.5841 16.8359C94.5857 16.8361 94.5874 16.8363 94.589 16.8364C94.5906 16.8366 94.5922 16.8368 94.5938 16.8369C94.5954 16.8371 94.597 16.8373 94.5986 16.8374C94.6002 16.8376 94.6019 16.8378 94.6035 16.8379C94.6051 16.8381 94.6067 16.8383 94.6083 16.8384C94.61 16.8386 94.6116 16.8388 94.6132 16.8389C94.6148 16.8391 94.6165 16.8393 94.6181 16.8394C94.6197 16.8396 94.6214 16.8398 94.623 16.8399C94.6246 16.8401 94.6263 16.8403 94.6279 16.8405C94.6295 16.8406 94.6312 16.8408 94.6328 16.841C94.6345 16.8411 94.6361 16.8413 94.6377 16.8415C94.6394 16.8416 94.641 16.8418 94.6427 16.842C94.6443 16.8421 94.646 16.8423 94.6476 16.8425C94.6493 16.8427 94.6509 16.8428 94.6526 16.843C94.6542 16.8432 94.6559 16.8433 94.6576 16.8435C94.6592 16.8437 94.6609 16.8439 94.6625 16.844C94.6642 16.8442 94.6659 16.8444 94.6675 16.8445C94.6692 16.8447 94.6709 16.8449 94.6725 16.8451C94.6742 16.8452 94.6759 16.8454 94.6775 16.8456C94.6792 16.8457 94.6809 16.8459 94.6826 16.8461C94.6842 16.8463 94.6859 16.8464 94.6876 16.8466C94.6893 16.8468 94.691 16.847 94.6927 16.8471C94.6943 16.8473 94.696 16.8475 94.6977 16.8477C94.6994 16.8478 94.7011 16.848 94.7028 16.8482C94.7045 16.8483 94.7062 16.8485 94.7079 16.8487C94.7096 16.8489 94.7112 16.849 94.7129 16.8492C94.7146 16.8494 94.7163 16.8496 94.718 16.8497C94.7198 16.8499 94.7215 16.8501 94.7232 16.8503C94.7249 16.8505 94.7266 16.8506 94.7283 16.8508C94.73 16.851 94.7317 16.8512 94.7334 16.8513C94.7351 16.8515 94.7368 16.8517 94.7386 16.8519C94.7403 16.852 94.742 16.8522 94.7437 16.8524C94.7454 16.8526 94.7472 16.8527 94.7489 16.8529C94.7506 16.8531 94.7523 16.8533 94.7541 16.8535C94.7558 16.8536 94.7575 16.8538 94.7592 16.854C94.761 16.8542 94.7627 16.8544 94.7644 16.8545C94.7662 16.8547 94.7679 16.8549 94.7697 16.8551C94.7714 16.8552 94.7731 16.8554 94.7749 16.8556C94.7766 16.8558 94.7784 16.856 94.7801 16.8561C94.7818 16.8563 94.7836 16.8565 94.7853 16.8567C94.7871 16.8569 94.7888 16.857 94.7906 16.8572C94.7923 16.8574 94.7941 16.8576 94.7959 16.8578C94.7976 16.8579 94.7994 16.8581 94.8011 16.8583C94.8029 16.8585 94.8047 16.8587 94.8064 16.8589C94.8082 16.859 94.8099 16.8592 94.8117 16.8594C94.8135 16.8596 94.8152 16.8598 94.817 16.86C94.8188 16.8601 94.8206 16.8603 94.8223 16.8605C94.8241 16.8607 94.8259 16.8609 94.8277 16.861C94.8294 16.8612 94.8312 16.8614 94.833 16.8616C94.8348 16.8618 94.8366 16.862 94.8384 16.8621C94.8401 16.8623 94.8419 16.8625 94.8437 16.8627C94.8455 16.8629 94.8473 16.8631 94.8491 16.8633C94.8509 16.8634 94.8527 16.8636 94.8545 16.8638C94.8563 16.864 94.8581 16.8642 94.8599 16.8644C94.8617 16.8646 94.8635 16.8647 94.8653 16.8649C94.8671 16.8651 94.8689 16.8653 94.8707 16.8655C94.8725 16.8657 94.8743 16.8659 94.8761 16.866C94.8779 16.8662 94.8797 16.8664 94.8815 16.8666C94.8834 16.8668 94.8852 16.867 94.887 16.8672C94.8888 16.8674 94.8906 16.8675 94.8924 16.8677C94.8943 16.8679 94.8961 16.8681 94.8979 16.8683C94.8997 16.8685 94.9016 16.8687 94.9034 16.8689C94.9052 16.869 94.9071 16.8692 94.9089 16.8694C94.9107 16.8696 94.9126 16.8698 94.9144 16.87C94.9162 16.8702 94.9181 16.8704 94.9199 16.8706C94.9217 16.8707 94.9236 16.8709 94.9254 16.8711C94.9273 16.8713 94.9291 16.8715 94.931 16.8717C94.9328 16.8719 94.9347 16.8721 94.9365 16.8723L95.3467 12.8934C95.3448 12.8932 95.343 12.893 95.3412 12.8928C95.3393 12.8926 95.3375 12.8924 95.3356 12.8922C95.3338 12.892 95.3319 12.8918 95.3301 12.8916C95.3283 12.8915 95.3264 12.8913 95.3246 12.8911C95.3227 12.8909 95.3209 12.8907 95.3191 12.8905C95.3173 12.8903 95.3154 12.8901 95.3136 12.8899C95.3118 12.8898 95.3099 12.8896 95.3081 12.8894C95.3063 12.8892 95.3045 12.889 95.3026 12.8888C95.3008 12.8886 95.299 12.8884 95.2972 12.8883C95.2954 12.8881 95.2936 12.8879 95.2917 12.8877C95.2899 12.8875 95.2881 12.8873 95.2863 12.8871C95.2845 12.8869 95.2827 12.8868 95.2809 12.8866C95.2791 12.8864 95.2773 12.8862 95.2755 12.886C95.2737 12.8858 95.2719 12.8856 95.2701 12.8855C95.2683 12.8853 95.2665 12.8851 95.2647 12.8849C95.2629 12.8847 95.2611 12.8845 95.2593 12.8843C95.2575 12.8842 95.2557 12.884 95.2539 12.8838C95.2521 12.8836 95.2503 12.8834 95.2485 12.8832C95.2468 12.8831 95.245 12.8829 95.2432 12.8827C95.2414 12.8825 95.2396 12.8823 95.2379 12.8821C95.2361 12.882 95.2343 12.8818 95.2325 12.8816C95.2308 12.8814 95.229 12.8812 95.2272 12.881C95.2254 12.8809 95.2237 12.8807 95.2219 12.8805C95.2201 12.8803 95.2184 12.8801 95.2166 12.8799C95.2148 12.8798 95.2131 12.8796 95.2113 12.8794C95.2096 12.8792 95.2078 12.879 95.2061 12.8789C95.2043 12.8787 95.2025 12.8785 95.2008 12.8783C95.199 12.8781 95.1973 12.878 95.1955 12.8778C95.1938 12.8776 95.192 12.8774 95.1903 12.8772C95.1886 12.8771 95.1868 12.8769 95.1851 12.8767C95.1833 12.8765 95.1816 12.8763 95.1798 12.8762C95.1781 12.876 95.1764 12.8758 95.1746 12.8756C95.1729 12.8754 95.1712 12.8753 95.1694 12.8751C95.1677 12.8749 95.166 12.8747 95.1643 12.8745C95.1625 12.8744 95.1608 12.8742 95.1591 12.874C95.1574 12.8738 95.1556 12.8737 95.1539 12.8735C95.1522 12.8733 95.1505 12.8731 95.1488 12.873C95.147 12.8728 95.1453 12.8726 95.1436 12.8724C95.1419 12.8722 95.1402 12.8721 95.1385 12.8719C95.1368 12.8717 95.1351 12.8715 95.1334 12.8714C95.1317 12.8712 95.1299 12.871 95.1282 12.8708C95.1265 12.8707 95.1248 12.8705 95.1231 12.8703C95.1214 12.8701 95.1198 12.87 95.1181 12.8698C95.1164 12.8696 95.1147 12.8694 95.113 12.8693C95.1113 12.8691 95.1096 12.8689 95.1079 12.8687C95.1062 12.8686 95.1045 12.8684 95.1029 12.8682C95.1012 12.868 95.0995 12.8679 95.0978 12.8677C95.0961 12.8675 95.0944 12.8674 95.0928 12.8672C95.0911 12.867 95.0894 12.8668 95.0877 12.8667C95.0861 12.8665 95.0844 12.8663 95.0827 12.8661C95.0811 12.866 95.0794 12.8658 95.0777 12.8656C95.0761 12.8655 95.0744 12.8653 95.0727 12.8651C95.0711 12.8649 95.0694 12.8648 95.0678 12.8646C95.0661 12.8644 95.0644 12.8643 95.0628 12.8641C95.0611 12.8639 95.0595 12.8637 95.0578 12.8636C95.0562 12.8634 95.0545 12.8632 95.0529 12.8631C95.0512 12.8629 95.0496 12.8627 95.0479 12.8626C95.0463 12.8624 95.0447 12.8622 95.043 12.862C95.0414 12.8619 95.0397 12.8617 95.0381 12.8615C95.0365 12.8614 95.0348 12.8612 95.0332 12.861C95.0316 12.8609 95.0299 12.8607 95.0283 12.8605C95.0267 12.8604 95.025 12.8602 95.0234 12.86C95.0218 12.8599 95.0202 12.8597 95.0185 12.8595C95.0169 12.8594 95.0153 12.8592 95.0137 12.859C95.0121 12.8589 95.0104 12.8587 95.0088 12.8585C95.0072 12.8584 95.0056 12.8582 95.004 12.858C95.0024 12.8579 95.0008 12.8577 94.9992 12.8575C94.9975 12.8574 94.9959 12.8572 94.9943 12.857C94.9927 12.8569 94.9911 12.8567 94.9895 12.8565C94.9879 12.8564 94.9863 12.8562 94.9847 12.856C94.9831 12.8559 94.9815 12.8557 94.9799 12.8555C94.9784 12.8554 94.9768 12.8552 94.9752 12.8551C94.9736 12.8549 94.972 12.8547 94.9704 12.8546C94.9688 12.8544 94.9672 12.8542 94.9657 12.8541C94.9641 12.8539 94.9625 12.8537 94.9609 12.8536C94.9593 12.8534 94.9578 12.8533 94.9562 12.8531C94.9546 12.8529 94.953 12.8528 94.9515 12.8526C94.9499 12.8524 94.9483 12.8523 94.9467 12.8521C94.9452 12.852 94.9436 12.8518 94.942 12.8516C94.9405 12.8515 94.9389 12.8513 94.9374 12.8512C94.9358 12.851 94.9342 12.8508 94.9327 12.8507C94.9311 12.8505 94.9296 12.8504 94.928 12.8502C94.9265 12.85 94.9249 12.8499 94.9234 12.8497C94.9218 12.8496 94.9203 12.8494 94.9187 12.8492C94.9172 12.8491 94.9156 12.8489 94.9141 12.8488C94.9125 12.8486 94.911 12.8484 94.9095 12.8483C94.9079 12.8481 94.9064 12.848 94.9048 12.8478C94.9033 12.8476 94.9018 12.8475 94.9002 12.8473C94.8987 12.8472 94.8972 12.847 94.8957 12.8469C94.8941 12.8467 94.8926 12.8465 94.8911 12.8464C94.8895 12.8462 94.888 12.8461 94.8865 12.8459C94.885 12.8458 94.8835 12.8456 94.8819 12.8454C94.8804 12.8453 94.8789 12.8451 94.8774 12.845C94.8759 12.8448 94.8744 12.8447 94.8729 12.8445C94.8713 12.8444 94.8698 12.8442 94.8683 12.844C94.8668 12.8439 94.8653 12.8437 94.8638 12.8436C94.8623 12.8434 94.8608 12.8433 94.8593 12.8431C94.8578 12.843 94.8563 12.8428 94.8548 12.8426C94.8533 12.8425 94.8518 12.8423 94.8503 12.8422C94.8488 12.842 94.8474 12.8419 94.8459 12.8417C94.8444 12.8416 94.8429 12.8414 94.8414 12.8413C94.8399 12.8411 94.8384 12.841 94.837 12.8408C94.8355 12.8407 94.834 12.8405 94.8325 12.8403C94.831 12.8402 94.8296 12.84 94.8281 12.8399C94.8266 12.8397 94.8251 12.8396 94.8237 12.8394C94.8222 12.8393 94.8207 12.8391 94.8193 12.839C94.8178 12.8388 94.8163 12.8387 94.8149 12.8385C94.8134 12.8384 94.8119 12.8382 94.8105 12.8381C94.809 12.8379 94.8076 12.8378 94.8061 12.8376C94.8047 12.8375 94.8032 12.8373 94.8017 12.8372C94.8003 12.837 94.7988 12.8369 94.7974 12.8367C94.7959 12.8366 94.7945 12.8364 94.793 12.8363C94.7916 12.8361 94.7902 12.836 94.7887 12.8358C94.7873 12.8357 94.7858 12.8355 94.7844 12.8354C94.783 12.8352 94.7815 12.8351 94.7801 12.8349C94.7787 12.8348 94.7772 12.8346 94.7758 12.8345C94.7744 12.8344 94.7729 12.8342 94.7715 12.8341C94.7701 12.8339 94.7687 12.8338 94.7672 12.8336C94.7658 12.8335 94.7644 12.8333 94.763 12.8332C94.7615 12.833 94.7601 12.8329 94.7587 12.8327C94.7573 12.8326 94.7559 12.8324 94.7545 12.8323C94.753 12.8322 94.7516 12.832 94.7502 12.8319C94.7488 12.8317 94.7474 12.8316 94.746 12.8314C94.7446 12.8313 94.7432 12.8311 94.7418 12.831C94.7404 12.8309 94.739 12.8307 94.7376 12.8306C94.7362 12.8304 94.7348 12.8303 94.7334 12.8301C94.732 12.83 94.7306 12.8298 94.7292 12.8297C94.7278 12.8296 94.7264 12.8294 94.7251 12.8293C94.7237 12.8291 94.7223 12.829 94.7209 12.8288C94.7195 12.8287 94.7181 12.8286 94.7168 12.8284C94.7154 12.8283 94.714 12.8281 94.7126 12.828C94.7112 12.8278 94.7099 12.8277 94.7085 12.8276C94.7071 12.8274 94.7057 12.8273 94.7044 12.8271C94.703 12.827 94.7016 12.8269 94.7003 12.8267C94.6989 12.8266 94.6975 12.8264 94.6962 12.8263C94.6948 12.8262 94.6935 12.826 94.6921 12.8259C94.6907 12.8257 94.6894 12.8256 94.688 12.8255C94.6867 12.8253 94.6853 12.8252 94.684 12.825C94.6826 12.8249 94.6813 12.8248 94.6799 12.8246C94.6786 12.8245 94.6772 12.8243 94.6759 12.8242C94.6745 12.8241 94.6732 12.8239 94.6719 12.8238C94.6705 12.8236 94.6692 12.8235 94.6678 12.8234C94.6665 12.8232 94.6652 12.8231 94.6638 12.823C94.6625 12.8228 94.6612 12.8227 94.6598 12.8225C94.6585 12.8224 94.6572 12.8223 94.6559 12.8221C94.6545 12.822 94.6532 12.8219 94.6519 12.8217C94.6506 12.8216 94.6492 12.8215 94.6479 12.8213C94.6466 12.8212 94.6453 12.821 94.644 12.8209C94.6427 12.8208 94.6413 12.8206 94.64 12.8205C94.6387 12.8204 94.6374 12.8202 94.6361 12.8201C94.6348 12.82 94.6335 12.8198 94.6322 12.8197C94.6309 12.8196 94.6296 12.8194 94.6283 12.8193C94.627 12.8192 94.6257 12.819 94.6244 12.8189C94.6231 12.8188 94.6218 12.8186 94.6205 12.8185C94.6192 12.8184 94.6179 12.8182 94.6166 12.8181C94.6153 12.818 94.614 12.8178 94.6127 12.8177C94.6115 12.8176 94.6102 12.8174 94.6089 12.8173C94.6076 12.8172 94.6063 12.817 94.6051 12.8169C94.6038 12.8168 94.6025 12.8166 94.6012 12.8165C94.5999 12.8164 94.5987 12.8162 94.5974 12.8161C94.5961 12.816 94.5949 12.8158 94.5936 12.8157C94.5923 12.8156 94.5911 12.8155 94.5898 12.8153C94.5885 12.8152 94.5873 12.8151 94.586 12.8149C94.5847 12.8148 94.5835 12.8147 94.5822 12.8145C94.581 12.8144 94.5797 12.8143 94.5785 12.8142C94.5772 12.814 94.5759 12.8139 94.5747 12.8138C94.5734 12.8136 94.5722 12.8135 94.571 12.8134C94.5697 12.8133 94.5685 12.8131 94.5672 12.813C94.566 12.8129 94.5647 12.8127 94.5635 12.8126C94.5623 12.8125 94.561 12.8124 94.5598 12.8122C94.5585 12.8121 94.5573 12.812 94.5561 12.8118C94.5548 12.8117 94.5536 12.8116 94.5524 12.8115C94.5512 12.8113 94.5499 12.8112 94.5487 12.8111C94.5475 12.811 94.5463 12.8108 94.545 12.8107C94.5438 12.8106 94.5426 12.8105 94.5414 12.8103C94.5402 12.8102 94.5389 12.8101 94.5377 12.81C94.5365 12.8098 94.5353 12.8097 94.5341 12.8096C94.5329 12.8095 94.5317 12.8093 94.5305 12.8092C94.5293 12.8091 94.5281 12.809 94.5269 12.8088C94.5256 12.8087 94.5244 12.8086 94.5232 12.8085C94.522 12.8083 94.5209 12.8082 94.5197 12.8081C94.5185 12.808 94.5173 12.8078 94.5161 12.8077C94.5149 12.8076 94.5137 12.8075 94.5125 12.8074C94.5113 12.8072 94.5101 12.8071 94.5089 12.807C94.5078 12.8069 94.5066 12.8067 94.5054 12.8066C94.5042 12.8065 94.503 12.8064 94.5018 12.8063C94.5007 12.8061 94.4995 12.806 94.4983 12.8059C94.4971 12.8058 94.496 12.8057 94.4948 12.8055C94.4936 12.8054 94.4925 12.8053 94.4913 12.8052C94.4901 12.8051 94.489 12.8049 94.4878 12.8048C94.4866 12.8047 94.4855 12.8046 94.4843 12.8045C94.4832 12.8043 94.482 12.8042 94.4808 12.8041C94.4797 12.804 94.4785 12.8039 94.4774 12.8037C94.4762 12.8036 94.4751 12.8035 94.4739 12.8034C94.4728 12.8033 94.4716 12.8031 94.4705 12.803C94.4693 12.8029 94.4682 12.8028 94.4671 12.8027C94.4659 12.8026 94.4648 12.8024 94.4636 12.8023C94.4625 12.8022 94.4614 12.8021 94.4602 12.802C94.4591 12.8019 94.458 12.8017 94.4568 12.8016C94.4557 12.8015 94.4546 12.8014 94.4534 12.8013C94.4523 12.8012 94.4512 12.801 94.4501 12.8009C94.4489 12.8008 94.4478 12.8007 94.4467 12.8006C94.4456 12.8005 94.4445 12.8003 94.4433 12.8002C94.4422 12.8001 94.4411 12.8 94.44 12.7999C94.4389 12.7998 94.4378 12.7997 94.4367 12.7995C94.4355 12.7994 94.4344 12.7993 94.4333 12.7992C94.4322 12.7991 94.4311 12.799 94.43 12.7989C94.4289 12.7987 94.4278 12.7986 94.4267 12.7985C94.4256 12.7984 94.4245 12.7983 94.4234 12.7982C94.4223 12.7981 94.4212 12.7979 94.4202 12.7978C94.4191 12.7977 94.418 12.7976 94.4169 12.7975C94.4158 12.7974 94.4147 12.7973 94.4136 12.7972C94.4125 12.7971 94.4115 12.7969 94.4104 12.7968C94.4093 12.7967 94.4082 12.7966 94.4071 12.7965C94.4061 12.7964 94.405 12.7963 94.4039 12.7962C94.4028 12.7961 94.4018 12.7959 94.4007 12.7958C94.3996 12.7957 94.3986 12.7956 94.3975 12.7955C94.3964 12.7954 94.3954 12.7953 94.3943 12.7952C94.3932 12.7951 94.3922 12.795 94.3911 12.7948C94.3901 12.7947 94.389 12.7946 94.388 12.7945C94.3869 12.7944 94.3858 12.7943 94.3848 12.7942C94.3837 12.7941 94.3827 12.794 94.3816 12.7939C94.3806 12.7938 94.3796 12.7937 94.3785 12.7935C94.3775 12.7934 94.3764 12.7933 94.3754 12.7932C94.3743 12.7931 94.3733 12.793 94.3723 12.7929C94.3712 12.7928 94.3702 12.7927 94.3692 12.7926C94.3681 12.7925 94.3671 12.7924 94.3661 12.7923C94.365 12.7922 94.364 12.792 94.363 12.7919C94.362 12.7918 94.3609 12.7917 94.3599 12.7916C94.3589 12.7915 94.3579 12.7914 94.3568 12.7913C94.3558 12.7912 94.3548 12.7911 94.3538 12.791C94.3528 12.7909 94.3518 12.7908 94.3508 12.7907C94.3497 12.7906 94.3487 12.7905 94.3477 12.7904C94.3467 12.7903 94.3457 12.7902 94.3447 12.7901C94.3437 12.79 94.3427 12.7899 94.3417 12.7897C94.3407 12.7896 94.3397 12.7895 94.3387 12.7894C94.3377 12.7893 94.3367 12.7892 94.3357 12.7891C94.3347 12.789 94.3337 12.7889 94.3327 12.7888C94.3317 12.7887 94.3308 12.7886 94.3298 12.7885C94.3288 12.7884 94.3278 12.7883 94.3268 12.7882C94.3258 12.7881 94.3249 12.788 94.3239 12.7879C94.3229 12.7878 94.3219 12.7877 94.3209 12.7876C94.32 12.7875 94.319 12.7874 94.318 12.7873C94.317 12.7872 94.3161 12.7871 94.3151 12.787C94.3141 12.7869 94.3132 12.7868 94.3122 12.7867C94.3112 12.7866 94.3103 12.7865 94.3093 12.7864C94.3084 12.7863 94.3074 12.7862 94.3064 12.7861C94.3055 12.786 94.3045 12.7859 94.3036 12.7858C94.3026 12.7857 94.3017 12.7856 94.3007 12.7855C94.2998 12.7854 94.2988 12.7853 94.2979 12.7852C94.2969 12.7851 94.296 12.785 94.295 12.7849C94.2941 12.7848 94.2932 12.7847 94.2922 12.7846C94.2913 12.7845 94.2903 12.7845 94.2894 12.7844C94.2885 12.7843 94.2875 12.7842 94.2866 12.7841C94.2857 12.784 94.2847 12.7839 94.2838 12.7838C94.2829 12.7837 94.282 12.7836 94.281 12.7835C94.2801 12.7834 94.2792 12.7833 94.2783 12.7832C94.2773 12.7831 94.2764 12.783 94.2755 12.7829C94.2746 12.7828 94.2737 12.7827 94.2727 12.7826C94.2718 12.7825 94.2709 12.7825 94.27 12.7824C94.2691 12.7823 94.2682 12.7822 94.2673 12.7821C94.2664 12.782 94.2655 12.7819 94.2646 12.7818C94.2637 12.7817 94.2628 12.7816 94.2619 12.7815C94.261 12.7814 94.2601 12.7813 94.2592 12.7812C94.2583 12.7811 94.2574 12.7811 94.2565 12.781C94.2556 12.7809 94.2547 12.7808 94.2538 12.7807C94.2529 12.7806 94.252 12.7805 94.2512 12.7804C94.2503 12.7803 94.2494 12.7802 94.2485 12.7801C94.2476 12.78 94.2467 12.78 94.2459 12.7799C94.245 12.7798 94.2441 12.7797 94.2432 12.7796C94.2424 12.7795 94.2415 12.7794 94.2406 12.7793C94.2397 12.7792 94.2389 12.7791 94.238 12.7791C94.2371 12.779 94.2363 12.7789 94.2354 12.7788C94.2346 12.7787 94.2337 12.7786 94.2328 12.7785C94.232 12.7784 94.2311 12.7783 94.2303 12.7783C94.2294 12.7782 94.2285 12.7781 94.2277 12.778C94.2268 12.7779 94.226 12.7778 94.2251 12.7777C94.2243 12.7776 94.2234 12.7776 94.2226 12.7775C94.2217 12.7774 94.2209 12.7773 94.2201 12.7772C94.2192 12.7771 94.2184 12.777 94.2175 12.7769C94.2167 12.7769 94.2159 12.7768 94.215 12.7767C94.2142 12.7766 94.2134 12.7765 94.2125 12.7764C94.2117 12.7763 94.2109 12.7763 94.21 12.7762C94.2092 12.7761 94.2084 12.776 94.2076 12.7759C94.2067 12.7758 94.2059 12.7758 94.2051 12.7757C94.2043 12.7756 94.2035 12.7755 94.2026 12.7754C94.2018 12.7753 94.201 12.7752 94.2002 12.7752C94.1994 12.7751 94.1986 12.775 94.1978 12.7749C94.197 12.7748 94.1962 12.7747 94.1953 12.7747C94.1945 12.7746 94.1937 12.7745 94.1929 12.7744C94.1921 12.7743 94.1913 12.7742 94.1905 12.7742C94.1897 12.7741 94.1889 12.774 94.1881 12.7739C94.1873 12.7738 94.1866 12.7738 94.1858 12.7737C94.185 12.7736 94.1842 12.7735 94.1834 12.7734C94.1826 12.7733 94.1818 12.7733 94.181 12.7732C94.1803 12.7731 94.1795 12.773 94.1787 12.7729C94.1779 12.7729 94.1771 12.7728 94.1764 12.7727C94.1756 12.7726 94.1748 12.7725 94.174 12.7725C94.1733 12.7724 94.1725 12.7723 94.1717 12.7722C94.1709 12.7721 94.1702 12.7721 94.1694 12.772C94.1686 12.7719 94.1679 12.7718 94.1671 12.7718C94.1664 12.7717 94.1656 12.7716 94.1648 12.7715C94.1641 12.7714 94.1633 12.7714 94.1626 12.7713C94.1618 12.7712 94.1611 12.7711 94.1603 12.771C94.1596 12.771 94.1588 12.7709 94.1581 12.7708C94.1573 12.7707 94.1566 12.7707 94.1558 12.7706C94.1551 12.7705 94.1543 12.7704 94.1536 12.7704C94.1528 12.7703 94.1521 12.7702 94.1514 12.7701C94.1506 12.7701 94.1499 12.77 94.1492 12.7699C94.1484 12.7698 94.1477 12.7697 94.147 12.7697C94.1462 12.7696 94.1455 12.7695 94.1448 12.7694C94.1441 12.7694 94.1433 12.7693 94.1426 12.7692C94.1419 12.7691 94.1412 12.7691 94.1405 12.769C94.1397 12.7689 94.139 12.7689 94.1383 12.7688C94.1376 12.7687 94.1369 12.7686 94.1362 12.7686C94.1354 12.7685 94.1347 12.7684 94.134 12.7683C94.1333 12.7683 94.1326 12.7682 94.1319 12.7681C94.1312 12.768 94.1305 12.768 94.1298 12.7679C94.1291 12.7678 94.1284 12.7678 94.1277 12.7677C94.127 12.7676 94.1263 12.7675 94.1256 12.7675C94.1249 12.7674 94.1242 12.7673 94.1235 12.7673C94.1228 12.7672 94.1222 12.7671 94.1215 12.767C94.1208 12.767 94.1201 12.7669 94.1194 12.7668C94.1187 12.7668 94.1181 12.7667 94.1174 12.7666C94.1167 12.7666 94.116 12.7665 94.1153 12.7664C94.1147 12.7663 94.114 12.7663 94.1133 12.7662C94.1127 12.7661 94.112 12.7661 94.1113 12.766C94.1106 12.7659 94.11 12.7659 94.1093 12.7658C94.1086 12.7657 94.108 12.7657 94.1073 12.7656C94.1067 12.7655 94.106 12.7654 94.1053 12.7654C94.1047 12.7653 94.104 12.7652 94.1034 12.7652C94.1027 12.7651 94.1021 12.765 94.1014 12.765C94.1008 12.7649 94.1001 12.7648 94.0995 12.7648C94.0988 12.7647 94.0982 12.7646 94.0975 12.7646C94.0969 12.7645 94.0963 12.7644 94.0956 12.7644C94.095 12.7643 94.0943 12.7642 94.0937 12.7642C94.0931 12.7641 94.0924 12.7641 94.0918 12.764C94.0912 12.7639 94.0905 12.7639 94.0899 12.7638C94.0893 12.7637 94.0887 12.7637 94.088 12.7636C94.0874 12.7635 94.0868 12.7635 94.0862 12.7634C94.0855 12.7633 94.0849 12.7633 94.0843 12.7632C94.0837 12.7631 94.0831 12.7631 94.0824 12.763C94.0818 12.763 94.0812 12.7629 94.0806 12.7628C94.08 12.7628 94.0794 12.7627 94.0788 12.7626C94.0782 12.7626 94.0776 12.7625 94.077 12.7625C94.0764 12.7624 94.0758 12.7623 94.0752 12.7623C94.0746 12.7622 94.074 12.7621 94.0734 12.7621C94.0728 12.762 94.0722 12.762 94.0716 12.7619C94.071 12.7618 94.0704 12.7618 94.0698 12.7617C94.0692 12.7617 94.0686 12.7616 94.0681 12.7615C94.0675 12.7615 94.0669 12.7614 94.0663 12.7614C94.0657 12.7613 94.0651 12.7612 94.0646 12.7612C94.064 12.7611 94.0634 12.7611 94.0628 12.761C94.0623 12.7609 94.0617 12.7609 94.0611 12.7608C94.0605 12.7608 94.06 12.7607 94.0594 12.7606C94.0588 12.7606 94.0583 12.7605 94.0577 12.7605C94.0571 12.7604 94.0566 12.7604 94.056 12.7603C94.0555 12.7602 94.0549 12.7602 94.0543 12.7601C94.0538 12.7601 94.0532 12.76 94.0527 12.76C94.0521 12.7599 94.0516 12.7598 94.051 12.7598C94.0505 12.7597 94.0499 12.7597 94.0494 12.7596C94.0488 12.7596 94.0483 12.7595 94.0478 12.7594C94.0472 12.7594 94.0467 12.7593 94.0461 12.7593C94.0456 12.7592 94.0451 12.7592 94.0445 12.7591C94.044 12.7591 94.0435 12.759 94.0429 12.7589C94.0424 12.7589 94.0419 12.7588 94.0413 12.7588C94.0408 12.7587 94.0403 12.7587 94.0398 12.7586C94.0392 12.7586 94.0387 12.7585 94.0382 12.7585C94.0377 12.7584 94.0372 12.7584 94.0366 12.7583C94.0361 12.7582 94.0356 12.7582 94.0351 12.7581C94.0346 12.7581 94.0341 12.758 94.0336 12.758C94.0331 12.7579 94.0325 12.7579 94.032 12.7578C94.0315 12.7578 94.031 12.7577 94.0305 12.7577C94.03 12.7576 94.0295 12.7576 94.029 12.7575C94.0285 12.7575 94.028 12.7574 94.0275 12.7574C94.027 12.7573 94.0265 12.7573 94.0261 12.7572C94.0256 12.7572 94.0251 12.7571 94.0246 12.7571C94.0241 12.757 94.0236 12.757 94.0231 12.7569C94.0226 12.7569 94.0222 12.7568 94.0217 12.7568C94.0212 12.7567 94.0207 12.7567 94.0202 12.7566C94.0198 12.7566 94.0193 12.7565 94.0188 12.7565C94.0183 12.7564 94.0179 12.7564 94.0174 12.7563C94.0169 12.7563 94.0165 12.7562 94.016 12.7562C94.0155 12.7561 94.0151 12.7561 94.0146 12.756C94.0141 12.756 94.0137 12.7559 94.0132 12.7559C94.0128 12.7558 94.0123 12.7558 94.0119 12.7557C94.0114 12.7557 94.0109 12.7556 94.0105 12.7556C94.01 12.7556 94.0096 12.7555 94.0091 12.7555C94.0087 12.7554 94.0082 12.7554 94.0078 12.7553C94.0074 12.7553 94.0069 12.7552 94.0065 12.7552C94.006 12.7551 94.0056 12.7551 94.0052 12.7551C94.0047 12.755 94.0043 12.755 94.0039 12.7549C94.0034 12.7549 94.003 12.7548 94.0026 12.7548C94.0021 12.7547 94.0017 12.7547 94.0013 12.7547C94.0008 12.7546 94.0004 12.7546 94 12.7545C93.9996 12.7545 93.9992 12.7544 93.9987 12.7544C93.9983 12.7543 93.9979 12.7543 93.9975 12.7543C93.9971 12.7542 93.9967 12.7542 93.9962 12.7541C93.9958 12.7541 93.9954 12.754 93.995 12.754C93.9946 12.754 93.9942 12.7539 93.9938 12.7539C93.9934 12.7538 93.993 12.7538 93.9926 12.7538C93.9922 12.7537 93.9918 12.7537 93.9914 12.7536C93.991 12.7536 93.9906 12.7536 93.9902 12.7535C93.9898 12.7535 93.9894 12.7534 93.989 12.7534C93.9886 12.7533 93.9882 12.7533 93.9879 12.7533C93.9875 12.7532 93.9871 12.7532 93.9867 12.7532C93.9863 12.7531 93.9859 12.7531 93.9856 12.753C93.9852 12.753 93.9848 12.753 93.9844 12.7529C93.9841 12.7529 93.9837 12.7528 93.9833 12.7528C93.9829 12.7528 93.9826 12.7527 93.9822 12.7527C93.9818 12.7526 93.9815 12.7526 93.9811 12.7526C93.9807 12.7525 93.9804 12.7525 93.98 12.7525C93.9796 12.7524 93.9793 12.7524 93.9789 12.7523C93.9786 12.7523 93.9782 12.7523 93.9779 12.7522C93.9775 12.7522 93.9772 12.7522 93.9768 12.7521C93.9765 12.7521 93.9761 12.7521 93.9758 12.752C93.9754 12.752 93.9751 12.752 93.9747 12.7519C93.9744 12.7519 93.974 12.7518 93.9737 12.7518C93.9734 12.7518 93.973 12.7517 93.9727 12.7517C93.9723 12.7517 93.972 12.7516 93.9717 12.7516C93.9713 12.7516 93.971 12.7515 93.9707 12.7515C93.9704 12.7515 93.97 12.7514 93.9697 12.7514C93.9694 12.7514 93.9691 12.7513 93.9687 12.7513C93.9684 12.7513 93.9681 12.7512 93.9678 12.7512C93.9675 12.7512 93.9671 12.7511 93.9668 12.7511C93.9665 12.7511 93.9662 12.751 93.9659 12.751C93.9656 12.751 93.9653 12.7509 93.965 12.7509C93.9647 12.7509 93.9644 12.7508 93.964 12.7508C93.9637 12.7508 93.9634 12.7508 93.9631 12.7507C93.9628 12.7507 93.9625 12.7507 93.9622 12.7506C93.962 12.7506 93.9617 12.7506 93.9614 12.7505C93.9611 12.7505 93.9608 12.7505 93.9605 12.7504C93.9602 12.7504 93.9599 12.7504 93.9596 12.7504C93.9593 12.7503 93.9591 12.7503 93.9588 12.7503C93.9585 12.7502 93.9582 12.7502 93.9579 12.7502C93.9577 12.7502 93.9574 12.7501 93.9571 12.7501C93.9568 12.7501 93.9566 12.75 93.9563 12.75C93.956 12.75 93.9558 12.75 93.9555 12.7499C93.9552 12.7499 93.955 12.7499 93.9547 12.7499C93.9544 12.7498 93.9542 12.7498 93.9539 12.7498C93.9536 12.7497 93.9534 12.7497 93.9531 12.7497C93.9529 12.7497 93.9526 12.7496 93.9524 12.7496C93.9521 12.7496 93.9519 12.7496 93.9516 12.7495C93.9514 12.7495 93.9511 12.7495 93.9509 12.7495C93.9506 12.7494 93.9504 12.7494 93.9501 12.7494C93.9499 12.7494 93.9497 12.7493 93.9494 12.7493C93.9492 12.7493 93.9489 12.7493 93.9487 12.7492C93.9485 12.7492 93.9482 12.7492 93.948 12.7492C93.9478 12.7491 93.9475 12.7491 93.9473 12.7491C93.9471 12.7491 93.9469 12.749 93.9466 12.749C93.9464 12.749 93.9462 12.749 93.946 12.749C93.9458 12.7489 93.9455 12.7489 93.9453 12.7489C93.9451 12.7489 93.9449 12.7488 93.9447 12.7488C93.9445 12.7488 93.9442 12.7488 93.944 12.7488C93.9438 12.7487 93.9436 12.7487 93.9434 12.7487C93.9432 12.7487 93.943 12.7486 93.9428 12.7486C93.9426 12.7486 93.9424 12.7486 93.9422 12.7486C93.942 12.7485 93.9418 12.7485 93.9416 12.7485C93.9414 12.7485 93.9412 12.7485 93.941 12.7484C93.9408 12.7484 93.9406 12.7484 93.9405 12.7484C93.9403 12.7484 93.9401 12.7483 93.9399 12.7483C93.9397 12.7483 93.9395 12.7483 93.9394 12.7483C93.9392 12.7483 93.939 12.7482 93.9388 12.7482C93.9386 12.7482 93.9385 12.7482 93.9383 12.7482C93.9381 12.7481 93.9379 12.7481 93.9378 12.7481C93.9376 12.7481 93.9374 12.7481 93.9373 12.7481C93.9371 12.748 93.9369 12.748 93.9368 12.748C93.9366 12.748 93.9365 12.748 93.9363 12.748C93.9361 12.7479 93.936 12.7479 93.9358 12.7479C93.9357 12.7479 93.9355 12.7479 93.9354 12.7479C93.9352 12.7478 93.9351 12.7478 93.9349 12.7478C93.9348 12.7478 93.9346 12.7478 93.9345 12.7478C93.9343 12.7478 93.9342 12.7477 93.934 12.7477C93.9339 12.7477 93.9338 12.7477 93.9336 12.7477C93.9335 12.7477 93.9334 12.7477 93.9332 12.7476C93.9331 12.7476 93.933 12.7476 93.9328 12.7476C93.9327 12.7476 93.9326 12.7476 93.9324 12.7476C93.9323 12.7475 93.9322 12.7475 93.9321 12.7475C93.9319 12.7475 93.9318 12.7475 93.9317 12.7475C93.9316 12.7475 93.9315 12.7475 93.9314 12.7474C93.9312 12.7474 93.9311 12.7474 93.931 12.7474C93.9309 12.7474 93.9308 12.7474 93.9307 12.7474C93.9306 12.7474 93.9305 12.7474 93.9304 12.7473C93.9303 12.7473 93.9302 12.7473 93.9301 12.7473C93.93 12.7473 93.9299 12.7473 93.9298 12.7473C93.9297 12.7473 93.9296 12.7473 93.9295 12.7473C93.9294 12.7472 93.9293 12.7472 93.9292 12.7472C93.9291 12.7472 93.929 12.7472 93.9289 12.7472C93.9288 12.7472 93.9288 12.7472 93.9287 12.7472C93.9286 12.7472 93.9285 12.7472 93.9284 12.7471C93.9283 12.7471 93.9283 12.7471 93.9282 12.7471C93.9281 12.7471 93.928 12.7471 93.928 12.7471C93.9279 12.7471 93.9278 12.7471 93.9278 12.7471C93.9277 12.7471 93.9276 12.7471 93.9276 12.7471C93.9275 12.747 93.9274 12.747 93.9274 12.747C93.9273 12.747 93.9272 12.747 93.9272 12.747C93.9271 12.747 93.9271 12.747 93.927 12.747C93.927 12.747 93.9269 12.747 93.9269 12.747C93.9268 12.747 93.9268 12.747 93.9267 12.747C93.9267 12.747 93.9266 12.747 93.9266 12.747C93.9265 12.7469 93.9265 12.7469 93.9265 12.7469C93.9264 12.7469 93.9264 12.7469 93.9263 12.7469C93.9263 12.7469 93.9263 12.7469 93.9262 12.7469C93.9262 12.7469 93.9262 12.7469 93.9261 12.7469C93.9261 12.7469 93.9261 12.7469 93.9261 12.7469C93.926 12.7469 93.926 12.7469 93.926 12.7469C93.926 12.7469 93.926 12.7469 93.9259 12.7469C93.9259 12.7469 93.9259 12.7469 93.9259 12.7469C93.9259 12.7469 93.9259 12.7469 93.9259 12.7469C93.9258 12.7469 93.9258 12.7469 93.9258 12.7469C93.9258 12.7469 93.9258 12.7469 93.9258 12.7469C93.9258 12.7469 93.9258 12.7469 93.7207 14.7363ZM93.1416 14.8828V30H97.1416V14.8828H93.1416ZM95.1416 28H92.5049V32H95.1416V28ZM94.5004 29.8658L94.3832 28.1227L90.3922 28.391L90.5094 30.1342L94.5004 29.8658ZM90.7877 27.0568C90.5157 27.4194 90.0216 27.8021 89.1025 28.0935L90.3115 31.9065C91.7948 31.4361 93.0878 30.6567 93.9877 29.4568L90.7877 27.0568ZM89.099 28.0947C88.8392 28.1776 88.5709 28.2197 88.2861 28.2197V32.2197C88.978 32.2197 89.6569 32.1154 90.3151 31.9053L89.099 28.0947ZM88.2861 28.2197C87.9448 28.2197 87.6078 28.185 87.2731 28.1153L86.4573 32.0312C87.0602 32.1568 87.6705 32.2197 88.2861 32.2197V28.2197ZM87.2731 28.1153C86.975 28.0532 86.6589 27.9471 86.3232 27.7862L84.5947 31.3935C85.1965 31.6818 85.818 31.898 86.4573 32.0312L87.2731 28.1153ZM86.3381 27.7934C86.0549 27.6548 85.7634 27.4613 85.465 27.1976L82.8162 30.1949C83.3577 30.6735 83.9451 31.0756 84.5799 31.3863L86.3381 27.7934ZM85.4843 27.2149C85.224 26.9788 84.967 26.6697 84.7223 26.2667L81.3031 28.3426C81.7225 29.0334 82.2174 29.652 82.797 30.1777L85.4843 27.2149ZM92.46 15.0516C91.7533 14.9632 91.0455 14.9189 90.3369 14.9189V18.9189C90.8783 18.9189 91.4205 18.9528 91.9638 19.0207L92.46 15.0516ZM90.3369 14.9189C89.4787 14.9189 88.6126 15.0754 87.7508 15.3507L88.968 19.161C89.5124 18.9871 89.9647 18.9189 90.3369 18.9189V14.9189ZM87.7749 15.3432C86.8006 15.6409 85.925 16.1301 85.1869 16.8249L87.9283 19.7376C88.1863 19.4949 88.5119 19.3005 88.9438 19.1686L87.7749 15.3432ZM85.1852 16.8265C83.6088 18.3136 83.0049 20.4254 83.0049 22.749H87.0049C87.0049 21.0687 87.4361 20.2021 87.9301 19.736L85.1852 16.8265ZM83.0049 22.749C83.0049 24.913 83.5085 26.9212 84.9084 28.3519L87.7674 25.5544C87.3899 25.1686 87.0049 24.3741 87.0049 22.749H83.0049ZM84.9237 28.3673C85.9701 29.4137 87.2883 29.9639 88.7695 29.9639V25.9639C88.3563 25.9639 88.0534 25.8402 87.7521 25.5389L84.9237 28.3673ZM88.7695 29.9639C90.5441 29.9639 92.0994 29.2881 93.281 27.9606L90.2932 25.3011C89.8928 25.7509 89.4364 25.9639 88.7695 25.9639V29.9639ZM93.2963 27.9432C93.5517 27.6496 93.8096 27.3069 94.0008 26.9247L90.4231 25.1358C90.4339 25.1141 90.4329 25.1207 90.407 25.1573C90.3818 25.1929 90.3406 25.2464 90.2779 25.3185L93.2963 27.9432ZM94.2119 26.0303V17.0361H90.2119V26.0303H94.2119ZM102.844 29.8975L101.552 31.4242L101.573 31.442L101.594 31.4592L102.844 29.8975ZM102.844 27.1289L101.571 25.5862L101.561 25.5941L101.552 25.6021L102.844 27.1289ZM105.788 29.8975L107.037 31.4592L107.049 31.4498L107.061 31.4402L105.788 29.8975ZM104.309 28.3662C104.193 28.3662 104.134 28.351 104.112 28.3442C104.102 28.3407 104.097 28.3382 104.096 28.3378C104.096 28.3375 104.095 28.3372 104.093 28.3357L101.594 31.4592C102.398 32.1023 103.35 32.3662 104.309 32.3662V28.3662ZM104.136 28.3707C104.157 28.3892 104.183 28.4156 104.208 28.4496C104.233 28.4836 104.251 28.517 104.263 28.5451C104.286 28.6017 104.272 28.6065 104.272 28.5205H100.272C100.272 29.5787 100.634 30.6476 101.552 31.4242L104.136 28.3707ZM104.272 28.5205C104.272 28.4255 104.287 28.4246 104.265 28.478C104.254 28.5048 104.237 28.5381 104.212 28.5729C104.186 28.6077 104.159 28.6355 104.136 28.6557L101.552 25.6021C100.626 26.3852 100.272 27.4645 100.272 28.5205H104.272ZM104.117 28.6717C104.117 28.6709 104.117 28.6697 104.13 28.6656C104.146 28.6604 104.199 28.6455 104.309 28.6455V24.6455C103.335 24.6455 102.375 24.9229 101.571 25.5862L104.117 28.6717ZM104.309 28.6455C104.426 28.6455 104.485 28.6613 104.504 28.6675C104.514 28.6706 104.517 28.6726 104.516 28.6721C104.515 28.6716 104.515 28.671 104.515 28.6717L107.061 25.5862C106.251 24.918 105.283 24.6455 104.309 24.6455V28.6455ZM104.515 28.6717C104.493 28.6534 104.467 28.627 104.441 28.5924C104.415 28.5577 104.396 28.5235 104.384 28.4946C104.36 28.4364 104.374 28.4314 104.374 28.5205H108.374C108.374 27.4472 108.003 26.3636 107.061 25.5862L104.515 28.6717ZM104.374 28.5205C104.374 28.6005 104.361 28.5898 104.387 28.5284C104.4 28.4982 104.419 28.464 104.444 28.4301C104.47 28.3963 104.495 28.3713 104.515 28.3547L107.061 31.4402C107.995 30.6693 108.374 29.5961 108.374 28.5205H104.374ZM104.539 28.3357C104.538 28.3359 104.539 28.3356 104.539 28.3357C104.538 28.3358 104.533 28.3386 104.521 28.3424C104.497 28.3501 104.432 28.3662 104.309 28.3662V32.3662C105.268 32.3662 106.228 32.107 107.037 31.4592L104.539 28.3357Z" fill="#E5E5E5"/>
<circle cx="55.3" cy="10.6" r="4" fill="#D98B30"/>
<circle cx="104.3" cy="28.5" r="4" fill="#D98B30"/>
</svg>
